<svg id="Calque_1" data-name="Calque 1" xmlns="http://www.w3.org/2000/svg" viewBox="0 0 275.222 270.95"><defs><style>.cls-1{fill:#9b9b9b;}.cls-2{fill:#fff;stroke:#000;stroke-miterlimit:10;}</style></defs><title>hangar</title><polygon class="cls-1" points="2.034 154.95 2.034 183.95 19.034 183.95 19.034 249.95 2.034 249.95 2.034 270.95 43.034 241.695 43.034 202.95 31.093 167.788 2.034 154.95"/><polygon class="cls-1" points="275.006 270.598 274.519 241.602 257.521 241.887 256.412 175.897 273.41 175.611 273.057 154.614 232.554 184.554 233.205 223.293 245.736 258.25 275.006 270.598"/><path class="cls-2" d="M238.616,102.872c58.773-5,65.637,49.6,65.707,53.546,0.718,40.559-.657,100.081-0.657,100.081H372s-30.777,23.02-30.481,62.229S372,372.5,372,372.5H101s29.514-15.44,29.059-52.07S101,256.5,101,256.5h83.5V162S184.448,107.476,238.616,102.872Z" transform="translate(-98.966 -102.05)"/></svg>