<?xml version="1.0" encoding="utf-8"?>
<!-- Generator: Adobe Illustrator 19.2.0, SVG Export Plug-In . SVG Version: 6.00 Build 0)  -->
<svg version="1.1" id="Calque_1" xmlns="http://www.w3.org/2000/svg" xmlns:xlink="http://www.w3.org/1999/xlink" x="0px" y="0px"
	 viewBox="0 0 100 125" style="enable-background:new 0 0 100 125;" xml:space="preserve">
<style type="text/css">
	.st0{fill:#FFFFFF;}
</style>
<g transform="matrix( 1, 0, 0, 1, 0,0) ">
	<g>
		<g id="a">
			<path class="st0" d="M36.4,82.6c0-2.1-0.8-3.5-2.4-4.3c-0.7-1.2-2.6-1.8-5.5-1.8c-0.7,0-1.7,0.3-3,0.9c-2.4,1.8-3.6,3.6-3.6,5.3
				c0.4,4.3,2.8,6.5,7.1,6.6c0.4-0.1,0.9-0.2,1.6-0.2C34.5,87.5,36.4,85.3,36.4,82.6 M32.7,80.3c0.7,0,1.1,0.5,1.1,1.4
				c0,2.6-1.6,4.4-4.7,5.4H29c-2,0-3.4-1.1-4.2-3.2V83l0.7-2.2c1-1.1,2-1.8,3-2.1c0.4,0,0.5,0.2,0.5,0.5c0,0.7,0.8,1.1,2.5,1.1H32.7
				 M17.4,83.7l-0.9-0.8c-2.8-1.1-4.7-1.1-5.9-0.1c-0.5,0.6-0.9,1.1-1.1,1.5c-0.7,1.6-0.5,3,0.7,4l0.8,0.8c0.3,0.3,0.6,0.5,0.9,0.4
				c1.4,0.8,3,0.2,5-1.6C18.1,86.9,18.3,85.5,17.4,83.7 M11.9,84.4c0.8-0.7,1.8-0.7,3.1-0.1c0.7,0.7,0.6,1.7-0.2,3
				c-1.1,0.8-1.9,0.9-2.6,0.3L12,87.3C11.1,86.2,11.1,85.2,11.9,84.4L11.9,84.4 M92.2,31.6c0-1.4-1.3-3.4-3.9-6
				c-3.7-2.1-6.5-3.1-8.4-3.1s-3.2,0.2-4.1,0.5l-0.7-0.2c0.2-0.8,0.3-1.6,0.3-2.5V20c0-3.6-2.8-6-8.5-7.2c-2.3,0-4.1,0.4-5.4,1.1
				c-0.3-0.1-0.4-0.2-0.5-0.3c-1.6-2.3-3.7-3.4-6.1-3.4h-1.8c-2.8,0-5.2,1.7-7,5.2c-1.4-0.5-2.2-0.7-2.6-0.7H43
				c-3.4,0-6.4,0.8-9,2.3c-1.5,0.3-4,2.3-7.4,6.1c-1.3,2.3-2.1,4.7-2.5,7.3L23,30.2h-1.3c-1.5,0-3.1,0.2-4.8,0.8
				c-4.1,2.2-6.4,4.1-6.7,5.7c-0.3,1.8-0.6,2.6-0.8,2.6H8.2l-0.8,0.1c-3.8,1.7-5.7,4.1-5.7,7.2v1.6c0,0.5,0.3,1.8,1,3.9
				c2.3,3.3,5,5,8.2,5c0.8,0,1.9-0.2,3.3-0.6h0.2c0.5,1.6,1,2.5,1.3,2.8c0.6,1.2,2.3,1.7,5,1.8h1.1l2.3-0.7c0.3,0,0.7,0.8,1.3,2.3
				c0,0.4,1.1,1.4,3.1,3l3.2,1.1l-0.5,2.6l0.5,2.4c1.3,3.2,3.7,4.8,7.1,4.8l1.6-0.3h0.2c2.2,0.8,3.6,1.2,4.2,1.2h1.1
				c3.3,0,5.9-1,7.8-3c0.6-1.2,1.1-2.1,1.5-2.8c2-0.2,3.9-1.1,5.6-2.6c0.9-1.4,1.4-2,1.5-2c1.1,0.1,2,0.1,2.6,0.1H66
				c1.8,0,3.8-0.3,5.8-0.8c2.8-1.4,5.2-3.5,7.1-6.1c0.4-1.1,0.9-1.7,1.5-1.7h1.4c2,0,4.3-0.7,7.1-2.1c1.5-1.6,2.3-3,2.4-4
				c0-0.7,1.2-1.6,3.7-2.5c1.1-1.1,1.7-1.7,1.9-1.7c1.4-1.5,2.3-3.3,2.6-5.6c0-0.6,0-1-0.1-1.2c0-3.1-1.1-5.3-3.4-6.5
				c-2.6-0.4-3.8-0.8-3.8-1.2l0.2-1V31.6 M89.6,33c0,1-0.7,2.1-2.1,3.5v1c0.3,0.4,0.5,0.5,0.7,0.5h0.5l2.4-1.7
				c2.4,0.3,3.7,0.7,3.8,1.1c0.7,0,1.3,1.4,1.8,4.3v1.4c0,0.4-0.2,1.1-0.6,2.1c-0.9,1.8-2.4,2.9-4.5,3.5l-0.8-0.3
				c-0.9,0-1.6,0.4-1.9,1.2l0.2,1.2c0,0.9-0.3,1.7-0.8,2.6c-2,1.8-4,2.6-6.1,2.6h-1.4L80.4,56c-0.5-1.7-0.9-2.5-1.3-2.5h-0.5
				c-0.6,0-0.9,0.2-1.1,0.6c0,0.5,0.1,1.2,0.2,2c-0.4,1.7-0.9,2.9-1.8,3.6c-2.2,3.4-5.3,5.2-9.3,5.2h-0.6l-3.6-0.5h-1.1
				c-0.9,0.7-1.3,1.1-1.3,1.3c-1.2,2.2-2.4,3.2-3.8,3.2h-0.3l-0.3-0.1c0-3.2-0.6-5.2-1.8-6h-0.6l-0.8,0.7v0.6
				c0.3,0.9,0.4,1.9,0.4,2.8v1.4c0,0.7-0.1,1.4-0.4,2.2c-1,3.2-3.3,4.8-6.9,4.8h-1l-1.8-0.6c0-0.5,0.4-1.1,1.3-1.8v-0.4
				c-0.3-0.4-0.5-0.6-0.7-0.6h-0.4l-1.1,0.1c-1.5,1.1-2.6,1.9-3.6,2.4c-0.3-0.1-0.7-0.1-1.3-0.2c-1.5-1.1-2.3-2.4-2.3-3.7v-1.2
				c0-1.4,1.1-2.9,3.4-4.5c2-0.7,3.1-1.4,3.1-2.1v-0.2c0-0.3-0.7-0.5-2-0.6c-1.2,0.1-3,0.9-5.3,2.4L33,64.2l-1,0.1h-0.3l-2.7-1
				c-1.3-1.2-2-2.4-2-3.6V59l0.7-1.6c0-0.3-0.3-0.6-0.8-0.9h-0.8c-3.2,1.4-5.2,2.2-5.9,2.2h-0.8c-1.6,0-2.5-0.9-2.8-2.6v-0.4
				c0.7-1.2,1.1-2,1.1-2.4c0-0.3-0.6-0.6-1.8-0.8l-0.9,0.7c0,0.6-1.9,1.1-5.8,1.5l-2.6-1.3c-1.6-2.2-2.5-4.2-2.5-6.1
				c0-0.8,0.5-2,1.5-3.5c1.4-1.4,2.6-2.1,3.8-2.1c1.2,1.2,2.1,1.8,2.8,1.8h0.1c0.5-0.2,0.8-0.4,0.8-0.6v-0.5c-0.7-0.9-1-1.7-1-2.4
				c0.1-1.3,0.5-2.6,1.3-3.7c2.5-2.1,5-3.4,7.3-3.8h1.4c1.4,0,2.6,0.3,3.5,0.9h0.9c0.2-0.1,0.4-0.3,0.7-0.7L26.9,30
				c0-0.1,0-0.3,0.1-0.4c0-2.2,1.9-5.2,5.7-9.1c3.9-2.3,7.1-3.5,9.4-3.5h1.6c0.4,0,1.5,0.4,3.3,1.1h0.2l0.4-0.3
				c0-1.1,0.7-2.2,2.1-3.4c0.8-1.4,2.1-2,3.8-2l1.1,0.2c2.6,0.8,3.9,1.6,3.9,2.4L58.4,17c0,0.3,0.2,0.6,0.5,1.1h0.5
				c1.9-1.9,4.1-2.8,6.5-2.8h0.5c1.1,0,2.6,0.6,4.4,1.7c1.2,1.1,1.9,2.2,2.1,3.3c0,1.9-0.3,3.4-1,4.5l-1.8,2.8
				c0.3,0.4,0.6,0.6,1,0.6h0.4c2-1.9,3.9-3,5.6-3.2h1.5c1.9,0,4.3,0.8,7.3,2.4C88.4,29.9,89.6,31.7,89.6,33z"/>
		</g>
	</g>
</g>
</svg>
