<svg id="Calque_1" data-name="Calque 1" xmlns="http://www.w3.org/2000/svg" xmlns:xlink="http://www.w3.org/1999/xlink" viewBox="0 0 1082.14 2489.24"><defs><style>.cls-1{fill:#9ba4cf;}.cls-2{fill:#fff;stroke-width:65px;}.cls-11,.cls-15,.cls-16,.cls-2,.cls-6{stroke:#fff;}.cls-11,.cls-14,.cls-15,.cls-16,.cls-2,.cls-3,.cls-4,.cls-6{stroke-miterlimit:10;}.cls-3{stroke-width:90px;fill:url(#Dégradé_sans_nom_200);stroke:url(#Dégradé_sans_nom_178);}.cls-14,.cls-15,.cls-4{fill:none;}.cls-4{stroke:#acabab;stroke-width:5px;stroke-dasharray:40 60 40 60 40 60;}.cls-5{fill:#ffc393;}.cls-6{fill:#53bab7;}.cls-11,.cls-15,.cls-16,.cls-6{stroke-width:4px;}.cls-7{fill:#5d9821;}.cls-8{fill:#df86b6;}.cls-9{fill:#ebe07c;}.cls-10{fill:#ef8772;}.cls-11{fill:#b4dff0;}.cls-12{fill:#b07f48;}.cls-13{fill:#916036;}.cls-14{stroke:#000;}.cls-16{fill:#f8bf90;}.cls-17{fill:#3c2415;}.cls-18{fill:#518c15;}.cls-19{fill:#6aa52e;}</style><linearGradient id="Dégradé_sans_nom_200" x1="-1209.26" y1="2239.99" x2="-1189.41" y2="2286.37" gradientTransform="translate(-1732.21 -963.89) rotate(-90)" gradientUnits="userSpaceOnUse"><stop offset="0" stop-color="#fff"/><stop offset="0.03" stop-color="#e8e9f3"/><stop offset="0.09" stop-color="#abb2d4"/><stop offset="0.11" stop-color="#98a0ca"/><stop offset="0.18" stop-color="#98a0ca"/><stop offset="0.54" stop-color="#98a0ca"/></linearGradient><linearGradient id="Dégradé_sans_nom_178" x1="-1240.56" y1="2272.01" x2="-1150.56" y2="2272.01" gradientTransform="translate(-1732.21 -963.89) rotate(-90)" gradientUnits="userSpaceOnUse"><stop offset="0.04" stop-color="#fff"/><stop offset="0.29" stop-color="#e8e9f3"/><stop offset="0.84" stop-color="#abb2d4"/><stop offset="1" stop-color="#98a0ca"/></linearGradient></defs><title>Maquette_fond</title><rect id="Couleur_fond" data-name="Couleur fond" class="cls-1" x="0.86" width="1081.28" height="2489.24"/><line id="Route_bas" data-name="Route bas" class="cls-2" x1="1000.86" y1="2362.94" x2="100.64" y2="2365.28"/><line id="Route_principale" data-name="Route principale" class="cls-2" x1="539.84" y1="267.5" x2="539.84" y2="2362.73"/><line id="Route_dégradé" data-name="Route dégradé" class="cls-3" x1="507.32" y1="231.67" x2="572.27" y2="231.67"/><line id="Trait_de_route" data-name="Trait de route" class="cls-4" x1="539.84" y1="367.35" x2="539.84" y2="2362.73"/><rect id="Maison" class="cls-5" x="0.86" width="506.46" height="138.31"/><rect id="Maison-2" data-name="Maison" class="cls-5" x="572.71" width="509.42" height="138.31"/><polygon id="Fenêtre" class="cls-6" points="183.76 96.08 102.57 96.08 102.57 27.85 143.17 27.85 183.76 27.85 183.76 96.08"/><path id="Buisson" class="cls-7" d="M-0.86,127.64a19.47,19.47,0,0,1,13.78-6.69A19.67,19.67,0,0,1,28,127.64a6.14,6.14,0,0,1,12.24,0c1.9-4.64,6-6.35,8-5.3,1.48,0.75,2.19,3,2.1,5.3a26.34,26.34,0,0,1,15.74-8.79c13.35-2,22.63,7.9,23.44,8.8A15.74,15.74,0,0,1,99,123.39a16.11,16.11,0,0,1,11.92,4.25,16.61,16.61,0,0,1,11.52-6.35c8.43-.66,13.65,5.84,14,6.35,0.35-.4,5.5-6.12,12.89-5a14.07,14.07,0,0,1,8.47,5c3.2-2,7.12-4,8.32-2.85,0.39,0.38.57,1.17,0,2.85a10.12,10.12,0,0,1,7.32-4.6,9.8,9.8,0,0,1,9.1,4.6,7.22,7.22,0,0,1,14.34,0,29.58,29.58,0,0,1,13.29-5,30.48,30.48,0,0,1,19.92,5,7.94,7.94,0,0,1,14.42,0,45,45,0,0,1,39.78,0c2.74-8.33,10.81-12.26,16.61-10.17,3.88,1.4,6.64,5.46,7.4,10.17,0.3-.39,4.51-5.68,11.3-5.11a13.23,13.23,0,0,1,9.14,5.11c0.56-4.35,4.47-6.71,7.23-5.89,2,0.61,3.63,3,3.63,5.89a38.63,38.63,0,0,1,19.74-7.45,39.23,39.23,0,0,1,25.33,7,15.67,15.67,0,0,1,26.1.39,8.87,8.87,0,0,1,7-1.95,9,9,0,0,1,6.23,4.68c1.13-1.16,10.12-10,23.38-8.57a28.69,28.69,0,0,1,17.92,9.35,15.81,15.81,0,0,1,8.57-7.4c6.35-2.08,13.94.67,18.7,7,2.87-5.19,9.36-6.23,12.86-3.51s4.07,8.9.09,13H-0.86V127.64Z" transform="translate(0.86)"/><path class="cls-8" d="M478,128.69a0.5,0.5,0,1,0-.82.45,0.42,0.42,0,1,0,0,.72,0.67,0.67,0,0,0-.34.69,0.68,0.68,0,0,0,.78-0.14,0.59,0.59,0,0,0,.61.57,0.58,0.58,0,0,0,.27-0.71,0.55,0.55,0,0,0,.77,0,0.53,0.53,0,0,0-.27-0.59,0.61,0.61,0,0,0,.36-0.63,0.59,0.59,0,0,0-.65,0A0.4,0.4,0,1,0,478,128.69Z" transform="translate(0.86)"/><path class="cls-9" d="M487.08,133.24a0.5,0.5,0,1,0-.82.45,0.42,0.42,0,1,0,0,.72,0.67,0.67,0,0,0-.34.69,0.68,0.68,0,0,0,.78-0.14,0.59,0.59,0,0,0,.61.57,0.58,0.58,0,0,0,.27-0.71,0.55,0.55,0,0,0,.77,0,0.53,0.53,0,0,0-.27-0.59,0.61,0.61,0,0,0,.36-0.63,0.59,0.59,0,0,0-.65,0A0.4,0.4,0,1,0,487.08,133.24Z" transform="translate(0.86)"/><path class="cls-10" d="M503.07,127.06a0.5,0.5,0,1,0-.82.45,0.42,0.42,0,1,0,0,.72,0.67,0.67,0,0,0-.34.69,0.68,0.68,0,0,0,.78-0.14,0.59,0.59,0,0,0,.61.57,0.58,0.58,0,0,0,.27-0.71,0.55,0.55,0,0,0,.77,0,0.53,0.53,0,0,0-.27-0.59,0.61,0.61,0,0,0,.36-0.63,0.59,0.59,0,0,0-.65,0A0.4,0.4,0,1,0,503.07,127.06Z" transform="translate(0.86)"/><path class="cls-10" d="M446.26,131.88a0.5,0.5,0,1,0-.82.45,0.42,0.42,0,1,0,0,.72,0.67,0.67,0,0,0-.34.69,0.68,0.68,0,0,0,.78-0.14,0.59,0.59,0,0,0,.61.57,0.58,0.58,0,0,0,.27-0.71,0.55,0.55,0,0,0,.77,0,0.53,0.53,0,0,0-.27-0.59,0.61,0.61,0,0,0,.36-0.63,0.59,0.59,0,0,0-.65,0A0.4,0.4,0,1,0,446.26,131.88Z" transform="translate(0.86)"/><path class="cls-10" d="M411.45,134.21a0.5,0.5,0,1,0-.82.45,0.42,0.42,0,1,0,0,.72,0.67,0.67,0,0,0-.34.69,0.68,0.68,0,0,0,.78-0.14,0.59,0.59,0,0,0,.61.57,0.58,0.58,0,0,0,.27-0.71,0.55,0.55,0,0,0,.77,0,0.53,0.53,0,0,0-.27-0.59,0.61,0.61,0,0,0,.36-0.63,0.59,0.59,0,0,0-.65,0A0.4,0.4,0,1,0,411.45,134.21Z" transform="translate(0.86)"/><path class="cls-10" d="M348.38,124.34a0.5,0.5,0,1,0-.82.45,0.42,0.42,0,1,0,0,.72,0.67,0.67,0,0,0-.34.69,0.68,0.68,0,0,0,.78-0.14,0.59,0.59,0,0,0,.61.57,0.58,0.58,0,0,0,.27-0.71,0.55,0.55,0,0,0,.77,0,0.53,0.53,0,0,0-.27-0.59,0.61,0.61,0,0,0,.36-0.63,0.59,0.59,0,0,0-.65,0A0.4,0.4,0,1,0,348.38,124.34Z" transform="translate(0.86)"/><path class="cls-10" d="M325.83,128.76a0.5,0.5,0,1,0-.82.45,0.42,0.42,0,1,0,0,.72,0.67,0.67,0,0,0-.34.69,0.68,0.68,0,0,0,.78-0.14,0.59,0.59,0,0,0,.61.57,0.58,0.58,0,0,0,.27-0.71,0.55,0.55,0,0,0,.77,0,0.53,0.53,0,0,0-.27-0.59,0.61,0.61,0,0,0,.36-0.63,0.59,0.59,0,0,0-.65,0A0.4,0.4,0,1,0,325.83,128.76Z" transform="translate(0.86)"/><path class="cls-10" d="M256,124.34a0.5,0.5,0,1,0-.82.45,0.42,0.42,0,1,0,0,.72,0.67,0.67,0,0,0-.34.69,0.68,0.68,0,0,0,.78-0.14,0.59,0.59,0,0,0,.61.57,0.58,0.58,0,0,0,.27-0.71,0.55,0.55,0,0,0,.77,0,0.53,0.53,0,0,0-.27-0.59,0.61,0.61,0,0,0,.36-0.63,0.59,0.59,0,0,0-.65,0A0.4,0.4,0,1,0,256,124.34Z" transform="translate(0.86)"/><path class="cls-10" d="M209.89,133.43a0.5,0.5,0,1,0-.82.45,0.42,0.42,0,1,0,0,.72,0.67,0.67,0,0,0-.34.69,0.68,0.68,0,0,0,.78-0.14,0.59,0.59,0,0,0,.61.57,0.58,0.58,0,0,0,.27-0.71,0.55,0.55,0,0,0,.77,0,0.53,0.53,0,0,0-.27-0.59,0.61,0.61,0,0,0,.36-0.63,0.59,0.59,0,0,0-.65,0A0.4,0.4,0,1,0,209.89,133.43Z" transform="translate(0.86)"/><path class="cls-10" d="M222.59,130.72a0.5,0.5,0,1,0-.82.45,0.42,0.42,0,1,0,0,.72,0.67,0.67,0,0,0-.34.69,0.68,0.68,0,0,0,.78-0.14,0.59,0.59,0,0,0,.61.57,0.58,0.58,0,0,0,.27-0.71,0.55,0.55,0,0,0,.77,0,0.53,0.53,0,0,0-.27-0.59,0.61,0.61,0,0,0,.36-0.63,0.59,0.59,0,0,0-.65,0A0.4,0.4,0,1,0,222.59,130.72Z" transform="translate(0.86)"/><path class="cls-10" d="M167.05,130.72a0.5,0.5,0,1,0-.82.45,0.42,0.42,0,1,0,0,.72,0.67,0.67,0,0,0-.34.69,0.68,0.68,0,0,0,.78-0.14,0.59,0.59,0,0,0,.61.57,0.58,0.58,0,0,0,.27-0.71,0.55,0.55,0,0,0,.77,0,0.53,0.53,0,0,0-.27-0.59,0.61,0.61,0,0,0,.36-0.63,0.59,0.59,0,0,0-.65,0A0.4,0.4,0,1,0,167.05,130.72Z" transform="translate(0.86)"/><path class="cls-10" d="M117.62,128.75a0.5,0.5,0,1,0-.82.45,0.42,0.42,0,1,0,0,.72,0.67,0.67,0,0,0-.34.69,0.68,0.68,0,0,0,.78-0.14,0.59,0.59,0,0,0,.61.57,0.58,0.58,0,0,0,.27-0.71,0.55,0.55,0,0,0,.77,0,0.53,0.53,0,0,0-.27-0.59,0.61,0.61,0,0,0,.36-0.63,0.59,0.59,0,0,0-.65,0A0.4,0.4,0,1,0,117.62,128.75Z" transform="translate(0.86)"/><path class="cls-10" d="M77.45,121.2a0.5,0.5,0,1,0-.82.45,0.42,0.42,0,1,0,0,.72,0.67,0.67,0,0,0-.34.69,0.68,0.68,0,0,0,.78-0.14,0.59,0.59,0,0,0,.61.57,0.58,0.58,0,0,0,.27-0.71,0.55,0.55,0,0,0,.77,0,0.53,0.53,0,0,0-.27-0.59,0.61,0.61,0,0,0,.36-0.63,0.59,0.59,0,0,0-.65,0A0.4,0.4,0,1,0,77.45,121.2Z" transform="translate(0.86)"/><path class="cls-10" d="M28.56,128.42a0.5,0.5,0,1,0-.82.45,0.42,0.42,0,1,0,0,.72,0.67,0.67,0,0,0-.34.69,0.68,0.68,0,0,0,.78-0.14,0.59,0.59,0,0,0,.61.57,0.58,0.58,0,0,0,.27-0.71,0.55,0.55,0,0,0,.77,0,0.53,0.53,0,0,0-.27-0.59,0.61,0.61,0,0,0,.36-0.63,0.59,0.59,0,0,0-.65,0A0.4,0.4,0,1,0,28.56,128.42Z" transform="translate(0.86)"/><path class="cls-10" d="M5,126.61a0.58,0.58,0,0,0-.75-0.36,0.58,0.58,0,0,0-.07.81,0.42,0.42,0,1,0,0,.72,0.67,0.67,0,0,0-.34.69,0.68,0.68,0,0,0,.78-0.14,0.59,0.59,0,0,0,.61.57,0.58,0.58,0,0,0,.27-0.71,0.55,0.55,0,0,0,.77,0A0.53,0.53,0,0,0,6,127.56a0.61,0.61,0,0,0,.36-0.63,0.59,0.59,0,0,0-.65,0A0.4,0.4,0,1,0,5,126.61Z" transform="translate(0.86)"/><path class="cls-9" d="M460.74,127.06a0.5,0.5,0,1,0-.82.45,0.42,0.42,0,1,0,0,.72,0.67,0.67,0,0,0-.34.69,0.68,0.68,0,0,0,.78-0.14,0.59,0.59,0,0,0,.61.57,0.58,0.58,0,0,0,.27-0.71,0.55,0.55,0,0,0,.77,0,0.53,0.53,0,0,0-.27-0.59,0.61,0.61,0,0,0,.36-0.63,0.59,0.59,0,0,0-.65,0A0.4,0.4,0,1,0,460.74,127.06Z" transform="translate(0.86)"/><path class="cls-9" d="M416.77,127.87a0.5,0.5,0,1,0-.82.45,0.42,0.42,0,1,0,0,.72,0.67,0.67,0,0,0-.34.69,0.68,0.68,0,0,0,.78-0.14,0.59,0.59,0,0,0,.61.57,0.58,0.58,0,0,0,.27-0.71,0.55,0.55,0,0,0,.77,0,0.53,0.53,0,0,0-.27-0.59,0.61,0.61,0,0,0,.36-0.63,0.59,0.59,0,0,0-.65,0A0.4,0.4,0,1,0,416.77,127.87Z" transform="translate(0.86)"/><path class="cls-9" d="M391.49,133.31a0.5,0.5,0,1,0-.82.45,0.42,0.42,0,1,0,0,.72,0.67,0.67,0,0,0-.34.69,0.68,0.68,0,0,0,.78-0.14,0.59,0.59,0,0,0,.61.57,0.58,0.58,0,0,0,.27-0.71,0.55,0.55,0,0,0,.77,0,0.53,0.53,0,0,0-.27-0.59,0.61,0.61,0,0,0,.36-0.63,0.59,0.59,0,0,0-.65,0A0.4,0.4,0,1,0,391.49,133.31Z" transform="translate(0.86)"/><path class="cls-9" d="M360.5,124.92a0.5,0.5,0,1,0-.82.45,0.42,0.42,0,1,0,0,.72,0.67,0.67,0,0,0-.34.69,0.68,0.68,0,0,0,.78-0.14,0.59,0.59,0,0,0,.61.57,0.58,0.58,0,0,0,.27-0.71,0.55,0.55,0,0,0,.77,0,0.53,0.53,0,0,0-.27-0.59,0.61,0.61,0,0,0,.36-0.63,0.59,0.59,0,0,0-.65,0A0.4,0.4,0,1,0,360.5,124.92Z" transform="translate(0.86)"/><path class="cls-9" d="M297.53,129a0.5,0.5,0,1,0-.82.45,0.42,0.42,0,1,0,0,.72,0.67,0.67,0,0,0-.34.69,0.68,0.68,0,0,0,.78-0.14,0.59,0.59,0,0,0,.61.57,0.58,0.58,0,0,0,.27-0.71,0.55,0.55,0,0,0,.77,0,0.53,0.53,0,0,0-.27-0.59,0.61,0.61,0,0,0,.36-0.63,0.59,0.59,0,0,0-.65,0A0.4,0.4,0,1,0,297.53,129Z" transform="translate(0.86)"/><path class="cls-9" d="M203.31,125.7a0.5,0.5,0,1,0-.82.45,0.42,0.42,0,1,0,0,.72,0.67,0.67,0,0,0-.34.69,0.68,0.68,0,0,0,.78-0.14,0.59,0.59,0,0,0,.61.57,0.58,0.58,0,0,0,.27-0.71,0.55,0.55,0,0,0,.77,0,0.53,0.53,0,0,0-.27-0.59,0.61,0.61,0,0,0,.36-0.63,0.59,0.59,0,0,0-.65,0A0.4,0.4,0,1,0,203.31,125.7Z" transform="translate(0.86)"/><path class="cls-9" d="M155,134.18a0.5,0.5,0,1,0-.82.45,0.42,0.42,0,1,0,0,.72,0.67,0.67,0,0,0-.34.69,0.68,0.68,0,0,0,.78-0.14,0.59,0.59,0,0,0,.61.57,0.58,0.58,0,0,0,.27-0.71,0.55,0.55,0,0,0,.77,0,0.53,0.53,0,0,0-.27-0.59,0.61,0.61,0,0,0,.36-0.63,0.59,0.59,0,0,0-.65,0A0.4,0.4,0,1,0,155,134.18Z" transform="translate(0.86)"/><path class="cls-9" d="M124.47,131.47a0.5,0.5,0,1,0-.82.45,0.42,0.42,0,1,0,0,.72,0.67,0.67,0,0,0-.34.69,0.68,0.68,0,0,0,.78-0.14,0.59,0.59,0,0,0,.61.57,0.58,0.58,0,0,0,.27-0.71,0.55,0.55,0,0,0,.77,0,0.53,0.53,0,0,0-.27-0.59,0.61,0.61,0,0,0,.36-0.63,0.59,0.59,0,0,0-.65,0A0.4,0.4,0,1,0,124.47,131.47Z" transform="translate(0.86)"/><path class="cls-9" d="M32.52,134a0.5,0.5,0,1,0-.82.45,0.42,0.42,0,1,0,0,.72,0.67,0.67,0,0,0-.34.69,0.68,0.68,0,0,0,.78-0.14,0.59,0.59,0,0,0,.61.57,0.58,0.58,0,0,0,.27-0.71,0.55,0.55,0,0,0,.77,0,0.53,0.53,0,0,0-.27-0.59,0.61,0.61,0,0,0,.36-0.63,0.59,0.59,0,0,0-.65,0A0.4,0.4,0,1,0,32.52,134Z" transform="translate(0.86)"/><path class="cls-8" d="M438.4,123.07a0.5,0.5,0,1,0-.82.45,0.42,0.42,0,1,0,0,.72,0.67,0.67,0,0,0-.34.69,0.68,0.68,0,0,0,.78-0.14,0.59,0.59,0,0,0,.61.57,0.58,0.58,0,0,0,.27-0.71,0.55,0.55,0,0,0,.77,0,0.53,0.53,0,0,0-.27-0.59,0.61,0.61,0,0,0,.36-0.63,0.59,0.59,0,0,0-.65,0A0.4,0.4,0,1,0,438.4,123.07Z" transform="translate(0.86)"/><path class="cls-8" d="M422.31,132.85a0.5,0.5,0,1,0-.82.45,0.42,0.42,0,1,0,0,.72,0.67,0.67,0,0,0-.34.69,0.68,0.68,0,0,0,.78-0.14,0.59,0.59,0,0,0,.61.57,0.58,0.58,0,0,0,.27-0.71,0.55,0.55,0,0,0,.77,0,0.53,0.53,0,0,0-.27-0.59,0.61,0.61,0,0,0,.36-0.63,0.59,0.59,0,0,0-.65,0A0.4,0.4,0,1,0,422.31,132.85Z" transform="translate(0.86)"/><path class="cls-8" d="M395.32,122.21a0.5,0.5,0,1,0-.82.45,0.42,0.42,0,1,0,0,.72,0.67,0.67,0,0,0-.34.69,0.68,0.68,0,0,0,.78-0.14,0.59,0.59,0,0,0,.61.57,0.58,0.58,0,0,0,.27-0.71,0.55,0.55,0,0,0,.77,0,0.53,0.53,0,0,0-.27-0.59,0.61,0.61,0,0,0,.36-0.63,0.59,0.59,0,0,0-.65,0A0.4,0.4,0,1,0,395.32,122.21Z" transform="translate(0.86)"/><path class="cls-8" d="M381.14,125.7a0.5,0.5,0,1,0-.82.45,0.42,0.42,0,1,0,0,.72,0.67,0.67,0,0,0-.34.69,0.68,0.68,0,0,0,.78-0.14,0.59,0.59,0,0,0,.61.57,0.58,0.58,0,0,0,.27-0.71,0.55,0.55,0,0,0,.77,0,0.53,0.53,0,0,0-.27-0.59,0.61,0.61,0,0,0,.36-0.63,0.59,0.59,0,0,0-.65,0A0.4,0.4,0,1,0,381.14,125.7Z" transform="translate(0.86)"/><path class="cls-8" d="M345.56,132.3a0.5,0.5,0,1,0-.82.45,0.42,0.42,0,1,0,0,.72,0.67,0.67,0,0,0-.34.69,0.68,0.68,0,0,0,.78-0.14,0.59,0.59,0,0,0,.61.57,0.58,0.58,0,0,0,.27-0.71,0.55,0.55,0,0,0,.77,0,0.53,0.53,0,0,0-.27-0.59,0.61,0.61,0,0,0,.36-0.63,0.59,0.59,0,0,0-.65,0A0.4,0.4,0,1,0,345.56,132.3Z" transform="translate(0.86)"/><path class="cls-8" d="M305.54,123.56a0.5,0.5,0,1,0-.82.45,0.42,0.42,0,1,0,0,.72,0.67,0.67,0,0,0-.34.69,0.68,0.68,0,0,0,.78-0.14,0.59,0.59,0,0,0,.61.57,0.58,0.58,0,0,0,.27-0.71,0.55,0.55,0,0,0,.77,0,0.53,0.53,0,0,0-.27-0.59,0.61,0.61,0,0,0,.36-0.63,0.59,0.59,0,0,0-.65,0A0.4,0.4,0,1,0,305.54,123.56Z" transform="translate(0.86)"/><path class="cls-8" d="M276.69,130.11a0.5,0.5,0,1,0-.82.45,0.42,0.42,0,1,0,0,.72,0.67,0.67,0,0,0-.34.69,0.68,0.68,0,0,0,.78-0.14,0.59,0.59,0,0,0,.61.57,0.58,0.58,0,0,0,.27-0.71,0.55,0.55,0,0,0,.77,0,0.53,0.53,0,0,0-.27-0.59,0.61,0.61,0,0,0,.36-0.63,0.59,0.59,0,0,0-.65,0A0.4,0.4,0,1,0,276.69,130.11Z" transform="translate(0.86)"/><path class="cls-8" d="M233.77,126.28a0.5,0.5,0,1,0-.82.45,0.42,0.42,0,1,0,0,.72,0.67,0.67,0,0,0-.34.69,0.68,0.68,0,0,0,.78-0.14,0.59,0.59,0,0,0,.61.57,0.58,0.58,0,0,0,.27-0.71,0.55,0.55,0,0,0,.77,0,0.53,0.53,0,0,0-.27-0.59,0.61,0.61,0,0,0,.36-0.63,0.59,0.59,0,0,0-.65,0A0.4,0.4,0,1,0,233.77,126.28Z" transform="translate(0.86)"/><path class="cls-8" d="M194.47,128.76a0.5,0.5,0,1,0-.82.45,0.42,0.42,0,1,0,0,.72,0.67,0.67,0,0,0-.34.69,0.68,0.68,0,0,0,.78-0.14,0.59,0.59,0,0,0,.61.57,0.58,0.58,0,0,0,.27-0.71,0.55,0.55,0,0,0,.77,0,0.53,0.53,0,0,0-.27-0.59,0.61,0.61,0,0,0,.36-0.63,0.59,0.59,0,0,0-.65,0A0.4,0.4,0,1,0,194.47,128.76Z" transform="translate(0.86)"/><path class="cls-8" d="M164.47,125.7a0.5,0.5,0,1,0-.82.45,0.42,0.42,0,1,0,0,.72,0.67,0.67,0,0,0-.34.69,0.68,0.68,0,0,0,.78-0.14,0.59,0.59,0,0,0,.61.57,0.58,0.58,0,0,0,.27-0.71,0.55,0.55,0,0,0,.77,0,0.53,0.53,0,0,0-.27-0.59,0.61,0.61,0,0,0,.36-0.63,0.59,0.59,0,0,0-.65,0A0.4,0.4,0,1,0,164.47,125.7Z" transform="translate(0.86)"/><path class="cls-8" d="M134.69,127.06a0.5,0.5,0,1,0-.82.45,0.42,0.42,0,1,0,0,.72,0.67,0.67,0,0,0-.34.69,0.68,0.68,0,0,0,.78-0.14,0.59,0.59,0,0,0,.61.57,0.58,0.58,0,0,0,.27-0.71,0.55,0.55,0,0,0,.77,0,0.53,0.53,0,0,0-.27-0.59,0.61,0.61,0,0,0,.36-0.63,0.59,0.59,0,0,0-.65,0A0.4,0.4,0,1,0,134.69,127.06Z" transform="translate(0.86)"/><path class="cls-8" d="M119,123a0.5,0.5,0,1,0-.82.45,0.42,0.42,0,1,0,0,.72,0.67,0.67,0,0,0-.34.69,0.68,0.68,0,0,0,.78-0.14,0.59,0.59,0,0,0,.61.57,0.58,0.58,0,0,0,.27-0.71,0.55,0.55,0,0,0,.77,0,0.53,0.53,0,0,0-.27-0.59,0.61,0.61,0,0,0,.36-0.63,0.59,0.59,0,0,0-.65,0A0.4,0.4,0,1,0,119,123Z" transform="translate(0.86)"/><path class="cls-8" d="M89.48,129.16a0.5,0.5,0,1,0-.82.45,0.42,0.42,0,1,0,0,.72,0.67,0.67,0,0,0-.34.69,0.68,0.68,0,0,0,.78-0.14,0.59,0.59,0,0,0,.61.57,0.58,0.58,0,0,0,.27-0.71,0.55,0.55,0,0,0,.77,0,0.53,0.53,0,0,0-.27-0.59,0.61,0.61,0,0,0,.36-0.63,0.59,0.59,0,0,0-.65,0A0.4,0.4,0,1,0,89.48,129.16Z" transform="translate(0.86)"/><path class="cls-8" d="M48.63,125.7a0.5,0.5,0,1,0-.82.45,0.42,0.42,0,1,0,0,.72,0.67,0.67,0,0,0-.34.69,0.68,0.68,0,0,0,.78-0.14,0.59,0.59,0,0,0,.61.57,0.58,0.58,0,0,0,.27-0.71,0.55,0.55,0,0,0,.77,0,0.53,0.53,0,0,0-.27-0.59A0.61,0.61,0,0,0,50,126a0.59,0.59,0,0,0-.65,0A0.4,0.4,0,1,0,48.63,125.7Z" transform="translate(0.86)"/><path class="cls-8" d="M43.92,127.06a0.5,0.5,0,1,0-.82.45,0.42,0.42,0,1,0,0,.72,0.67,0.67,0,0,0-.34.69,0.68,0.68,0,0,0,.78-0.14,0.59,0.59,0,0,0,.61.57,0.58,0.58,0,0,0,.27-0.71,0.55,0.55,0,0,0,.77,0,0.53,0.53,0,0,0-.27-0.59,0.61,0.61,0,0,0,.36-0.63,0.59,0.59,0,0,0-.65,0A0.4,0.4,0,1,0,43.92,127.06Z" transform="translate(0.86)"/><path class="cls-8" d="M11,134.45a0.58,0.58,0,0,0-.75-0.36,0.58,0.58,0,0,0-.07.81,0.42,0.42,0,1,0,0,.72,0.67,0.67,0,0,0-.34.69,0.68,0.68,0,0,0,.78-0.14,0.59,0.59,0,0,0,.61.57,0.58,0.58,0,0,0,.27-0.71,0.55,0.55,0,0,0,.77,0,0.53,0.53,0,0,0-.27-0.59,0.61,0.61,0,0,0,.36-0.63,0.59,0.59,0,0,0-.65,0A0.4,0.4,0,1,0,11,134.45Z" transform="translate(0.86)"/><path id="Buisson-2" data-name="Buisson" class="cls-7" d="M1080.41,127.62a19.54,19.54,0,0,0-13.82-6.69,19.74,19.74,0,0,0-15.09,6.69,6.16,6.16,0,0,0-12.27,0c-1.91-4.64-6-6.35-8.07-5.3-1.48.75-2.19,3-2.11,5.3a26.43,26.43,0,0,0-15.78-8.79c-13.38-2-22.69,7.9-23.51,8.8a15.8,15.8,0,0,0-9.47-4.25,16.18,16.18,0,0,0-12,4.25,16.67,16.67,0,0,0-11.55-6.35c-8.45-.66-13.69,5.84-14.09,6.35-0.35-.4-5.51-6.12-12.93-5a14.12,14.12,0,0,0-8.5,5c-3.21-2-7.14-4-8.34-2.85-0.39.38-.57,1.17,0,2.85a10.15,10.15,0,0,0-7.34-4.6,9.83,9.83,0,0,0-9.12,4.6,7.45,7.45,0,0,0-6.32-6.35,7.53,7.53,0,0,0-8.07,6.35,29.72,29.72,0,0,0-13.33-5,30.63,30.63,0,0,0-20,5,8,8,0,0,0-14.46,0,45.28,45.28,0,0,0-39.9,0c-2.75-8.33-10.84-12.26-16.65-10.17-3.9,1.4-6.66,5.46-7.42,10.17-0.3-.39-4.53-5.68-11.33-5.11a13.27,13.27,0,0,0-9.17,5.11c-0.56-4.35-4.49-6.71-7.25-5.89-2,.61-3.64,3-3.64,5.89a38.81,38.81,0,0,0-19.8-7.45,39.42,39.42,0,0,0-25.4,7,15.74,15.74,0,0,0-26.18.39,8.57,8.57,0,0,0-13.29,2.73c-1.14-1.16-10.15-10-23.45-8.57a28.79,28.79,0,0,0-18,9.35,15.84,15.84,0,0,0-8.6-7.4c-6.37-2.08-14,.67-18.76,7-2.88-5.19-9.39-6.23-12.89-3.51s-4.09,8.9-.09,13h507.92V127.62Z" transform="translate(0.86)"/><path class="cls-8" d="M601.83,128.91a0.5,0.5,0,1,1,.82.45,0.42,0.42,0,1,1,0,.72,0.67,0.67,0,0,1,.34.69,0.68,0.68,0,0,1-.78-0.14,0.59,0.59,0,0,1-.61.57,0.58,0.58,0,0,1-.27-0.71,0.55,0.55,0,0,1-.77,0,0.53,0.53,0,0,1,.27-0.59,0.61,0.61,0,0,1-.36-0.63,0.59,0.59,0,0,1,.65,0A0.4,0.4,0,1,1,601.83,128.91Z" transform="translate(0.86)"/><path class="cls-9" d="M592.73,133.46a0.5,0.5,0,1,1,.82.45,0.42,0.42,0,1,1,0,.72,0.67,0.67,0,0,1,.34.69,0.68,0.68,0,0,1-.78-0.14,0.59,0.59,0,0,1-.61.57,0.58,0.58,0,0,1-.27-0.71,0.55,0.55,0,0,1-.77,0,0.53,0.53,0,0,1,.27-0.59,0.61,0.61,0,0,1-.36-0.63,0.59,0.59,0,0,1,.65,0A0.4,0.4,0,1,1,592.73,133.46Z" transform="translate(0.86)"/><path class="cls-10" d="M576.74,127.28a0.5,0.5,0,1,1,.82.45,0.42,0.42,0,1,1,0,.72,0.67,0.67,0,0,1,.34.69,0.68,0.68,0,0,1-.78-0.14,0.59,0.59,0,0,1-.61.57,0.58,0.58,0,0,1-.27-0.71,0.55,0.55,0,0,1-.77,0,0.53,0.53,0,0,1,.27-0.59,0.61,0.61,0,0,1-.36-0.63,0.59,0.59,0,0,1,.65,0A0.4,0.4,0,1,1,576.74,127.28Z" transform="translate(0.86)"/><path class="cls-10" d="M633.55,132.1a0.5,0.5,0,1,1,.82.45,0.42,0.42,0,1,1,0,.72,0.67,0.67,0,0,1,.34.69,0.68,0.68,0,0,1-.78-0.14,0.59,0.59,0,0,1-.61.57,0.58,0.58,0,0,1-.27-0.71,0.55,0.55,0,0,1-.77,0,0.53,0.53,0,0,1,.27-0.59,0.61,0.61,0,0,1-.36-0.63,0.59,0.59,0,0,1,.65,0A0.4,0.4,0,1,1,633.55,132.1Z" transform="translate(0.86)"/><path class="cls-10" d="M668.35,134.43a0.5,0.5,0,1,1,.82.45,0.42,0.42,0,1,1,0,.72,0.67,0.67,0,0,1,.34.69,0.68,0.68,0,0,1-.78-0.14,0.59,0.59,0,0,1-.61.57,0.58,0.58,0,0,1-.27-0.71,0.55,0.55,0,0,1-.77,0,0.53,0.53,0,0,1,.27-0.59,0.61,0.61,0,0,1-.36-0.63,0.59,0.59,0,0,1,.65,0A0.4,0.4,0,1,1,668.35,134.43Z" transform="translate(0.86)"/><path class="cls-10" d="M731.43,124.56a0.5,0.5,0,1,1,.82.45,0.42,0.42,0,1,1,0,.72,0.67,0.67,0,0,1,.34.69,0.68,0.68,0,0,1-.78-0.14,0.59,0.59,0,0,1-.61.57,0.58,0.58,0,0,1-.27-0.71,0.55,0.55,0,0,1-.77,0,0.53,0.53,0,0,1,.27-0.59,0.61,0.61,0,0,1-.36-0.63,0.59,0.59,0,0,1,.65,0A0.4,0.4,0,1,1,731.43,124.56Z" transform="translate(0.86)"/><path class="cls-10" d="M754,129a0.5,0.5,0,1,1,.82.45,0.42,0.42,0,1,1,0,.72,0.67,0.67,0,0,1,.34.69,0.68,0.68,0,0,1-.78-0.14,0.59,0.59,0,0,1-.61.57,0.58,0.58,0,0,1-.27-0.71,0.55,0.55,0,0,1-.77,0,0.53,0.53,0,0,1,.27-0.59,0.61,0.61,0,0,1-.36-0.63,0.59,0.59,0,0,1,.65,0A0.4,0.4,0,1,1,754,129Z" transform="translate(0.86)"/><path class="cls-10" d="M823.77,124.56a0.5,0.5,0,1,1,.82.45,0.42,0.42,0,1,1,0,.72,0.67,0.67,0,0,1,.34.69,0.68,0.68,0,0,1-.78-0.14,0.59,0.59,0,0,1-.61.57,0.58,0.58,0,0,1-.27-0.71,0.55,0.55,0,0,1-.77,0,0.53,0.53,0,0,1,.27-0.59,0.61,0.61,0,0,1-.36-0.63,0.59,0.59,0,0,1,.65,0A0.4,0.4,0,1,1,823.77,124.56Z" transform="translate(0.86)"/><path class="cls-10" d="M869.91,133.65a0.5,0.5,0,1,1,.82.45,0.42,0.42,0,1,1,0,.72,0.67,0.67,0,0,1,.34.69,0.68,0.68,0,0,1-.78-0.14,0.59,0.59,0,0,1-.61.57,0.58,0.58,0,0,1-.27-0.71,0.55,0.55,0,0,1-.77,0,0.53,0.53,0,0,1,.27-0.59,0.61,0.61,0,0,1-.36-0.63,0.59,0.59,0,0,1,.65,0A0.4,0.4,0,1,1,869.91,133.65Z" transform="translate(0.86)"/><path class="cls-10" d="M857.22,130.94a0.5,0.5,0,1,1,.82.45,0.42,0.42,0,1,1,0,.72,0.67,0.67,0,0,1,.34.69,0.68,0.68,0,0,1-.78-0.14,0.59,0.59,0,0,1-.61.57,0.58,0.58,0,0,1-.27-0.71,0.55,0.55,0,0,1-.77,0,0.53,0.53,0,0,1,.27-0.59,0.61,0.61,0,0,1-.36-0.63,0.59,0.59,0,0,1,.65,0A0.4,0.4,0,1,1,857.22,130.94Z" transform="translate(0.86)"/><path class="cls-10" d="M912.75,130.94a0.5,0.5,0,1,1,.82.45,0.42,0.42,0,1,1,0,.72,0.67,0.67,0,0,1,.34.69,0.68,0.68,0,0,1-.78-0.14,0.59,0.59,0,0,1-.61.57,0.58,0.58,0,0,1-.27-0.71,0.55,0.55,0,0,1-.77,0,0.53,0.53,0,0,1,.27-0.59,0.61,0.61,0,0,1-.36-0.63,0.59,0.59,0,0,1,.65,0A0.4,0.4,0,1,1,912.75,130.94Z" transform="translate(0.86)"/><path class="cls-10" d="M962.19,129a0.5,0.5,0,1,1,.82.45,0.42,0.42,0,1,1,0,.72,0.67,0.67,0,0,1,.34.69,0.68,0.68,0,0,1-.78-0.14,0.59,0.59,0,0,1-.61.57,0.58,0.58,0,0,1-.27-0.71,0.55,0.55,0,0,1-.77,0,0.53,0.53,0,0,1,.27-0.59,0.61,0.61,0,0,1-.36-0.63,0.59,0.59,0,0,1,.65,0A0.4,0.4,0,1,1,962.19,129Z" transform="translate(0.86)"/><path class="cls-10" d="M1002.36,121.42a0.5,0.5,0,1,1,.82.45,0.42,0.42,0,1,1,0,.72,0.67,0.67,0,0,1,.34.69,0.68,0.68,0,0,1-.78-0.14,0.59,0.59,0,0,1-.61.57,0.58,0.58,0,0,1-.27-0.71,0.55,0.55,0,0,1-.77,0,0.53,0.53,0,0,1,.27-0.59,0.61,0.61,0,0,1-.36-0.63,0.59,0.59,0,0,1,.65,0A0.4,0.4,0,1,1,1002.36,121.42Z" transform="translate(0.86)"/><path class="cls-10" d="M1051.24,128.64a0.5,0.5,0,1,1,.82.45,0.42,0.42,0,1,1,0,.72,0.67,0.67,0,0,1,.34.69,0.68,0.68,0,0,1-.78-0.14,0.59,0.59,0,0,1-.61.57,0.58,0.58,0,0,1-.27-0.71,0.55,0.55,0,0,1-.77,0,0.53,0.53,0,0,1,.27-0.59,0.61,0.61,0,0,1-.36-0.63,0.59,0.59,0,0,1,.65,0A0.4,0.4,0,1,1,1051.24,128.64Z" transform="translate(0.86)"/><path class="cls-10" d="M1074.78,126.83a0.5,0.5,0,1,1,.82.45,0.42,0.42,0,1,1,0,.72,0.67,0.67,0,0,1,.34.69,0.68,0.68,0,0,1-.78-0.14,0.59,0.59,0,0,1-.61.57,0.58,0.58,0,0,1-.27-0.71,0.55,0.55,0,0,1-.77,0,0.53,0.53,0,0,1,.27-0.59,0.61,0.61,0,0,1-.36-0.63,0.59,0.59,0,0,1,.65,0A0.4,0.4,0,1,1,1074.78,126.83Z" transform="translate(0.86)"/><path class="cls-9" d="M619.06,127.28a0.5,0.5,0,1,1,.82.45,0.42,0.42,0,1,1,0,.72,0.67,0.67,0,0,1,.34.69,0.68,0.68,0,0,1-.78-0.14,0.59,0.59,0,0,1-.61.57,0.58,0.58,0,0,1-.27-0.71,0.55,0.55,0,0,1-.77,0,0.53,0.53,0,0,1,.27-0.59,0.61,0.61,0,0,1-.36-0.63,0.59,0.59,0,0,1,.65,0A0.4,0.4,0,1,1,619.06,127.28Z" transform="translate(0.86)"/><path class="cls-9" d="M663,128.09a0.5,0.5,0,1,1,.82.45,0.42,0.42,0,1,1,0,.72,0.67,0.67,0,0,1,.34.69,0.68,0.68,0,0,1-.78-0.14,0.59,0.59,0,0,1-.61.57,0.58,0.58,0,0,1-.27-0.71,0.55,0.55,0,0,1-.77,0,0.53,0.53,0,0,1,.27-0.59,0.61,0.61,0,0,1-.36-0.63,0.59,0.59,0,0,1,.65,0A0.4,0.4,0,1,1,663,128.09Z" transform="translate(0.86)"/><path class="cls-9" d="M688.31,133.53a0.5,0.5,0,1,1,.82.45,0.42,0.42,0,1,1,0,.72,0.67,0.67,0,0,1,.34.69,0.68,0.68,0,0,1-.78-0.14,0.59,0.59,0,0,1-.61.57,0.58,0.58,0,0,1-.27-0.71,0.55,0.55,0,0,1-.77,0,0.53,0.53,0,0,1,.27-0.59,0.61,0.61,0,0,1-.36-0.63,0.59,0.59,0,0,1,.65,0A0.4,0.4,0,1,1,688.31,133.53Z" transform="translate(0.86)"/><path class="cls-9" d="M719.3,125.14a0.5,0.5,0,1,1,.82.45,0.42,0.42,0,1,1,0,.72,0.67,0.67,0,0,1,.34.69,0.68,0.68,0,0,1-.78-0.14,0.59,0.59,0,0,1-.61.57,0.58,0.58,0,0,1-.27-0.71,0.55,0.55,0,0,1-.77,0,0.53,0.53,0,0,1,.27-0.59,0.61,0.61,0,0,1-.36-0.63,0.59,0.59,0,0,1,.65,0A0.4,0.4,0,1,1,719.3,125.14Z" transform="translate(0.86)"/><path class="cls-9" d="M782.28,129.21a0.5,0.5,0,1,1,.82.45,0.42,0.42,0,1,1,0,.72,0.67,0.67,0,0,1,.34.69,0.68,0.68,0,0,1-.78-0.14,0.59,0.59,0,0,1-.61.57,0.58,0.58,0,0,1-.27-0.71,0.55,0.55,0,0,1-.77,0,0.53,0.53,0,0,1,.27-0.59,0.61,0.61,0,0,1-.36-0.63,0.59,0.59,0,0,1,.65,0A0.4,0.4,0,1,1,782.28,129.21Z" transform="translate(0.86)"/><path class="cls-9" d="M876.5,125.92a0.5,0.5,0,1,1,.82.45,0.42,0.42,0,1,1,0,.72,0.67,0.67,0,0,1,.34.69,0.68,0.68,0,0,1-.78-0.14,0.59,0.59,0,0,1-.61.57,0.58,0.58,0,0,1-.27-0.71,0.55,0.55,0,0,1-.77,0,0.53,0.53,0,0,1,.27-0.59,0.61,0.61,0,0,1-.36-0.63,0.59,0.59,0,0,1,.65,0A0.4,0.4,0,1,1,876.5,125.92Z" transform="translate(0.86)"/><path class="cls-9" d="M924.82,134.4a0.5,0.5,0,1,1,.82.45,0.42,0.42,0,1,1,0,.72,0.67,0.67,0,0,1,.34.69,0.68,0.68,0,0,1-.78-0.14,0.59,0.59,0,0,1-.61.57,0.58,0.58,0,0,1-.27-0.71,0.55,0.55,0,0,1-.77,0,0.53,0.53,0,0,1,.27-0.59,0.61,0.61,0,0,1-.36-0.63,0.59,0.59,0,0,1,.65,0A0.4,0.4,0,1,1,924.82,134.4Z" transform="translate(0.86)"/><path class="cls-9" d="M955.33,131.69a0.5,0.5,0,1,1,.82.45,0.42,0.42,0,1,1,0,.72,0.67,0.67,0,0,1,.34.69,0.68,0.68,0,0,1-.78-0.14,0.59,0.59,0,0,1-.61.57,0.58,0.58,0,0,1-.27-0.71,0.55,0.55,0,0,1-.77,0,0.53,0.53,0,0,1,.27-0.59A0.61,0.61,0,0,1,954,132a0.59,0.59,0,0,1,.65,0A0.4,0.4,0,1,1,955.33,131.69Z" transform="translate(0.86)"/><path class="cls-9" d="M1047.28,134.27a0.5,0.5,0,1,1,.82.45,0.42,0.42,0,1,1,0,.72,0.67,0.67,0,0,1,.34.69,0.68,0.68,0,0,1-.78-0.14,0.59,0.59,0,0,1-.61.57,0.58,0.58,0,0,1-.27-0.71,0.55,0.55,0,0,1-.77,0,0.53,0.53,0,0,1,.27-0.59,0.61,0.61,0,0,1-.36-0.63,0.59,0.59,0,0,1,.65,0A0.4,0.4,0,1,1,1047.28,134.27Z" transform="translate(0.86)"/><path class="cls-8" d="M641.4,123.29a0.5,0.5,0,1,1,.82.45,0.42,0.42,0,1,1,0,.72,0.67,0.67,0,0,1,.34.69,0.68,0.68,0,0,1-.78-0.14,0.59,0.59,0,0,1-.61.57,0.58,0.58,0,0,1-.27-0.71,0.55,0.55,0,0,1-.77,0,0.53,0.53,0,0,1,.27-0.59,0.61,0.61,0,0,1-.36-0.63,0.59,0.59,0,0,1,.65,0A0.4,0.4,0,1,1,641.4,123.29Z" transform="translate(0.86)"/><path class="cls-8" d="M657.5,133.07a0.5,0.5,0,1,1,.82.45,0.42,0.42,0,1,1,0,.72,0.67,0.67,0,0,1,.34.69,0.68,0.68,0,0,1-.78-0.14,0.59,0.59,0,0,1-.61.57,0.58,0.58,0,0,1-.27-0.71,0.55,0.55,0,0,1-.77,0,0.53,0.53,0,0,1,.27-0.59,0.61,0.61,0,0,1-.36-0.63,0.59,0.59,0,0,1,.65,0A0.4,0.4,0,1,1,657.5,133.07Z" transform="translate(0.86)"/><path class="cls-8" d="M684.48,122.43a0.5,0.5,0,1,1,.82.45,0.42,0.42,0,1,1,0,.72,0.67,0.67,0,0,1,.34.69,0.68,0.68,0,0,1-.78-0.14,0.59,0.59,0,0,1-.61.57A0.58,0.58,0,0,1,684,124a0.55,0.55,0,0,1-.77,0,0.53,0.53,0,0,1,.27-0.59,0.61,0.61,0,0,1-.36-0.63,0.59,0.59,0,0,1,.65,0A0.4,0.4,0,1,1,684.48,122.43Z" transform="translate(0.86)"/><path class="cls-8" d="M698.66,125.92a0.5,0.5,0,1,1,.82.45,0.42,0.42,0,1,1,0,.72,0.67,0.67,0,0,1,.34.69,0.68,0.68,0,0,1-.78-0.14,0.59,0.59,0,0,1-.61.57,0.58,0.58,0,0,1-.27-0.71,0.55,0.55,0,0,1-.77,0,0.53,0.53,0,0,1,.27-0.59,0.61,0.61,0,0,1-.36-0.63,0.59,0.59,0,0,1,.65,0A0.4,0.4,0,1,1,698.66,125.92Z" transform="translate(0.86)"/><path class="cls-8" d="M734.25,132.53a0.5,0.5,0,1,1,.82.45,0.42,0.42,0,1,1,0,.72,0.67,0.67,0,0,1,.34.69,0.68,0.68,0,0,1-.78-0.14,0.59,0.59,0,0,1-.61.57,0.58,0.58,0,0,1-.27-0.71,0.55,0.55,0,0,1-.77,0,0.53,0.53,0,0,1,.27-0.59,0.61,0.61,0,0,1-.36-0.63,0.59,0.59,0,0,1,.65,0A0.4,0.4,0,1,1,734.25,132.53Z" transform="translate(0.86)"/><path class="cls-8" d="M774.26,123.78a0.5,0.5,0,1,1,.82.45,0.42,0.42,0,1,1,0,.72,0.67,0.67,0,0,1,.34.69,0.68,0.68,0,0,1-.78-0.14,0.59,0.59,0,0,1-.61.57,0.58,0.58,0,0,1-.27-0.71,0.55,0.55,0,0,1-.77,0,0.53,0.53,0,0,1,.27-0.59,0.61,0.61,0,0,1-.36-0.63,0.59,0.59,0,0,1,.65,0A0.4,0.4,0,1,1,774.26,123.78Z" transform="translate(0.86)"/><path class="cls-8" d="M803.11,130.34a0.5,0.5,0,1,1,.82.45,0.42,0.42,0,1,1,0,.72,0.67,0.67,0,0,1,.34.69,0.68,0.68,0,0,1-.78-0.14,0.59,0.59,0,0,1-.61.57,0.58,0.58,0,0,1-.27-0.71,0.55,0.55,0,0,1-.77,0,0.53,0.53,0,0,1,.27-0.59,0.61,0.61,0,0,1-.36-0.63,0.59,0.59,0,0,1,.65,0A0.4,0.4,0,1,1,803.11,130.34Z" transform="translate(0.86)"/><path class="cls-8" d="M846,126.5a0.5,0.5,0,1,1,.82.45,0.42,0.42,0,1,1,0,.72,0.67,0.67,0,0,1,.34.69,0.68,0.68,0,0,1-.78-0.14,0.59,0.59,0,0,1-.61.57,0.58,0.58,0,0,1-.27-0.71,0.55,0.55,0,0,1-.77,0,0.53,0.53,0,0,1,.27-0.59,0.61,0.61,0,0,1-.36-0.63,0.59,0.59,0,0,1,.65,0A0.4,0.4,0,1,1,846,126.5Z" transform="translate(0.86)"/><path class="cls-8" d="M885.33,129a0.5,0.5,0,1,1,.82.45,0.42,0.42,0,1,1,0,.72,0.67,0.67,0,0,1,.34.69,0.68,0.68,0,0,1-.78-0.14,0.59,0.59,0,0,1-.61.57,0.58,0.58,0,0,1-.27-0.71,0.55,0.55,0,0,1-.77,0,0.53,0.53,0,0,1,.27-0.59,0.61,0.61,0,0,1-.36-0.63,0.59,0.59,0,0,1,.65,0A0.4,0.4,0,1,1,885.33,129Z" transform="translate(0.86)"/><path class="cls-8" d="M915.34,125.92a0.5,0.5,0,1,1,.82.45,0.42,0.42,0,1,1,0,.72,0.67,0.67,0,0,1,.34.69,0.68,0.68,0,0,1-.78-0.14,0.59,0.59,0,0,1-.61.57,0.58,0.58,0,0,1-.27-0.71,0.55,0.55,0,0,1-.77,0,0.53,0.53,0,0,1,.27-0.59,0.61,0.61,0,0,1-.36-0.63,0.59,0.59,0,0,1,.65,0A0.4,0.4,0,1,1,915.34,125.92Z" transform="translate(0.86)"/><path class="cls-8" d="M945.12,127.28a0.5,0.5,0,1,1,.82.45,0.42,0.42,0,1,1,0,.72,0.67,0.67,0,0,1,.34.69,0.68,0.68,0,0,1-.78-0.14,0.59,0.59,0,0,1-.61.57,0.58,0.58,0,0,1-.27-0.71,0.55,0.55,0,0,1-.77,0,0.53,0.53,0,0,1,.27-0.59,0.61,0.61,0,0,1-.36-0.63,0.59,0.59,0,0,1,.65,0A0.4,0.4,0,1,1,945.12,127.28Z" transform="translate(0.86)"/><path class="cls-8" d="M960.78,123.21a0.5,0.5,0,1,1,.82.45,0.42,0.42,0,1,1,0,.72,0.67,0.67,0,0,1,.34.69,0.68,0.68,0,0,1-.78-0.14,0.59,0.59,0,0,1-.61.57,0.58,0.58,0,0,1-.27-0.71,0.55,0.55,0,0,1-.77,0,0.53,0.53,0,0,1,.27-0.59,0.61,0.61,0,0,1-.36-0.63,0.59,0.59,0,0,1,.65,0A0.4,0.4,0,1,1,960.78,123.21Z" transform="translate(0.86)"/><path class="cls-8" d="M990.33,129.39a0.5,0.5,0,1,1,.82.45,0.42,0.42,0,1,1,0,.72,0.67,0.67,0,0,1,.34.69,0.68,0.68,0,0,1-.78-0.14,0.59,0.59,0,0,1-.61.57,0.58,0.58,0,0,1-.27-0.71,0.55,0.55,0,0,1-.77,0,0.53,0.53,0,0,1,.27-0.59,0.61,0.61,0,0,1-.36-0.63,0.59,0.59,0,0,1,.65,0A0.4,0.4,0,1,1,990.33,129.39Z" transform="translate(0.86)"/><path class="cls-8" d="M1031.17,125.92a0.5,0.5,0,1,1,.82.45,0.42,0.42,0,1,1,0,.72,0.67,0.67,0,0,1,.34.69,0.68,0.68,0,0,1-.78-0.14,0.59,0.59,0,0,1-.61.57,0.58,0.58,0,0,1-.27-0.71,0.55,0.55,0,0,1-.77,0,0.53,0.53,0,0,1,.27-0.59,0.61,0.61,0,0,1-.36-0.63,0.59,0.59,0,0,1,.65,0A0.4,0.4,0,1,1,1031.17,125.92Z" transform="translate(0.86)"/><path class="cls-8" d="M1035.88,127.28a0.5,0.5,0,1,1,.82.45,0.42,0.42,0,1,1,0,.72,0.67,0.67,0,0,1,.34.69,0.68,0.68,0,0,1-.78-0.14,0.59,0.59,0,0,1-.61.57,0.58,0.58,0,0,1-.27-0.71,0.55,0.55,0,0,1-.77,0,0.53,0.53,0,0,1,.27-0.59,0.61,0.61,0,0,1-.36-0.63,0.59,0.59,0,0,1,.65,0A0.4,0.4,0,1,1,1035.88,127.28Z" transform="translate(0.86)"/><path class="cls-8" d="M1068.77,134.67a0.5,0.5,0,1,1,.82.45,0.42,0.42,0,1,1,0,.72,0.67,0.67,0,0,1,.34.69,0.68,0.68,0,0,1-.78-0.14,0.59,0.59,0,0,1-.61.57,0.58,0.58,0,0,1-.27-0.71,0.55,0.55,0,0,1-.77,0,0.53,0.53,0,0,1,.27-0.59,0.61,0.61,0,0,1-.36-0.63,0.59,0.59,0,0,1,.65,0A0.4,0.4,0,1,1,1068.77,134.67Z" transform="translate(0.86)"/><path class="cls-11" d="M182.9,27.85" transform="translate(0.86)"/><rect class="cls-12" x="186.76" y="26.85" width="41.07" height="70.87"/><path class="cls-13" d="M189.11,86l30.88-.8-0.07,4.86-30.86.67Z" transform="translate(0.86)"/><path class="cls-13" d="M191,33.48l30.88-.6-0.1,4.86L191,38.21Z" transform="translate(0.86)"/><path class="cls-13" d="M189.52,86.37l27.64-52.16,4.2,2.45L193.62,88.74Z" transform="translate(0.86)"/><line class="cls-14" x1="186.14" y1="34.21" x2="186.14" y2="38.21"/><line class="cls-14" x1="186.14" y1="86.73" x2="186.14" y2="90.74"/><rect class="cls-12" x="58.02" y="27.48" width="41.07" height="70.87"/><path class="cls-13" d="M95,86.64l-30.88-.8,0.07,4.86,30.86,0.67Z" transform="translate(0.86)"/><path class="cls-13" d="M93.09,34.11l-30.88-.6,0.1,4.86,30.87,0.46Z" transform="translate(0.86)"/><path class="cls-13" d="M94.61,87L67,34.84l-4.2,2.45L90.52,89.37Z" transform="translate(0.86)"/><line class="cls-14" x1="99.72" y1="34.84" x2="99.72" y2="38.84"/><line class="cls-14" x1="99.72" y1="87.37" x2="99.72" y2="91.37"/><polygon class="cls-6" points="430.99 95.95 349.8 95.95 349.8 27.72 390.39 27.72 430.99 27.72 430.99 95.95"/><rect class="cls-12" x="433.99" y="26.72" width="41.07" height="70.87"/><path class="cls-13" d="M436.34,85.88l30.88-.8-0.07,4.86-30.86.67Z" transform="translate(0.86)"/><path class="cls-13" d="M438.27,33.35l30.88-.6L469,37.62l-30.87.46Z" transform="translate(0.86)"/><path class="cls-13" d="M436.74,86.24l27.64-52.16,4.2,2.45L440.84,88.61Z" transform="translate(0.86)"/><line class="cls-14" x1="433.36" y1="34.08" x2="433.36" y2="38.08"/><line class="cls-14" x1="433.36" y1="86.61" x2="433.36" y2="90.61"/><rect class="cls-12" x="305.25" y="27.35" width="41.07" height="70.87"/><path class="cls-13" d="M342.25,86.52l-30.88-.8,0.07,4.86,30.86,0.67Z" transform="translate(0.86)"/><path class="cls-13" d="M340.32,34l-30.88-.6,0.1,4.86,30.87,0.46Z" transform="translate(0.86)"/><path class="cls-13" d="M341.84,86.87L314.19,34.71,310,37.16l27.75,52.08Z" transform="translate(0.86)"/><line class="cls-14" x1="346.94" y1="34.71" x2="346.94" y2="38.72"/><line class="cls-14" x1="346.94" y1="87.24" x2="346.94" y2="91.25"/><polygon class="cls-6" points="734.44 96.4 653.25 96.4 653.25 28.17 693.85 28.17 734.44 28.17 734.44 96.4"/><rect class="cls-12" x="737.44" y="27.17" width="41.07" height="70.87"/><path class="cls-13" d="M739.79,86.33l30.88-.8-0.07,4.86-30.86.67Z" transform="translate(0.86)"/><path class="cls-13" d="M741.72,33.8l30.88-.6-0.1,4.86-30.87.46Z" transform="translate(0.86)"/><path class="cls-13" d="M740.2,86.68l27.64-52.16L772,37,744.3,89.05Z" transform="translate(0.86)"/><line class="cls-14" x1="736.82" y1="34.52" x2="736.82" y2="38.53"/><line class="cls-14" x1="736.82" y1="87.05" x2="736.82" y2="91.06"/><rect class="cls-12" x="608.7" y="27.8" width="41.07" height="70.87"/><path class="cls-13" d="M645.7,87l-30.88-.8L614.9,91l30.86,0.67Z" transform="translate(0.86)"/><path class="cls-13" d="M643.77,34.43l-30.88-.6L613,38.7l30.87,0.46Z" transform="translate(0.86)"/><path class="cls-13" d="M645.29,87.32L617.65,35.15l-4.2,2.45L641.2,89.69Z" transform="translate(0.86)"/><line class="cls-14" x1="650.4" y1="35.15" x2="650.4" y2="39.16"/><line class="cls-14" x1="650.4" y1="87.68" x2="650.4" y2="91.69"/><polygon class="cls-6" points="979.82 96.72 898.63 96.72 898.63 28.48 939.23 28.48 979.82 28.48 979.82 96.72"/><rect class="cls-12" x="982.82" y="27.48" width="41.07" height="70.87"/><path class="cls-13" d="M985.17,86.64l30.88-.8L1016,90.71l-30.86.67Z" transform="translate(0.86)"/><path class="cls-13" d="M987.1,34.11l30.88-.6-0.1,4.86L987,38.84Z" transform="translate(0.86)"/><path class="cls-13" d="M985.58,87l27.64-52.16,4.2,2.45L989.67,89.37Z" transform="translate(0.86)"/><line class="cls-14" x1="982.2" y1="34.84" x2="982.2" y2="38.84"/><line class="cls-14" x1="982.2" y1="87.37" x2="982.2" y2="91.37"/><rect class="cls-12" x="854.08" y="28.11" width="41.07" height="70.87"/><path class="cls-13" d="M891.08,87.28l-30.88-.8,0.07,4.86L891.14,92Z" transform="translate(0.86)"/><path class="cls-13" d="M889.15,34.75l-30.88-.6,0.1,4.86,30.87,0.46Z" transform="translate(0.86)"/><path class="cls-13" d="M890.67,87.63L863,35.47l-4.2,2.45L886.57,90Z" transform="translate(0.86)"/><line class="cls-14" x1="895.77" y1="35.47" x2="895.77" y2="39.48"/><line class="cls-14" x1="895.77" y1="88" x2="895.77" y2="92.01"/><line class="cls-15" x1="142.86" y1="28" x2="142.86" y2="96"/><line class="cls-15" x1="183.86" y1="63" x2="102.86" y2="63"/><line class="cls-15" x1="390.86" y1="28" x2="390.86" y2="96"/><line class="cls-15" x1="430.86" y1="63" x2="349.86" y2="63"/><line class="cls-16" x1="693.86" y1="28" x2="693.86" y2="96"/><line class="cls-16" x1="652.86" y1="64" x2="734.86" y2="64"/><line class="cls-16" x1="898.86" y1="64" x2="979.86" y2="64"/><line class="cls-16" x1="938.86" y1="28" x2="938.86" y2="96"/><path class="cls-17" d="M468.38,288.64c-3-4.45-5.62-44.08-6.56-68a2.35,2.35,0,0,0-4.71.1c0,15.75-1.11,58.68-6.64,68a2.35,2.35,0,0,0,2,3.55h13.93A2.35,2.35,0,0,0,468.38,288.64Z" transform="translate(0.86)"/><path class="cls-18" d="M459.47,237c-18.26,0-32.56,8.06-32.56,18.34s14.3,18.34,32.56,18.34S492,265.62,492,255.33,477.73,237,459.47,237Z" transform="translate(0.86)"/><path class="cls-7" d="M459.34,218.36c-14.93,0-26.63,6.68-26.63,15.2s11.7,15.2,26.63,15.2S486,242.08,486,233.56,474.28,218.36,459.34,218.36Z" transform="translate(0.86)"/><path class="cls-19" d="M459.47,205.09c-11.94,0-21.3,5.44-21.3,12.38s9.36,12.38,21.3,12.38,21.3-5.44,21.3-12.38S471.42,205.09,459.47,205.09Z" transform="translate(0.86)"/><path class="cls-17" d="M632.69,288.7c-3-4.45-5.62-44.08-6.56-68a2.35,2.35,0,0,0-4.71.1c0,15.75-1.11,58.68-6.64,68a2.35,2.35,0,0,0,2,3.55h13.93A2.35,2.35,0,0,0,632.69,288.7Z" transform="translate(0.86)"/><path class="cls-18" d="M623.78,237.06c-18.26,0-32.56,8.06-32.56,18.34s14.3,18.34,32.56,18.34,32.56-8.06,32.56-18.34S642,237.06,623.78,237.06Z" transform="translate(0.86)"/><path class="cls-7" d="M623.65,218.42c-14.93,0-26.63,6.68-26.63,15.2s11.7,15.2,26.63,15.2,26.63-6.68,26.63-15.2S638.59,218.42,623.65,218.42Z" transform="translate(0.86)"/><path class="cls-19" d="M623.78,205.15c-11.94,0-21.3,5.44-21.3,12.38s9.36,12.38,21.3,12.38,21.3-5.44,21.3-12.38S635.72,205.15,623.78,205.15Z" transform="translate(0.86)"/><path class="cls-17" d="M465.74,412.52c-3-4.45-5.62-44.08-6.56-68a2.35,2.35,0,0,0-4.71.1c0,15.75-1.11,58.68-6.64,68a2.35,2.35,0,0,0,2,3.55h13.93A2.35,2.35,0,0,0,465.74,412.52Z" transform="translate(0.86)"/><path class="cls-18" d="M456.82,360.88c-18.26,0-32.56,8.06-32.56,18.34s14.3,18.34,32.56,18.34,32.56-8.06,32.56-18.34S475.08,360.88,456.82,360.88Z" transform="translate(0.86)"/><path class="cls-7" d="M456.7,342.24c-14.93,0-26.63,6.68-26.63,15.2s11.7,15.2,26.63,15.2,26.63-6.68,26.63-15.2S471.63,342.24,456.7,342.24Z" transform="translate(0.86)"/><path class="cls-19" d="M456.82,329c-11.94,0-21.3,5.44-21.3,12.38s9.36,12.38,21.3,12.38,21.3-5.44,21.3-12.38S468.77,329,456.82,329Z" transform="translate(0.86)"/><path class="cls-17" d="M630,412.59c-3-4.45-5.62-44.08-6.56-68a2.35,2.35,0,0,0-4.71.1c0,15.75-1.11,58.68-6.64,68a2.35,2.35,0,0,0,2,3.55h13.93A2.35,2.35,0,0,0,630,412.59Z" transform="translate(0.86)"/><path class="cls-18" d="M621.13,360.94c-18.26,0-32.56,8.06-32.56,18.34s14.3,18.34,32.56,18.34,32.56-8.06,32.56-18.34S639.39,360.94,621.13,360.94Z" transform="translate(0.86)"/><path class="cls-7" d="M621,342.31c-14.93,0-26.63,6.68-26.63,15.2s11.7,15.2,26.63,15.2,26.63-6.68,26.63-15.2S635.94,342.31,621,342.31Z" transform="translate(0.86)"/><path class="cls-19" d="M621.13,329c-11.94,0-21.3,5.44-21.3,12.38s9.36,12.38,21.3,12.38,21.3-5.44,21.3-12.38S633.08,329,621.13,329Z" transform="translate(0.86)"/><path class="cls-17" d="M465.69,543.88c-3-4.45-5.62-44.08-6.56-68a2.35,2.35,0,0,0-4.71.1c0,15.75-1.11,58.68-6.64,68a2.35,2.35,0,0,0,2,3.55h13.93A2.35,2.35,0,0,0,465.69,543.88Z" transform="translate(0.86)"/><path class="cls-18" d="M456.78,492.24c-18.26,0-32.56,8.06-32.56,18.34s14.3,18.34,32.56,18.34,32.56-8.06,32.56-18.34S475,492.24,456.78,492.24Z" transform="translate(0.86)"/><path class="cls-7" d="M456.65,473.6c-14.93,0-26.63,6.68-26.63,15.2s11.7,15.2,26.63,15.2,26.63-6.68,26.63-15.2S471.59,473.6,456.65,473.6Z" transform="translate(0.86)"/><path class="cls-19" d="M456.78,460.33c-11.94,0-21.3,5.44-21.3,12.38s9.36,12.38,21.3,12.38,21.3-5.44,21.3-12.38S468.72,460.33,456.78,460.33Z" transform="translate(0.86)"/><path class="cls-17" d="M630,543.95c-3-4.45-5.62-44.08-6.56-68a2.35,2.35,0,0,0-4.71.1c0,15.75-1.11,58.68-6.64,68a2.35,2.35,0,0,0,2,3.55h13.93A2.35,2.35,0,0,0,630,543.95Z" transform="translate(0.86)"/><path class="cls-18" d="M621.09,492.3c-18.26,0-32.56,8.06-32.56,18.34S602.83,529,621.09,529s32.56-8.06,32.56-18.34S639.35,492.3,621.09,492.3Z" transform="translate(0.86)"/><path class="cls-7" d="M621,473.67c-14.93,0-26.63,6.68-26.63,15.2s11.7,15.2,26.63,15.2,26.63-6.68,26.63-15.2S635.9,473.67,621,473.67Z" transform="translate(0.86)"/><path class="cls-19" d="M621.09,460.4c-11.94,0-21.3,5.44-21.3,12.38s9.36,12.38,21.3,12.38,21.3-5.44,21.3-12.38S633,460.4,621.09,460.4Z" transform="translate(0.86)"/><path class="cls-17" d="M465.74,670.55c-3-4.45-5.62-44.08-6.56-68a2.35,2.35,0,0,0-4.71.1c0,15.75-1.11,58.68-6.64,68a2.35,2.35,0,0,0,2,3.55h13.93A2.35,2.35,0,0,0,465.74,670.55Z" transform="translate(0.86)"/><path class="cls-18" d="M456.82,618.91c-18.26,0-32.56,8.06-32.56,18.34s14.3,18.34,32.56,18.34,32.56-8.06,32.56-18.34S475.08,618.91,456.82,618.91Z" transform="translate(0.86)"/><path class="cls-7" d="M456.69,600.27c-14.93,0-26.63,6.68-26.63,15.2s11.7,15.2,26.63,15.2,26.63-6.68,26.63-15.2S471.63,600.27,456.69,600.27Z" transform="translate(0.86)"/><path class="cls-19" d="M456.82,587c-11.94,0-21.3,5.44-21.3,12.38s9.36,12.38,21.3,12.38,21.3-5.44,21.3-12.38S468.77,587,456.82,587Z" transform="translate(0.86)"/><path class="cls-17" d="M630,670.61c-3-4.45-5.62-44.08-6.56-68a2.35,2.35,0,0,0-4.71.1c0,15.75-1.11,58.68-6.64,68a2.35,2.35,0,0,0,2,3.55h13.93A2.35,2.35,0,0,0,630,670.61Z" transform="translate(0.86)"/><path class="cls-18" d="M621.13,619c-18.26,0-32.56,8.06-32.56,18.34s14.3,18.34,32.56,18.34,32.56-8.06,32.56-18.34S639.39,619,621.13,619Z" transform="translate(0.86)"/><path class="cls-7" d="M621,600.33c-14.93,0-26.63,6.68-26.63,15.2s11.7,15.2,26.63,15.2,26.63-6.68,26.63-15.2S635.94,600.33,621,600.33Z" transform="translate(0.86)"/><path class="cls-19" d="M621.13,587.06c-11.94,0-21.3,5.44-21.3,12.38s9.36,12.38,21.3,12.38,21.3-5.44,21.3-12.38S633.07,587.06,621.13,587.06Z" transform="translate(0.86)"/><path class="cls-17" d="M465.74,804.61c-3-4.45-5.62-44.08-6.56-68a2.35,2.35,0,0,0-4.71.1c0,15.75-1.11,58.68-6.64,68a2.35,2.35,0,0,0,2,3.55h13.93A2.35,2.35,0,0,0,465.74,804.61Z" transform="translate(0.86)"/><path class="cls-18" d="M456.82,753c-18.26,0-32.56,8.06-32.56,18.34s14.3,18.34,32.56,18.34,32.56-8.06,32.56-18.34S475.08,753,456.82,753Z" transform="translate(0.86)"/><path class="cls-7" d="M456.69,734.33c-14.93,0-26.63,6.68-26.63,15.2s11.7,15.2,26.63,15.2,26.63-6.68,26.63-15.2S471.63,734.33,456.69,734.33Z" transform="translate(0.86)"/><path class="cls-19" d="M456.82,721.06c-11.94,0-21.3,5.44-21.3,12.38s9.36,12.38,21.3,12.38,21.3-5.44,21.3-12.38S468.77,721.06,456.82,721.06Z" transform="translate(0.86)"/><path class="cls-17" d="M630,804.67c-3-4.45-5.62-44.08-6.56-68a2.35,2.35,0,0,0-4.71.1c0,15.75-1.11,58.68-6.64,68a2.35,2.35,0,0,0,2,3.55h13.93A2.35,2.35,0,0,0,630,804.67Z" transform="translate(0.86)"/><path class="cls-18" d="M621.13,753c-18.26,0-32.56,8.06-32.56,18.34s14.3,18.34,32.56,18.34,32.56-8.06,32.56-18.34S639.39,753,621.13,753Z" transform="translate(0.86)"/><path class="cls-7" d="M621,734.39c-14.93,0-26.63,6.68-26.63,15.2s11.7,15.2,26.63,15.2,26.63-6.68,26.63-15.2S635.94,734.39,621,734.39Z" transform="translate(0.86)"/><path class="cls-19" d="M621.13,721.12c-11.94,0-21.3,5.44-21.3,12.38s9.36,12.38,21.3,12.38,21.3-5.44,21.3-12.38S633.07,721.12,621.13,721.12Z" transform="translate(0.86)"/><path class="cls-17" d="M465.74,932.36c-3-4.45-5.62-44.08-6.56-68a2.35,2.35,0,0,0-4.71.1c0,15.75-1.11,58.68-6.64,68a2.35,2.35,0,0,0,2,3.55h13.93A2.35,2.35,0,0,0,465.74,932.36Z" transform="translate(0.86)"/><path class="cls-18" d="M456.82,880.72c-18.26,0-32.56,8.06-32.56,18.34s14.3,18.34,32.56,18.34,32.56-8.06,32.56-18.34S475.08,880.72,456.82,880.72Z" transform="translate(0.86)"/><path class="cls-7" d="M456.69,862.08c-14.93,0-26.63,6.68-26.63,15.2s11.7,15.2,26.63,15.2,26.63-6.68,26.63-15.2S471.63,862.08,456.69,862.08Z" transform="translate(0.86)"/><path class="cls-19" d="M456.82,848.81c-11.94,0-21.3,5.44-21.3,12.38s9.36,12.38,21.3,12.38,21.3-5.44,21.3-12.38S468.77,848.81,456.82,848.81Z" transform="translate(0.86)"/><path class="cls-17" d="M630,932.43c-3-4.45-5.62-44.08-6.56-68a2.35,2.35,0,0,0-4.71.1c0,15.75-1.11,58.68-6.64,68a2.35,2.35,0,0,0,2,3.55h13.93A2.35,2.35,0,0,0,630,932.43Z" transform="translate(0.86)"/><path class="cls-18" d="M621.13,880.78c-18.26,0-32.56,8.06-32.56,18.34s14.3,18.34,32.56,18.34,32.56-8.06,32.56-18.34S639.39,880.78,621.13,880.78Z" transform="translate(0.86)"/><path class="cls-7" d="M621,862.15c-14.93,0-26.63,6.68-26.63,15.2s11.7,15.2,26.63,15.2,26.63-6.68,26.63-15.2S635.94,862.15,621,862.15Z" transform="translate(0.86)"/><path class="cls-19" d="M621.13,848.88c-11.94,0-21.3,5.44-21.3,12.38s9.36,12.38,21.3,12.38,21.3-5.44,21.3-12.38S633.07,848.88,621.13,848.88Z" transform="translate(0.86)"/><path class="cls-17" d="M465.74,1047.62c-3-4.45-5.62-44.08-6.56-68a2.35,2.35,0,0,0-4.71.1c0,15.75-1.11,58.68-6.64,68a2.35,2.35,0,0,0,2,3.55h13.93A2.35,2.35,0,0,0,465.74,1047.62Z" transform="translate(0.86)"/><path class="cls-18" d="M456.82,996c-18.26,0-32.56,8.06-32.56,18.34s14.3,18.34,32.56,18.34,32.56-8.06,32.56-18.34S475.08,996,456.82,996Z" transform="translate(0.86)"/><path class="cls-7" d="M456.69,977.33c-14.93,0-26.63,6.68-26.63,15.2s11.7,15.2,26.63,15.2,26.63-6.68,26.63-15.2S471.63,977.33,456.69,977.33Z" transform="translate(0.86)"/><path class="cls-19" d="M456.82,964.07c-11.94,0-21.3,5.44-21.3,12.38s9.36,12.38,21.3,12.38,21.3-5.44,21.3-12.38S468.77,964.07,456.82,964.07Z" transform="translate(0.86)"/><path class="cls-17" d="M630,1047.68c-3-4.45-5.62-44.08-6.56-68a2.35,2.35,0,0,0-4.71.1c0,15.75-1.11,58.68-6.64,68a2.35,2.35,0,0,0,2,3.55h13.93A2.35,2.35,0,0,0,630,1047.68Z" transform="translate(0.86)"/><path class="cls-18" d="M621.13,996c-18.26,0-32.56,8.06-32.56,18.34s14.3,18.34,32.56,18.34,32.56-8.06,32.56-18.34S639.39,996,621.13,996Z" transform="translate(0.86)"/><path class="cls-7" d="M621,977.4c-14.93,0-26.63,6.68-26.63,15.2s11.7,15.2,26.63,15.2,26.63-6.68,26.63-15.2S635.94,977.4,621,977.4Z" transform="translate(0.86)"/><path class="cls-19" d="M621.13,964.13c-11.94,0-21.3,5.44-21.3,12.38s9.36,12.38,21.3,12.38,21.3-5.44,21.3-12.38S633.07,964.13,621.13,964.13Z" transform="translate(0.86)"/><path class="cls-17" d="M465.74,1162.93c-3-4.45-5.62-44.08-6.56-68a2.35,2.35,0,0,0-4.71.1c0,15.75-1.11,58.68-6.64,68a2.35,2.35,0,0,0,2,3.55h13.93A2.35,2.35,0,0,0,465.74,1162.93Z" transform="translate(0.86)"/><path class="cls-18" d="M456.82,1111.28c-18.26,0-32.56,8.06-32.56,18.34s14.3,18.34,32.56,18.34,32.56-8.06,32.56-18.34S475.08,1111.28,456.82,1111.28Z" transform="translate(0.86)"/><path class="cls-7" d="M456.69,1092.65c-14.93,0-26.63,6.68-26.63,15.2s11.7,15.2,26.63,15.2,26.63-6.68,26.63-15.2S471.63,1092.65,456.69,1092.65Z" transform="translate(0.86)"/><path class="cls-19" d="M456.82,1079.38c-11.94,0-21.3,5.44-21.3,12.38s9.36,12.38,21.3,12.38,21.3-5.44,21.3-12.38S468.77,1079.38,456.82,1079.38Z" transform="translate(0.86)"/><path class="cls-17" d="M630,1163c-3-4.45-5.62-44.08-6.56-68a2.35,2.35,0,0,0-4.71.1c0,15.75-1.11,58.68-6.64,68a2.35,2.35,0,0,0,2,3.55h13.93A2.35,2.35,0,0,0,630,1163Z" transform="translate(0.86)"/><path class="cls-18" d="M621.13,1111.35c-18.26,0-32.56,8.06-32.56,18.34s14.3,18.34,32.56,18.34,32.56-8.06,32.56-18.34S639.39,1111.35,621.13,1111.35Z" transform="translate(0.86)"/><path class="cls-7" d="M621,1092.71c-14.93,0-26.63,6.68-26.63,15.2s11.7,15.2,26.63,15.2,26.63-6.68,26.63-15.2S635.94,1092.71,621,1092.71Z" transform="translate(0.86)"/><path class="cls-19" d="M621.13,1079.44c-11.94,0-21.3,5.44-21.3,12.38s9.36,12.38,21.3,12.38,21.3-5.44,21.3-12.38S633.07,1079.44,621.13,1079.44Z" transform="translate(0.86)"/><path class="cls-17" d="M465.74,1283.54c-3-4.45-5.62-44.08-6.56-68a2.35,2.35,0,0,0-4.71.1c0,15.75-1.11,58.68-6.64,68a2.35,2.35,0,0,0,2,3.55h13.93A2.35,2.35,0,0,0,465.74,1283.54Z" transform="translate(0.86)"/><path class="cls-18" d="M456.82,1231.9c-18.26,0-32.56,8.06-32.56,18.34s14.3,18.34,32.56,18.34,32.56-8.06,32.56-18.34S475.08,1231.9,456.82,1231.9Z" transform="translate(0.86)"/><path class="cls-7" d="M456.69,1213.26c-14.93,0-26.63,6.68-26.63,15.2s11.7,15.2,26.63,15.2,26.63-6.68,26.63-15.2S471.63,1213.26,456.69,1213.26Z" transform="translate(0.86)"/><path class="cls-19" d="M456.82,1200c-11.94,0-21.3,5.44-21.3,12.38s9.36,12.38,21.3,12.38,21.3-5.44,21.3-12.38S468.77,1200,456.82,1200Z" transform="translate(0.86)"/><path class="cls-17" d="M630,1283.6c-3-4.45-5.62-44.08-6.56-68a2.35,2.35,0,0,0-4.71.1c0,15.75-1.11,58.68-6.64,68a2.35,2.35,0,0,0,2,3.55h13.93A2.35,2.35,0,0,0,630,1283.6Z" transform="translate(0.86)"/><path class="cls-18" d="M621.13,1232c-18.26,0-32.56,8.06-32.56,18.34s14.3,18.34,32.56,18.34,32.56-8.06,32.56-18.34S639.39,1232,621.13,1232Z" transform="translate(0.86)"/><path class="cls-7" d="M621,1213.32c-14.93,0-26.63,6.68-26.63,15.2s11.7,15.2,26.63,15.2,26.63-6.68,26.63-15.2S635.94,1213.32,621,1213.32Z" transform="translate(0.86)"/><path class="cls-19" d="M621.13,1200.05c-11.94,0-21.3,5.44-21.3,12.38s9.36,12.38,21.3,12.38,21.3-5.44,21.3-12.38S633.07,1200.05,621.13,1200.05Z" transform="translate(0.86)"/><path class="cls-17" d="M468.6,1402.26c-3-4.45-5.62-44.08-6.56-68a2.35,2.35,0,0,0-4.71.1c0,15.75-1.11,58.68-6.64,68a2.35,2.35,0,0,0,2,3.55h13.93A2.35,2.35,0,0,0,468.6,1402.26Z" transform="translate(0.86)"/><path class="cls-18" d="M459.69,1350.62c-18.26,0-32.56,8.06-32.56,18.34s14.3,18.34,32.56,18.34,32.56-8.06,32.56-18.34S477.95,1350.62,459.69,1350.62Z" transform="translate(0.86)"/><path class="cls-7" d="M459.56,1332c-14.93,0-26.63,6.68-26.63,15.2s11.7,15.2,26.63,15.2,26.63-6.68,26.63-15.2S474.49,1332,459.56,1332Z" transform="translate(0.86)"/><path class="cls-19" d="M459.69,1318.71c-11.94,0-21.3,5.44-21.3,12.38s9.36,12.38,21.3,12.38S481,1338,481,1331.09,471.63,1318.71,459.69,1318.71Z" transform="translate(0.86)"/><path class="cls-17" d="M632.91,1402.33c-3-4.45-5.62-44.08-6.56-68a2.35,2.35,0,0,0-4.71.1c0,15.75-1.11,58.68-6.64,68a2.35,2.35,0,0,0,2,3.55H631A2.35,2.35,0,0,0,632.91,1402.33Z" transform="translate(0.86)"/><path class="cls-18" d="M624,1350.68c-18.26,0-32.56,8.06-32.56,18.34s14.3,18.34,32.56,18.34,32.56-8.06,32.56-18.34S642.26,1350.68,624,1350.68Z" transform="translate(0.86)"/><path class="cls-7" d="M623.87,1332c-14.93,0-26.63,6.68-26.63,15.2s11.7,15.2,26.63,15.2,26.63-6.68,26.63-15.2S638.8,1332,623.87,1332Z" transform="translate(0.86)"/><path class="cls-19" d="M624,1318.77c-11.94,0-21.3,5.44-21.3,12.38s9.36,12.38,21.3,12.38,21.3-5.44,21.3-12.38S635.94,1318.77,624,1318.77Z" transform="translate(0.86)"/><path class="cls-17" d="M468.6,1522.21c-3-4.45-5.62-44.08-6.56-68a2.35,2.35,0,0,0-4.71.1c0,15.75-1.11,58.68-6.64,68a2.35,2.35,0,0,0,2,3.55h13.93A2.35,2.35,0,0,0,468.6,1522.21Z" transform="translate(0.86)"/><path class="cls-18" d="M459.69,1470.57c-18.26,0-32.56,8.06-32.56,18.34s14.3,18.34,32.56,18.34,32.56-8.06,32.56-18.34S477.95,1470.57,459.69,1470.57Z" transform="translate(0.86)"/><path class="cls-7" d="M459.56,1451.93c-14.93,0-26.63,6.68-26.63,15.2s11.7,15.2,26.63,15.2,26.63-6.68,26.63-15.2S474.49,1451.93,459.56,1451.93Z" transform="translate(0.86)"/><path class="cls-19" d="M459.69,1438.66c-11.94,0-21.3,5.44-21.3,12.38s9.36,12.38,21.3,12.38S481,1458,481,1451,471.63,1438.66,459.69,1438.66Z" transform="translate(0.86)"/><path class="cls-17" d="M632.91,1522.27c-3-4.45-5.62-44.08-6.56-68a2.35,2.35,0,0,0-4.71.1c0,15.75-1.11,58.68-6.64,68a2.35,2.35,0,0,0,2,3.55H631A2.35,2.35,0,0,0,632.91,1522.27Z" transform="translate(0.86)"/><path class="cls-18" d="M624,1470.63c-18.26,0-32.56,8.06-32.56,18.34s14.3,18.34,32.56,18.34,32.56-8.06,32.56-18.34S642.26,1470.63,624,1470.63Z" transform="translate(0.86)"/><path class="cls-7" d="M623.87,1452c-14.93,0-26.63,6.68-26.63,15.2s11.7,15.2,26.63,15.2,26.63-6.68,26.63-15.2S638.8,1452,623.87,1452Z" transform="translate(0.86)"/><path class="cls-19" d="M624,1438.72c-11.94,0-21.3,5.44-21.3,12.38s9.36,12.38,21.3,12.38,21.3-5.44,21.3-12.38S635.94,1438.72,624,1438.72Z" transform="translate(0.86)"/><path class="cls-17" d="M468.74,1637.35c-3-4.45-5.62-44.08-6.56-68a2.35,2.35,0,0,0-4.71.1c0,15.75-1.11,58.68-6.64,68a2.35,2.35,0,0,0,2,3.55h13.93A2.35,2.35,0,0,0,468.74,1637.35Z" transform="translate(0.86)"/><path class="cls-18" d="M459.82,1585.71c-18.26,0-32.56,8.06-32.56,18.34s14.3,18.34,32.56,18.34,32.56-8.06,32.56-18.34S478.08,1585.71,459.82,1585.71Z" transform="translate(0.86)"/><path class="cls-7" d="M459.69,1567.07c-14.93,0-26.63,6.68-26.63,15.2s11.7,15.2,26.63,15.2,26.63-6.68,26.63-15.2S474.63,1567.07,459.69,1567.07Z" transform="translate(0.86)"/><path class="cls-19" d="M459.82,1553.8c-11.94,0-21.3,5.44-21.3,12.38s9.36,12.38,21.3,12.38,21.3-5.44,21.3-12.38S471.77,1553.8,459.82,1553.8Z" transform="translate(0.86)"/><path class="cls-17" d="M633,1637.41c-3-4.45-5.62-44.08-6.56-68a2.35,2.35,0,0,0-4.71.1c0,15.75-1.11,58.68-6.64,68a2.35,2.35,0,0,0,2,3.55h13.93A2.35,2.35,0,0,0,633,1637.41Z" transform="translate(0.86)"/><path class="cls-18" d="M624.13,1585.77c-18.26,0-32.56,8.06-32.56,18.34s14.3,18.34,32.56,18.34,32.56-8.06,32.56-18.34S642.39,1585.77,624.13,1585.77Z" transform="translate(0.86)"/><path class="cls-7" d="M624,1567.13c-14.93,0-26.63,6.68-26.63,15.2s11.7,15.2,26.63,15.2,26.63-6.68,26.63-15.2S638.94,1567.13,624,1567.13Z" transform="translate(0.86)"/><path class="cls-19" d="M624.13,1553.86c-11.94,0-21.3,5.44-21.3,12.38s9.36,12.38,21.3,12.38,21.3-5.44,21.3-12.38S636.07,1553.86,624.13,1553.86Z" transform="translate(0.86)"/><path class="cls-17" d="M465.74,1749.15c-3-4.45-5.62-44.08-6.56-68a2.35,2.35,0,0,0-4.71.1c0,15.75-1.11,58.68-6.64,68a2.35,2.35,0,0,0,2,3.55h13.93A2.35,2.35,0,0,0,465.74,1749.15Z" transform="translate(0.86)"/><path class="cls-18" d="M456.82,1697.51c-18.26,0-32.56,8.06-32.56,18.34s14.3,18.34,32.56,18.34,32.56-8.06,32.56-18.34S475.08,1697.51,456.82,1697.51Z" transform="translate(0.86)"/><path class="cls-7" d="M456.69,1678.87c-14.93,0-26.63,6.68-26.63,15.2s11.7,15.2,26.63,15.2,26.63-6.68,26.63-15.2S471.63,1678.87,456.69,1678.87Z" transform="translate(0.86)"/><path class="cls-19" d="M456.82,1665.6c-11.94,0-21.3,5.44-21.3,12.38s9.36,12.38,21.3,12.38,21.3-5.44,21.3-12.38S468.77,1665.6,456.82,1665.6Z" transform="translate(0.86)"/><path class="cls-17" d="M630,1749.22c-3-4.45-5.62-44.08-6.56-68a2.35,2.35,0,0,0-4.71.1c0,15.75-1.11,58.68-6.64,68a2.35,2.35,0,0,0,2,3.55h13.93A2.35,2.35,0,0,0,630,1749.22Z" transform="translate(0.86)"/><path class="cls-18" d="M621.13,1697.57c-18.26,0-32.56,8.06-32.56,18.34s14.3,18.34,32.56,18.34,32.56-8.06,32.56-18.34S639.39,1697.57,621.13,1697.57Z" transform="translate(0.86)"/><path class="cls-7" d="M621,1678.93c-14.93,0-26.63,6.68-26.63,15.2s11.7,15.2,26.63,15.2,26.63-6.68,26.63-15.2S635.94,1678.93,621,1678.93Z" transform="translate(0.86)"/><path class="cls-19" d="M621.13,1665.67c-11.94,0-21.3,5.44-21.3,12.38s9.36,12.38,21.3,12.38,21.3-5.44,21.3-12.38S633.08,1665.67,621.13,1665.67Z" transform="translate(0.86)"/><path class="cls-17" d="M465.74,1874c-3-4.45-5.62-44.08-6.56-68a2.35,2.35,0,0,0-4.71.1c0,15.75-1.11,58.68-6.64,68a2.35,2.35,0,0,0,2,3.55h13.93A2.35,2.35,0,0,0,465.74,1874Z" transform="translate(0.86)"/><path class="cls-18" d="M456.82,1822.35c-18.26,0-32.56,8.06-32.56,18.34s14.3,18.34,32.56,18.34,32.56-8.06,32.56-18.34S475.08,1822.35,456.82,1822.35Z" transform="translate(0.86)"/><path class="cls-7" d="M456.69,1803.71c-14.93,0-26.63,6.68-26.63,15.2s11.7,15.2,26.63,15.2,26.63-6.68,26.63-15.2S471.63,1803.71,456.69,1803.71Z" transform="translate(0.86)"/><path class="cls-19" d="M456.82,1790.44c-11.94,0-21.3,5.44-21.3,12.38s9.36,12.38,21.3,12.38,21.3-5.44,21.3-12.38S468.77,1790.44,456.82,1790.44Z" transform="translate(0.86)"/><path class="cls-17" d="M630,1874.05c-3-4.45-5.62-44.08-6.56-68a2.35,2.35,0,0,0-4.71.1c0,15.75-1.11,58.68-6.64,68a2.35,2.35,0,0,0,2,3.55h13.93A2.35,2.35,0,0,0,630,1874.05Z" transform="translate(0.86)"/><path class="cls-18" d="M621.13,1822.41c-18.26,0-32.56,8.06-32.56,18.34s14.3,18.34,32.56,18.34,32.56-8.06,32.56-18.34S639.39,1822.41,621.13,1822.41Z" transform="translate(0.86)"/><path class="cls-7" d="M621,1803.77c-14.93,0-26.63,6.68-26.63,15.2s11.7,15.2,26.63,15.2,26.63-6.68,26.63-15.2S635.94,1803.77,621,1803.77Z" transform="translate(0.86)"/><path class="cls-19" d="M621.13,1790.5c-11.94,0-21.3,5.44-21.3,12.38s9.36,12.38,21.3,12.38,21.3-5.44,21.3-12.38S633.08,1790.5,621.13,1790.5Z" transform="translate(0.86)"/><path class="cls-17" d="M465.74,1993.6c-3-4.45-5.62-44.08-6.56-68a2.35,2.35,0,0,0-4.71.1c0,15.75-1.11,58.68-6.64,68a2.35,2.35,0,0,0,2,3.55h13.93A2.35,2.35,0,0,0,465.74,1993.6Z" transform="translate(0.86)"/><path class="cls-18" d="M456.82,1942c-18.26,0-32.56,8.06-32.56,18.34s14.3,18.34,32.56,18.34,32.56-8.06,32.56-18.34S475.08,1942,456.82,1942Z" transform="translate(0.86)"/><path class="cls-7" d="M456.69,1923.32c-14.93,0-26.63,6.68-26.63,15.2s11.7,15.2,26.63,15.2,26.63-6.68,26.63-15.2S471.63,1923.32,456.69,1923.32Z" transform="translate(0.86)"/><path class="cls-19" d="M456.82,1910c-11.94,0-21.3,5.44-21.3,12.38s9.36,12.38,21.3,12.38,21.3-5.44,21.3-12.38S468.77,1910,456.82,1910Z" transform="translate(0.86)"/><path class="cls-17" d="M630,1993.66c-3-4.45-5.62-44.08-6.56-68a2.35,2.35,0,0,0-4.71.1c0,15.75-1.11,58.68-6.64,68a2.35,2.35,0,0,0,2,3.55h13.93A2.35,2.35,0,0,0,630,1993.66Z" transform="translate(0.86)"/><path class="cls-18" d="M621.13,1942c-18.26,0-32.56,8.06-32.56,18.34s14.3,18.34,32.56,18.34,32.56-8.06,32.56-18.34S639.39,1942,621.13,1942Z" transform="translate(0.86)"/><path class="cls-7" d="M621,1923.38c-14.93,0-26.63,6.68-26.63,15.2s11.7,15.2,26.63,15.2,26.63-6.68,26.63-15.2S635.94,1923.38,621,1923.38Z" transform="translate(0.86)"/><path class="cls-19" d="M621.13,1910.11c-11.94,0-21.3,5.44-21.3,12.38s9.36,12.38,21.3,12.38,21.3-5.44,21.3-12.38S633.08,1910.11,621.13,1910.11Z" transform="translate(0.86)"/><path class="cls-17" d="M465.74,2110.62c-3-4.45-5.62-44.08-6.56-68a2.35,2.35,0,0,0-4.71.1c0,15.75-1.11,58.68-6.64,68a2.35,2.35,0,0,0,2,3.55h13.93A2.35,2.35,0,0,0,465.74,2110.62Z" transform="translate(0.86)"/><path class="cls-18" d="M456.82,2059c-18.26,0-32.56,8.06-32.56,18.34s14.3,18.34,32.56,18.34,32.56-8.06,32.56-18.34S475.08,2059,456.82,2059Z" transform="translate(0.86)"/><path class="cls-7" d="M456.69,2040.34c-14.93,0-26.63,6.68-26.63,15.2s11.7,15.2,26.63,15.2,26.63-6.68,26.63-15.2S471.63,2040.34,456.69,2040.34Z" transform="translate(0.86)"/><path class="cls-19" d="M456.82,2027.07c-11.94,0-21.3,5.44-21.3,12.38s9.36,12.38,21.3,12.38,21.3-5.44,21.3-12.38S468.77,2027.07,456.82,2027.07Z" transform="translate(0.86)"/><path class="cls-17" d="M630,2110.69c-3-4.45-5.62-44.08-6.56-68a2.35,2.35,0,0,0-4.71.1c0,15.75-1.11,58.68-6.64,68a2.35,2.35,0,0,0,2,3.55h13.93A2.35,2.35,0,0,0,630,2110.69Z" transform="translate(0.86)"/><path class="cls-18" d="M621.13,2059c-18.26,0-32.56,8.06-32.56,18.34s14.3,18.34,32.56,18.34,32.56-8.06,32.56-18.34S639.39,2059,621.13,2059Z" transform="translate(0.86)"/><path class="cls-7" d="M621,2040.41c-14.93,0-26.63,6.68-26.63,15.2s11.7,15.2,26.63,15.2,26.63-6.68,26.63-15.2S635.94,2040.41,621,2040.41Z" transform="translate(0.86)"/><path class="cls-19" d="M621.13,2027.14c-11.94,0-21.3,5.44-21.3,12.38s9.36,12.38,21.3,12.38,21.3-5.44,21.3-12.38S633.08,2027.14,621.13,2027.14Z" transform="translate(0.86)"/><path class="cls-17" d="M465.74,2227.65c-3-4.45-5.62-44.08-6.56-68a2.35,2.35,0,0,0-4.71.1c0,15.75-1.11,58.68-6.64,68a2.35,2.35,0,0,0,2,3.55h13.93A2.35,2.35,0,0,0,465.74,2227.65Z" transform="translate(0.86)"/><path class="cls-18" d="M456.82,2176c-18.26,0-32.56,8.06-32.56,18.34s14.3,18.34,32.56,18.34,32.56-8.06,32.56-18.34S475.08,2176,456.82,2176Z" transform="translate(0.86)"/><path class="cls-7" d="M456.69,2157.37c-14.93,0-26.63,6.68-26.63,15.2s11.7,15.2,26.63,15.2,26.63-6.68,26.63-15.2S471.63,2157.37,456.69,2157.37Z" transform="translate(0.86)"/><path class="cls-19" d="M456.82,2144.1c-11.94,0-21.3,5.44-21.3,12.38s9.36,12.38,21.3,12.38,21.3-5.44,21.3-12.38S468.77,2144.1,456.82,2144.1Z" transform="translate(0.86)"/><path class="cls-17" d="M630,2227.71c-3-4.45-5.62-44.08-6.56-68a2.35,2.35,0,0,0-4.71.1c0,15.75-1.11,58.68-6.64,68a2.35,2.35,0,0,0,2,3.55h13.93A2.35,2.35,0,0,0,630,2227.71Z" transform="translate(0.86)"/><path class="cls-18" d="M621.13,2176.07c-18.26,0-32.56,8.06-32.56,18.34s14.3,18.34,32.56,18.34,32.56-8.06,32.56-18.34S639.39,2176.07,621.13,2176.07Z" transform="translate(0.86)"/><path class="cls-7" d="M621,2157.43c-14.93,0-26.63,6.68-26.63,15.2s11.7,15.2,26.63,15.2,26.63-6.68,26.63-15.2S635.94,2157.43,621,2157.43Z" transform="translate(0.86)"/><path class="cls-19" d="M621.13,2144.16c-11.94,0-21.3,5.44-21.3,12.38s9.36,12.38,21.3,12.38,21.3-5.44,21.3-12.38S633.07,2144.16,621.13,2144.16Z" transform="translate(0.86)"/><path class="cls-17" d="M465.74,2314.87c-3-4.45-5.62-44.08-6.56-68a2.35,2.35,0,0,0-4.71.1c0,15.75-1.11,58.68-6.64,68a2.35,2.35,0,0,0,2,3.55h13.93A2.35,2.35,0,0,0,465.74,2314.87Z" transform="translate(0.86)"/><path class="cls-18" d="M456.82,2263.23c-18.26,0-32.56,8.06-32.56,18.34s14.3,18.34,32.56,18.34,32.56-8.06,32.56-18.34S475.08,2263.23,456.82,2263.23Z" transform="translate(0.86)"/><path class="cls-7" d="M456.69,2244.59c-14.93,0-26.63,6.68-26.63,15.2s11.7,15.2,26.63,15.2,26.63-6.68,26.63-15.2S471.63,2244.59,456.69,2244.59Z" transform="translate(0.86)"/><path class="cls-19" d="M456.82,2231.32c-11.94,0-21.3,5.44-21.3,12.38s9.36,12.38,21.3,12.38,21.3-5.44,21.3-12.38S468.77,2231.32,456.82,2231.32Z" transform="translate(0.86)"/><path class="cls-17" d="M630,2314.93c-3-4.45-5.62-44.08-6.56-68a2.35,2.35,0,0,0-4.71.1c0,15.75-1.11,58.68-6.64,68a2.35,2.35,0,0,0,2,3.55h13.93A2.35,2.35,0,0,0,630,2314.93Z" transform="translate(0.86)"/><path class="cls-18" d="M621.13,2263.29c-18.26,0-32.56,8.06-32.56,18.34s14.3,18.34,32.56,18.34,32.56-8.06,32.56-18.34S639.39,2263.29,621.13,2263.29Z" transform="translate(0.86)"/><path class="cls-7" d="M621,2244.65c-14.93,0-26.63,6.68-26.63,15.2s11.7,15.2,26.63,15.2,26.63-6.68,26.63-15.2S635.94,2244.65,621,2244.65Z" transform="translate(0.86)"/><path class="cls-19" d="M621.13,2231.38c-11.94,0-21.3,5.44-21.3,12.38s9.36,12.38,21.3,12.38,21.3-5.44,21.3-12.38S633.07,2231.38,621.13,2231.38Z" transform="translate(0.86)"/><line id="Route_principale-2" data-name="Route principale" class="cls-2" x1="133.26" y1="2382.56" x2="133.26" y2="2489.24"/><line id="Route_principale-3" data-name="Route principale" class="cls-2" x1="968.32" y1="2380.18" x2="968.32" y2="2489.24"/><line id="Trait_bas" data-name="Trait bas" class="cls-4" x1="133.26" y1="2489.24" x2="133.26" y2="2360.69"/><line id="Trait_bas-2" data-name="Trait bas" class="cls-4" x1="968.32" y1="2484.36" x2="968.32" y2="2360.28"/><line id="Trait_bas-3" data-name="Trait bas" class="cls-4" x1="970.82" y1="2362.12" x2="133.26" y2="2363.17"/></svg>