<svg id="Fond" xmlns="http://www.w3.org/2000/svg" xmlns:xlink="http://www.w3.org/1999/xlink" viewBox="0 0 1081.401 5003.5"><defs><style>.cls-1{fill:#9aa3ce;}.cls-2{fill:#fff;stroke-width:65px;}.cls-2,.cls-6,.cls-7,.cls-8{stroke:#fff;}.cls-15,.cls-2,.cls-3,.cls-4,.cls-6,.cls-7,.cls-8{stroke-miterlimit:10;}.cls-15,.cls-3{fill:none;}.cls-3{stroke:#adacac;stroke-width:5px;stroke-dasharray:40 60 40 60 40 60;}.cls-4{stroke-width:90px;fill:url(#Dégradé_sans_nom_200);stroke:url(#Dégradé_sans_nom_178);}.cls-5{fill:#ffc393;}.cls-6{fill:#54bbb8;}.cls-6,.cls-7,.cls-8{stroke-width:4px;}.cls-7{fill:#f9c092;}.cls-8{fill:#b3dff1;}.cls-9{fill:#73be91;}.cls-10{fill:#e186b6;}.cls-11{fill:#ece17b;}.cls-12{fill:#f08872;}.cls-13{fill:#b17f49;}.cls-14{fill:#925f36;}.cls-15{stroke:#000;}</style><linearGradient id="Dégradé_sans_nom_200" x1="6011.139" y1="10147.846" x2="6030.988" y2="10194.222" gradientTransform="translate(-9640.84 6483.709) rotate(-90)" gradientUnits="userSpaceOnUse"><stop offset="0" stop-color="#fff"/><stop offset="0.029" stop-color="#e8eaf3"/><stop offset="0.089" stop-color="#abb3d5"/><stop offset="0.106" stop-color="#99a2cc"/><stop offset="0.181" stop-color="#99a2cc"/><stop offset="0.536" stop-color="#99a2cc"/></linearGradient><linearGradient id="Dégradé_sans_nom_178" x1="5979.841" y1="10179.858" x2="6069.841" y2="10179.858" gradientTransform="translate(-9640.84 6483.709) rotate(-90)" gradientUnits="userSpaceOnUse"><stop offset="0.036" stop-color="#fff"/><stop offset="0.297" stop-color="#e8eaf3"/><stop offset="0.843" stop-color="#abb3d5"/><stop offset="1" stop-color="#99a2cc"/></linearGradient></defs><title>Maquette_fond</title><rect id="Couleur_fond" data-name="Couleur fond" class="cls-1" x="0.085" width="1081.276" height="5003.5"/><line id="Route_bas" data-name="Route bas" class="cls-2" x1="1081.316" y1="4895.247" x2="0.084" y2="4898.051"/><line id="Trait_bas" data-name="Trait bas" class="cls-3" x1="1081.354" y1="4895.928" x2="6.694" y2="4898.887"/><line id="Route_principale" data-name="Route principale" class="cls-2" x1="539.06" y1="492.938" x2="539.06" y2="4863.609"/><line id="Route_dégradé" data-name="Route dégradé" class="cls-4" x1="506.543" y1="458.868" x2="571.493" y2="458.868"/><line id="Trait_de_route" data-name="Trait de route" class="cls-3" x1="539.06" y1="492.938" x2="539.06" y2="4863.609"/><rect id="Maison-2" data-name="Maison" class="cls-5" x="0.084" width="506.459" height="138.312"/><rect id="Maison-3" data-name="Maison" class="cls-5" x="571.938" width="509.422" height="138.312"/><polygon id="Fenêtre" class="cls-6" points="182.987 96.083 101.797 96.083 101.797 27.849 142.392 27.849 182.987 27.849 182.987 96.083"/><path id="Fenêtre-2" data-name="Fenêtre" class="cls-7" d="M142.308,61.966h0Z" transform="translate(0.085)"/><polyline id="Fenêtre-3" data-name="Fenêtre" class="cls-7" points="142.392 61.966 101.797 61.966 142.392 61.966 142.392 96.083"/><line id="Fenêtre-4" data-name="Fenêtre" class="cls-8" x1="142.392" y1="27.849" x2="142.392" y2="61.966"/><path id="Buisson" class="cls-9" d="M0,127.636a19.47,19.47,0,0,1,13.78-6.692,19.666,19.666,0,0,1,15.051,6.694,6.138,6.138,0,0,1,12.236,0c1.9-4.639,5.954-6.352,8.046-5.3,1.477,0.746,2.187,2.976,2.1,5.3a26.336,26.336,0,0,1,15.738-8.794c13.346-1.966,22.629,7.9,23.44,8.8a15.737,15.737,0,0,1,9.444-4.249,16.109,16.109,0,0,1,11.918,4.251,16.612,16.612,0,0,1,11.52-6.35c8.429-.658,13.651,5.84,14.048,6.352,0.349-.4,5.5-6.122,12.889-4.953a14.073,14.073,0,0,1,8.474,4.954c3.2-1.985,7.119-4.029,8.318-2.854,0.386,0.378.571,1.169,0.029,2.854a10.12,10.12,0,0,1,7.318-4.6,9.8,9.8,0,0,1,9.1,4.6,7.217,7.217,0,0,1,14.343,0,29.581,29.581,0,0,1,13.294-4.956,30.479,30.479,0,0,1,19.921,4.958,7.944,7.944,0,0,1,14.42,0,45.031,45.031,0,0,1,39.783,0c2.738-8.327,10.811-12.256,16.606-10.17,3.884,1.4,6.639,5.46,7.4,10.172,0.3-.387,4.513-5.676,11.3-5.107a13.23,13.23,0,0,1,9.139,5.108c0.563-4.346,4.473-6.71,7.225-5.888,2.041,0.61,3.628,3.029,3.633,5.889a38.635,38.635,0,0,1,19.745-7.447,39.226,39.226,0,0,1,25.326,7.013,15.668,15.668,0,0,1,26.1.39,8.867,8.867,0,0,1,7.013-1.948,8.964,8.964,0,0,1,6.234,4.676c1.132-1.155,10.118-10.022,23.377-8.572a28.689,28.689,0,0,1,17.923,9.351,15.808,15.808,0,0,1,8.572-7.4c6.353-2.076,13.942.671,18.7,7.013,2.869-5.189,9.359-6.23,12.858-3.507,3.394,2.642,4.075,8.9.088,13.024H0V127.636Z" transform="translate(0.085)"/><path class="cls-10" d="M477.972,128.687a0.5,0.5,0,1,0-.82.455,0.416,0.416,0,1,0,0,.724,0.674,0.674,0,0,0-.341.687,0.682,0.682,0,0,0,.78-0.138,0.593,0.593,0,0,0,.609.575,0.583,0.583,0,0,0,.268-0.707,0.55,0.55,0,0,0,.774-0.047,0.528,0.528,0,0,0-.269-0.588,0.609,0.609,0,0,0,.359-0.632,0.585,0.585,0,0,0-.655.049A0.4,0.4,0,1,0,477.972,128.687Z" transform="translate(0.085)"/><path class="cls-11" d="M487.078,133.241a0.5,0.5,0,1,0-.82.455,0.416,0.416,0,1,0,0,.724,0.674,0.674,0,0,0-.341.687,0.682,0.682,0,0,0,.78-0.138,0.593,0.593,0,0,0,.609.575,0.583,0.583,0,0,0,.268-0.707,0.55,0.55,0,0,0,.774-0.047,0.528,0.528,0,0,0-.269-0.588,0.609,0.609,0,0,0,.359-0.632,0.585,0.585,0,0,0-.655.049A0.4,0.4,0,1,0,487.078,133.241Z" transform="translate(0.085)"/><path class="cls-12" d="M503.066,127.059a0.5,0.5,0,1,0-.82.455,0.416,0.416,0,1,0,0,.724,0.674,0.674,0,0,0-.341.687,0.682,0.682,0,0,0,.78-0.138,0.593,0.593,0,0,0,.609.575,0.583,0.583,0,0,0,.268-0.707,0.55,0.55,0,0,0,.774-0.047,0.528,0.528,0,0,0-.269-0.588,0.609,0.609,0,0,0,.359-0.632,0.585,0.585,0,0,0-.655.049A0.4,0.4,0,1,0,503.066,127.059Z" transform="translate(0.085)"/><path class="cls-12" d="M446.259,131.883a0.5,0.5,0,1,0-.82.455,0.416,0.416,0,1,0,0,.724,0.674,0.674,0,0,0-.341.687,0.682,0.682,0,0,0,.78-0.138,0.593,0.593,0,0,0,.609.575,0.583,0.583,0,0,0,.268-0.707,0.55,0.55,0,0,0,.774-0.047,0.528,0.528,0,0,0-.269-0.588,0.609,0.609,0,0,0,.359-0.632,0.585,0.585,0,0,0-.655.049A0.4,0.4,0,1,0,446.259,131.883Z" transform="translate(0.085)"/><path class="cls-12" d="M411.452,134.21a0.5,0.5,0,1,0-.82.455,0.416,0.416,0,1,0,0,.724,0.674,0.674,0,0,0-.341.687,0.682,0.682,0,0,0,.78-0.138,0.593,0.593,0,0,0,.609.575,0.583,0.583,0,0,0,.268-0.707,0.55,0.55,0,0,0,.774-0.047,0.528,0.528,0,0,0-.269-0.588,0.609,0.609,0,0,0,.359-0.632,0.585,0.585,0,0,0-.655.049A0.4,0.4,0,1,0,411.452,134.21Z" transform="translate(0.085)"/><path class="cls-12" d="M348.378,124.343a0.5,0.5,0,1,0-.82.455,0.416,0.416,0,1,0,0,.724,0.674,0.674,0,0,0-.341.687,0.682,0.682,0,0,0,.78-0.138,0.593,0.593,0,0,0,.609.575,0.583,0.583,0,0,0,.268-0.707,0.55,0.55,0,0,0,.774-0.047,0.528,0.528,0,0,0-.269-0.588,0.609,0.609,0,0,0,.359-0.632,0.585,0.585,0,0,0-.655.049A0.4,0.4,0,1,0,348.378,124.343Z" transform="translate(0.085)"/><path class="cls-12" d="M325.827,128.757a0.5,0.5,0,1,0-.82.455,0.416,0.416,0,1,0,0,.724,0.674,0.674,0,0,0-.341.687,0.682,0.682,0,0,0,.78-0.138,0.593,0.593,0,0,0,.609.575,0.583,0.583,0,0,0,.268-0.707,0.55,0.55,0,0,0,.774-0.047,0.528,0.528,0,0,0-.269-0.588,0.609,0.609,0,0,0,.359-0.632,0.585,0.585,0,0,0-.655.049A0.4,0.4,0,1,0,325.827,128.757Z" transform="translate(0.085)"/><path class="cls-12" d="M256.034,124.343a0.5,0.5,0,1,0-.82.455,0.416,0.416,0,1,0,0,.724,0.674,0.674,0,0,0-.341.687,0.682,0.682,0,0,0,.78-0.138,0.593,0.593,0,0,0,.609.575,0.583,0.583,0,0,0,.268-0.707,0.55,0.55,0,0,0,.774-0.047,0.528,0.528,0,0,0-.269-0.588,0.609,0.609,0,0,0,.359-0.632,0.585,0.585,0,0,0-.655.049A0.4,0.4,0,1,0,256.034,124.343Z" transform="translate(0.085)"/><path class="cls-12" d="M209.895,133.434a0.5,0.5,0,1,0-.82.455,0.416,0.416,0,1,0,0,.724,0.674,0.674,0,0,0-.341.687,0.682,0.682,0,0,0,.78-0.138,0.593,0.593,0,0,0,.609.575,0.583,0.583,0,0,0,.268-0.707,0.55,0.55,0,0,0,.774-0.047,0.528,0.528,0,0,0-.269-0.588,0.609,0.609,0,0,0,.359-0.632,0.585,0.585,0,0,0-.655.049A0.4,0.4,0,1,0,209.895,133.434Z" transform="translate(0.085)"/><path class="cls-12" d="M222.589,130.719a0.5,0.5,0,1,0-.82.455,0.416,0.416,0,1,0,0,.724,0.674,0.674,0,0,0-.341.687,0.682,0.682,0,0,0,.78-0.138,0.593,0.593,0,0,0,.609.575,0.583,0.583,0,0,0,.268-0.707,0.55,0.55,0,0,0,.774-0.047,0.528,0.528,0,0,0-.269-0.588,0.609,0.609,0,0,0,.359-0.632,0.585,0.585,0,0,0-.655.049A0.4,0.4,0,1,0,222.589,130.719Z" transform="translate(0.085)"/><path class="cls-12" d="M167.054,130.719a0.5,0.5,0,1,0-.82.455,0.416,0.416,0,1,0,0,.724,0.674,0.674,0,0,0-.341.687,0.682,0.682,0,0,0,.78-0.138,0.593,0.593,0,0,0,.609.575,0.583,0.583,0,0,0,.268-0.707,0.55,0.55,0,0,0,.774-0.047,0.528,0.528,0,0,0-.269-0.588,0.609,0.609,0,0,0,.359-0.632,0.585,0.585,0,0,0-.655.049A0.4,0.4,0,1,0,167.054,130.719Z" transform="translate(0.085)"/><path class="cls-12" d="M117.618,128.753a0.5,0.5,0,1,0-.82.455,0.416,0.416,0,1,0,0,.724,0.674,0.674,0,0,0-.341.687,0.682,0.682,0,0,0,.78-0.138,0.593,0.593,0,0,0,.609.575,0.583,0.583,0,0,0,.268-0.707,0.55,0.55,0,0,0,.774-0.047,0.528,0.528,0,0,0-.269-0.588,0.609,0.609,0,0,0,.359-0.632,0.585,0.585,0,0,0-.655.049A0.4,0.4,0,1,0,117.618,128.753Z" transform="translate(0.085)"/><path class="cls-12" d="M77.447,121.2a0.5,0.5,0,1,0-.82.455,0.416,0.416,0,1,0,0,.724,0.674,0.674,0,0,0-.341.687,0.682,0.682,0,0,0,.78-0.138,0.593,0.593,0,0,0,.609.575,0.583,0.583,0,0,0,.268-0.707,0.55,0.55,0,0,0,.774-0.047,0.528,0.528,0,0,0-.269-0.588,0.609,0.609,0,0,0,.359-0.632,0.585,0.585,0,0,0-.655.049A0.4,0.4,0,1,0,77.447,121.2Z" transform="translate(0.085)"/><path class="cls-12" d="M28.562,128.417a0.5,0.5,0,1,0-.82.455,0.416,0.416,0,1,0,0,.724,0.674,0.674,0,0,0-.341.687,0.682,0.682,0,0,0,.78-0.138,0.593,0.593,0,0,0,.609.575,0.583,0.583,0,0,0,.268-0.707,0.55,0.55,0,0,0,.774-0.047,0.528,0.528,0,0,0-.269-0.588,0.609,0.609,0,0,0,.359-0.632,0.585,0.585,0,0,0-.655.049A0.4,0.4,0,1,0,28.562,128.417Z" transform="translate(0.085)"/><path class="cls-12" d="M5.024,126.605a0.579,0.579,0,0,0-.754-0.357,0.577,0.577,0,0,0-.066.812,0.416,0.416,0,1,0,0,.724,0.674,0.674,0,0,0-.341.687,0.682,0.682,0,0,0,.78-0.138,0.593,0.593,0,0,0,.609.575,0.583,0.583,0,0,0,.268-0.707,0.55,0.55,0,0,0,.774-0.047,0.528,0.528,0,0,0-.269-0.588,0.609,0.609,0,0,0,.359-0.632,0.585,0.585,0,0,0-.655.049A0.4,0.4,0,1,0,5.024,126.605Z" transform="translate(0.085)"/><path class="cls-11" d="M460.744,127.059a0.5,0.5,0,1,0-.82.455,0.416,0.416,0,1,0,0,.724,0.674,0.674,0,0,0-.341.687,0.682,0.682,0,0,0,.78-0.138,0.593,0.593,0,0,0,.609.575,0.583,0.583,0,0,0,.268-0.707,0.55,0.55,0,0,0,.774-0.047,0.528,0.528,0,0,0-.269-0.588,0.609,0.609,0,0,0,.359-0.632,0.585,0.585,0,0,0-.655.049A0.4,0.4,0,1,0,460.744,127.059Z" transform="translate(0.085)"/><path class="cls-11" d="M416.773,127.874a0.5,0.5,0,1,0-.82.455,0.416,0.416,0,1,0,0,.724,0.674,0.674,0,0,0-.341.687,0.682,0.682,0,0,0,.78-0.138,0.593,0.593,0,0,0,.609.575,0.583,0.583,0,0,0,.268-0.707,0.55,0.55,0,0,0,.774-0.047,0.528,0.528,0,0,0-.269-0.588,0.609,0.609,0,0,0,.359-0.632,0.585,0.585,0,0,0-.655.049A0.4,0.4,0,1,0,416.773,127.874Z" transform="translate(0.085)"/><path class="cls-11" d="M391.491,133.311a0.5,0.5,0,1,0-.82.455,0.416,0.416,0,1,0,0,.724,0.674,0.674,0,0,0-.341.687,0.682,0.682,0,0,0,.78-0.138,0.593,0.593,0,0,0,.609.575,0.583,0.583,0,0,0,.268-0.707,0.55,0.55,0,0,0,.774-0.047,0.528,0.528,0,0,0-.269-0.588,0.609,0.609,0,0,0,.359-0.632,0.585,0.585,0,0,0-.655.049A0.4,0.4,0,1,0,391.491,133.311Z" transform="translate(0.085)"/><path class="cls-11" d="M360.5,124.922a0.5,0.5,0,1,0-.82.455,0.416,0.416,0,1,0,0,.724,0.674,0.674,0,0,0-.341.687,0.682,0.682,0,0,0,.78-0.138,0.593,0.593,0,0,0,.609.575,0.583,0.583,0,0,0,.268-0.707,0.55,0.55,0,0,0,.774-0.047,0.528,0.528,0,0,0-.269-0.588,0.609,0.609,0,0,0,.359-0.632,0.585,0.585,0,0,0-.655.049A0.4,0.4,0,1,0,360.5,124.922Z" transform="translate(0.085)"/><path class="cls-11" d="M297.526,128.988a0.5,0.5,0,1,0-.82.455,0.416,0.416,0,1,0,0,.724,0.674,0.674,0,0,0-.341.687,0.682,0.682,0,0,0,.78-0.138,0.593,0.593,0,0,0,.609.575,0.583,0.583,0,0,0,.268-0.707,0.55,0.55,0,0,0,.774-0.047,0.528,0.528,0,0,0-.269-0.588,0.609,0.609,0,0,0,.359-0.632,0.585,0.585,0,0,0-.655.049A0.4,0.4,0,1,0,297.526,128.988Z" transform="translate(0.085)"/><path class="cls-11" d="M203.306,125.7a0.5,0.5,0,1,0-.82.455,0.416,0.416,0,1,0,0,.724,0.674,0.674,0,0,0-.341.687,0.682,0.682,0,0,0,.78-0.138,0.593,0.593,0,0,0,.609.575,0.583,0.583,0,0,0,.268-0.707,0.55,0.55,0,0,0,.774-0.047,0.528,0.528,0,0,0-.269-0.588,0.609,0.609,0,0,0,.359-0.632,0.585,0.585,0,0,0-.655.049A0.4,0.4,0,1,0,203.306,125.7Z" transform="translate(0.085)"/><path class="cls-11" d="M154.987,134.184a0.5,0.5,0,1,0-.82.455,0.416,0.416,0,1,0,0,.724,0.674,0.674,0,0,0-.341.687,0.682,0.682,0,0,0,.78-0.138,0.593,0.593,0,0,0,.609.575,0.583,0.583,0,0,0,.268-0.707,0.55,0.55,0,0,0,.774-0.047,0.528,0.528,0,0,0-.269-0.588,0.609,0.609,0,0,0,.359-0.632,0.585,0.585,0,0,0-.655.049A0.4,0.4,0,1,0,154.987,134.184Z" transform="translate(0.085)"/><path class="cls-11" d="M124.473,131.468a0.5,0.5,0,1,0-.82.455,0.416,0.416,0,1,0,0,.724,0.674,0.674,0,0,0-.341.687,0.682,0.682,0,0,0,.78-0.138,0.593,0.593,0,0,0,.609.575,0.583,0.583,0,0,0,.268-0.707,0.55,0.55,0,0,0,.774-0.047,0.528,0.528,0,0,0-.269-0.588,0.609,0.609,0,0,0,.359-0.632,0.585,0.585,0,0,0-.655.049A0.4,0.4,0,1,0,124.473,131.468Z" transform="translate(0.085)"/><path class="cls-11" d="M32.522,134.048a0.5,0.5,0,1,0-.82.455,0.416,0.416,0,1,0,0,.724,0.674,0.674,0,0,0-.341.687,0.682,0.682,0,0,0,.78-0.138,0.593,0.593,0,0,0,.609.575,0.583,0.583,0,0,0,.268-0.707,0.55,0.55,0,0,0,.774-0.047,0.528,0.528,0,0,0-.269-0.588,0.609,0.609,0,0,0,.359-0.632,0.585,0.585,0,0,0-.655.049A0.4,0.4,0,1,0,32.522,134.048Z" transform="translate(0.085)"/><path class="cls-10" d="M438.4,123.065a0.5,0.5,0,1,0-.82.455,0.416,0.416,0,1,0,0,.724,0.674,0.674,0,0,0-.341.687,0.682,0.682,0,0,0,.78-0.138,0.593,0.593,0,0,0,.609.575,0.583,0.583,0,0,0,.268-0.707,0.55,0.55,0,0,0,.774-0.047,0.528,0.528,0,0,0-.269-0.588,0.609,0.609,0,0,0,.359-0.632,0.585,0.585,0,0,0-.655.049A0.4,0.4,0,1,0,438.4,123.065Z" transform="translate(0.085)"/><path class="cls-10" d="M422.306,132.852a0.5,0.5,0,1,0-.82.455,0.416,0.416,0,1,0,0,.724,0.674,0.674,0,0,0-.341.687,0.682,0.682,0,0,0,.78-0.138,0.593,0.593,0,0,0,.609.575,0.583,0.583,0,0,0,.268-0.707,0.55,0.55,0,0,0,.774-0.047,0.528,0.528,0,0,0-.269-0.588,0.609,0.609,0,0,0,.359-0.632,0.585,0.585,0,0,0-.655.049A0.4,0.4,0,1,0,422.306,132.852Z" transform="translate(0.085)"/><path class="cls-10" d="M395.319,122.206a0.5,0.5,0,1,0-.82.455,0.416,0.416,0,1,0,0,.724,0.674,0.674,0,0,0-.341.687,0.682,0.682,0,0,0,.78-0.138,0.593,0.593,0,0,0,.609.575,0.583,0.583,0,0,0,.268-0.707,0.55,0.55,0,0,0,.774-0.047,0.528,0.528,0,0,0-.269-0.588,0.609,0.609,0,0,0,.359-0.632,0.585,0.585,0,0,0-.655.049A0.4,0.4,0,1,0,395.319,122.206Z" transform="translate(0.085)"/><path class="cls-10" d="M381.139,125.7a0.5,0.5,0,1,0-.82.455,0.416,0.416,0,1,0,0,.724,0.674,0.674,0,0,0-.341.687,0.682,0.682,0,0,0,.78-0.138,0.593,0.593,0,0,0,.609.575,0.583,0.583,0,0,0,.268-0.707,0.55,0.55,0,0,0,.774-0.047,0.528,0.528,0,0,0-.269-0.588,0.609,0.609,0,0,0,.359-0.632,0.585,0.585,0,0,0-.655.049A0.4,0.4,0,1,0,381.139,125.7Z" transform="translate(0.085)"/><path class="cls-10" d="M345.556,132.3a0.5,0.5,0,1,0-.82.455,0.416,0.416,0,1,0,0,.724,0.674,0.674,0,0,0-.341.687,0.682,0.682,0,0,0,.78-0.138,0.593,0.593,0,0,0,.609.575,0.583,0.583,0,0,0,.268-0.707,0.55,0.55,0,0,0,.774-0.047,0.528,0.528,0,0,0-.269-0.588,0.609,0.609,0,0,0,.359-0.632,0.585,0.585,0,0,0-.655.049A0.4,0.4,0,1,0,345.556,132.3Z" transform="translate(0.085)"/><path class="cls-10" d="M305.54,123.564a0.5,0.5,0,1,0-.82.455,0.416,0.416,0,1,0,0,.724,0.674,0.674,0,0,0-.341.687,0.682,0.682,0,0,0,.78-0.138,0.593,0.593,0,0,0,.609.575,0.583,0.583,0,0,0,.268-0.707,0.55,0.55,0,0,0,.774-0.047,0.528,0.528,0,0,0-.269-0.588,0.609,0.609,0,0,0,.359-0.632,0.585,0.585,0,0,0-.655.049A0.4,0.4,0,1,0,305.54,123.564Z" transform="translate(0.085)"/><path class="cls-10" d="M276.689,130.115a0.5,0.5,0,1,0-.82.455,0.416,0.416,0,1,0,0,.724,0.674,0.674,0,0,0-.341.687,0.682,0.682,0,0,0,.78-0.138,0.593,0.593,0,0,0,.609.575,0.583,0.583,0,0,0,.268-0.707,0.55,0.55,0,0,0,.774-0.047,0.528,0.528,0,0,0-.269-0.588,0.609,0.609,0,0,0,.359-0.632,0.585,0.585,0,0,0-.655.049A0.4,0.4,0,1,0,276.689,130.115Z" transform="translate(0.085)"/><path class="cls-10" d="M233.771,126.279a0.5,0.5,0,1,0-.82.455,0.416,0.416,0,1,0,0,.724,0.674,0.674,0,0,0-.341.687,0.682,0.682,0,0,0,.78-0.138,0.593,0.593,0,0,0,.609.575,0.583,0.583,0,0,0,.268-0.707,0.55,0.55,0,0,0,.774-0.047,0.528,0.528,0,0,0-.269-0.588,0.609,0.609,0,0,0,.359-0.632,0.585,0.585,0,0,0-.655.049A0.4,0.4,0,1,0,233.771,126.279Z" transform="translate(0.085)"/><path class="cls-10" d="M194.474,128.757a0.5,0.5,0,1,0-.82.455,0.416,0.416,0,1,0,0,.724,0.674,0.674,0,0,0-.341.687,0.682,0.682,0,0,0,.78-0.138,0.593,0.593,0,0,0,.609.575,0.583,0.583,0,0,0,.268-0.707,0.55,0.55,0,0,0,.774-0.047,0.528,0.528,0,0,0-.269-0.588,0.609,0.609,0,0,0,.359-0.632,0.585,0.585,0,0,0-.655.049A0.4,0.4,0,1,0,194.474,128.757Z" transform="translate(0.085)"/><path class="cls-10" d="M164.466,125.7a0.5,0.5,0,1,0-.82.455,0.416,0.416,0,1,0,0,.724,0.674,0.674,0,0,0-.341.687,0.682,0.682,0,0,0,.78-0.138,0.593,0.593,0,0,0,.609.575,0.583,0.583,0,0,0,.268-0.707,0.55,0.55,0,0,0,.774-0.047,0.528,0.528,0,0,0-.269-0.588,0.609,0.609,0,0,0,.359-0.632,0.585,0.585,0,0,0-.655.049A0.4,0.4,0,1,0,164.466,125.7Z" transform="translate(0.085)"/><path class="cls-10" d="M134.685,127.059a0.5,0.5,0,1,0-.82.455,0.416,0.416,0,1,0,0,.724,0.674,0.674,0,0,0-.341.687,0.682,0.682,0,0,0,.78-0.138,0.593,0.593,0,0,0,.609.575,0.583,0.583,0,0,0,.268-0.707,0.55,0.55,0,0,0,.774-0.047,0.528,0.528,0,0,0-.269-0.588,0.609,0.609,0,0,0,.359-0.632,0.585,0.585,0,0,0-.655.049A0.4,0.4,0,1,0,134.685,127.059Z" transform="translate(0.085)"/><path class="cls-10" d="M119.029,122.986a0.5,0.5,0,1,0-.82.455,0.416,0.416,0,1,0,0,.724,0.674,0.674,0,0,0-.341.687,0.682,0.682,0,0,0,.78-0.138,0.593,0.593,0,0,0,.609.575,0.583,0.583,0,0,0,.268-0.707,0.55,0.55,0,0,0,.774-0.047,0.528,0.528,0,0,0-.269-0.588,0.609,0.609,0,0,0,.359-0.632,0.585,0.585,0,0,0-.655.049A0.4,0.4,0,1,0,119.029,122.986Z" transform="translate(0.085)"/><path class="cls-10" d="M89.476,129.165a0.5,0.5,0,1,0-.82.455,0.416,0.416,0,1,0,0,.724,0.674,0.674,0,0,0-.341.687,0.682,0.682,0,0,0,.78-0.138,0.593,0.593,0,0,0,.609.575,0.583,0.583,0,0,0,.268-0.707,0.55,0.55,0,0,0,.774-0.047,0.528,0.528,0,0,0-.269-0.588,0.609,0.609,0,0,0,.359-0.632,0.585,0.585,0,0,0-.655.049A0.4,0.4,0,1,0,89.476,129.165Z" transform="translate(0.085)"/><path class="cls-10" d="M48.629,125.7a0.5,0.5,0,1,0-.82.455,0.416,0.416,0,1,0,0,.724,0.674,0.674,0,0,0-.341.687,0.682,0.682,0,0,0,.78-0.138,0.593,0.593,0,0,0,.609.575,0.583,0.583,0,0,0,.268-0.707,0.55,0.55,0,0,0,.774-0.047,0.528,0.528,0,0,0-.269-0.588,0.609,0.609,0,0,0,.359-0.632,0.585,0.585,0,0,0-.655.049A0.4,0.4,0,1,0,48.629,125.7Z" transform="translate(0.085)"/><path class="cls-10" d="M43.921,127.059a0.5,0.5,0,1,0-.82.455,0.416,0.416,0,1,0,0,.724,0.674,0.674,0,0,0-.341.687,0.682,0.682,0,0,0,.78-0.138,0.593,0.593,0,0,0,.609.575,0.583,0.583,0,0,0,.268-0.707,0.55,0.55,0,0,0,.774-0.047,0.528,0.528,0,0,0-.269-0.588,0.609,0.609,0,0,0,.359-0.632,0.585,0.585,0,0,0-.655.049A0.4,0.4,0,1,0,43.921,127.059Z" transform="translate(0.085)"/><path class="cls-10" d="M11.031,134.454a0.579,0.579,0,0,0-.754-0.357,0.577,0.577,0,0,0-.066.812,0.416,0.416,0,1,0,0,.724,0.674,0.674,0,0,0-.341.687,0.682,0.682,0,0,0,.78-0.138,0.593,0.593,0,0,0,.609.575,0.583,0.583,0,0,0,.268-0.707A0.55,0.55,0,0,0,12.3,136a0.528,0.528,0,0,0-.269-0.588,0.609,0.609,0,0,0,.359-0.632,0.585,0.585,0,0,0-.655.049A0.4,0.4,0,1,0,11.031,134.454Z" transform="translate(0.085)"/><path id="Buisson-2" data-name="Buisson" class="cls-9" d="M1081.275,127.619a19.543,19.543,0,0,0-13.82-6.692,19.743,19.743,0,0,0-15.094,6.694,6.157,6.157,0,0,0-12.272,0c-1.907-4.639-5.971-6.352-8.069-5.3-1.481.746-2.193,2.976-2.11,5.3a26.426,26.426,0,0,0-15.783-8.794c-13.384-1.966-22.694,7.9-23.508,8.8a15.8,15.8,0,0,0-9.471-4.249,16.18,16.18,0,0,0-11.953,4.251,16.668,16.668,0,0,0-11.554-6.35c-8.454-.658-13.69,5.84-14.089,6.352-0.35-.4-5.513-6.122-12.927-4.953a14.119,14.119,0,0,0-8.5,4.954c-3.205-1.985-7.139-4.029-8.342-2.854-0.387.378-.573,1.169-0.029,2.854a10.149,10.149,0,0,0-7.339-4.6,9.833,9.833,0,0,0-9.122,4.6,7.454,7.454,0,0,0-6.315-6.354,7.533,7.533,0,0,0-8.069,6.355,29.716,29.716,0,0,0-13.332-4.956,30.632,30.632,0,0,0-19.979,4.958,7.977,7.977,0,0,0-14.462,0,45.279,45.279,0,0,0-39.9,0c-2.746-8.327-10.843-12.256-16.654-10.17-3.9,1.4-6.659,5.46-7.424,10.172-0.3-.387-4.527-5.676-11.332-5.107a13.274,13.274,0,0,0-9.165,5.108c-0.565-4.346-4.486-6.71-7.246-5.888-2.047.61-3.638,3.029-3.643,5.889a38.809,38.809,0,0,0-19.8-7.447,39.418,39.418,0,0,0-25.4,7.013,15.738,15.738,0,0,0-26.18.39,8.574,8.574,0,0,0-13.286,2.728c-1.135-1.155-10.148-10.022-23.445-8.572a28.793,28.793,0,0,0-17.975,9.351,15.837,15.837,0,0,0-8.6-7.4c-6.372-2.076-13.982.671-18.756,7.013-2.877-5.189-9.386-6.23-12.895-3.507-3.4,2.642-4.086,8.9-.089,13.024h507.923V127.619Z" transform="translate(0.085)"/><path class="cls-10" d="M601.832,128.908a0.5,0.5,0,1,1,.82.455,0.416,0.416,0,1,1,0,.724,0.674,0.674,0,0,1,.341.687,0.682,0.682,0,0,1-.78-0.138,0.593,0.593,0,0,1-.609.575,0.583,0.583,0,0,1-.268-0.707,0.55,0.55,0,0,1-.774-0.047,0.528,0.528,0,0,1,.269-0.588,0.609,0.609,0,0,1-.359-0.632,0.585,0.585,0,0,1,.655.049A0.4,0.4,0,1,1,601.832,128.908Z" transform="translate(0.085)"/><path class="cls-11" d="M592.725,133.461a0.5,0.5,0,1,1,.82.455,0.416,0.416,0,1,1,0,.724,0.674,0.674,0,0,1,.341.687,0.682,0.682,0,0,1-.78-0.138,0.593,0.593,0,0,1-.609.575,0.583,0.583,0,0,1-.268-0.707,0.55,0.55,0,0,1-.774-0.047,0.528,0.528,0,0,1,.269-0.588,0.609,0.609,0,0,1-.359-0.632,0.585,0.585,0,0,1,.655.049A0.4,0.4,0,1,1,592.725,133.461Z" transform="translate(0.085)"/><path class="cls-12" d="M576.737,127.279a0.5,0.5,0,1,1,.82.455,0.416,0.416,0,1,1,0,.724,0.674,0.674,0,0,1,.341.687,0.682,0.682,0,0,1-.78-0.138,0.593,0.593,0,0,1-.609.575,0.583,0.583,0,0,1-.268-0.707,0.55,0.55,0,0,1-.774-0.047,0.528,0.528,0,0,1,.269-0.588,0.609,0.609,0,0,1-.359-0.632,0.585,0.585,0,0,1,.655.049A0.4,0.4,0,1,1,576.737,127.279Z" transform="translate(0.085)"/><path class="cls-12" d="M633.545,132.1a0.5,0.5,0,1,1,.82.455,0.416,0.416,0,1,1,0,.724,0.674,0.674,0,0,1,.341.687,0.682,0.682,0,0,1-.78-0.138,0.593,0.593,0,0,1-.609.575,0.583,0.583,0,0,1-.268-0.707,0.55,0.55,0,0,1-.774-0.047,0.528,0.528,0,0,1,.269-0.588,0.609,0.609,0,0,1-.359-0.632,0.585,0.585,0,0,1,.655.049A0.4,0.4,0,1,1,633.545,132.1Z" transform="translate(0.085)"/><path class="cls-12" d="M668.351,134.43a0.5,0.5,0,1,1,.82.455,0.416,0.416,0,1,1,0,.724,0.674,0.674,0,0,1,.341.687,0.682,0.682,0,0,1-.78-0.138,0.593,0.593,0,0,1-.609.575,0.583,0.583,0,0,1-.268-0.707,0.55,0.55,0,0,1-.774-0.047,0.528,0.528,0,0,1,.269-0.588,0.609,0.609,0,0,1-.359-0.632,0.585,0.585,0,0,1,.655.049A0.4,0.4,0,1,1,668.351,134.43Z" transform="translate(0.085)"/><path class="cls-12" d="M731.426,124.564a0.5,0.5,0,1,1,.82.455,0.416,0.416,0,1,1,0,.724,0.674,0.674,0,0,1,.341.687,0.682,0.682,0,0,1-.78-0.138,0.593,0.593,0,0,1-.609.575,0.583,0.583,0,0,1-.268-0.707,0.55,0.55,0,0,1-.774-0.047,0.528,0.528,0,0,1,.269-0.588,0.609,0.609,0,0,1-.359-0.632,0.585,0.585,0,0,1,.655.049A0.4,0.4,0,1,1,731.426,124.564Z" transform="translate(0.085)"/><path class="cls-12" d="M753.977,128.978a0.5,0.5,0,1,1,.82.455,0.416,0.416,0,1,1,0,.724,0.674,0.674,0,0,1,.341.687,0.682,0.682,0,0,1-.78-0.138,0.593,0.593,0,0,1-.609.575,0.583,0.583,0,0,1-.268-0.707,0.55,0.55,0,0,1-.774-0.047,0.528,0.528,0,0,1,.269-0.588,0.609,0.609,0,0,1-.359-0.632,0.585,0.585,0,0,1,.655.049A0.4,0.4,0,1,1,753.977,128.978Z" transform="translate(0.085)"/><path class="cls-12" d="M823.77,124.564a0.5,0.5,0,1,1,.82.455,0.416,0.416,0,1,1,0,.724,0.674,0.674,0,0,1,.341.687,0.682,0.682,0,0,1-.78-0.138,0.593,0.593,0,0,1-.609.575,0.583,0.583,0,0,1-.268-0.707,0.55,0.55,0,0,1-.774-0.047,0.528,0.528,0,0,1,.269-0.588,0.609,0.609,0,0,1-.359-0.632,0.585,0.585,0,0,1,.655.049A0.4,0.4,0,1,1,823.77,124.564Z" transform="translate(0.085)"/><path class="cls-12" d="M869.909,133.655a0.5,0.5,0,1,1,.82.455,0.416,0.416,0,1,1,0,.724,0.674,0.674,0,0,1,.341.687,0.682,0.682,0,0,1-.78-0.138,0.593,0.593,0,0,1-.609.575,0.583,0.583,0,0,1-.268-0.707,0.55,0.55,0,0,1-.774-0.047,0.528,0.528,0,0,1,.269-0.588,0.609,0.609,0,0,1-.359-0.632,0.585,0.585,0,0,1,.655.049A0.4,0.4,0,1,1,869.909,133.655Z" transform="translate(0.085)"/><path class="cls-12" d="M857.215,130.94a0.5,0.5,0,1,1,.82.455,0.416,0.416,0,1,1,0,.724,0.674,0.674,0,0,1,.341.687,0.682,0.682,0,0,1-.78-0.138,0.593,0.593,0,0,1-.609.575,0.583,0.583,0,0,1-.268-0.707,0.55,0.55,0,0,1-.774-0.047,0.528,0.528,0,0,1,.269-0.588,0.609,0.609,0,0,1-.359-0.632,0.585,0.585,0,0,1,.655.049A0.4,0.4,0,1,1,857.215,130.94Z" transform="translate(0.085)"/><path class="cls-12" d="M912.75,130.94a0.5,0.5,0,1,1,.82.455,0.416,0.416,0,1,1,0,.724,0.674,0.674,0,0,1,.341.687,0.682,0.682,0,0,1-.78-0.138,0.593,0.593,0,0,1-.609.575,0.583,0.583,0,0,1-.268-0.707,0.55,0.55,0,0,1-.774-0.047,0.528,0.528,0,0,1,.269-0.588,0.609,0.609,0,0,1-.359-0.632,0.585,0.585,0,0,1,.655.049A0.4,0.4,0,1,1,912.75,130.94Z" transform="translate(0.085)"/><path class="cls-12" d="M962.186,128.973a0.5,0.5,0,1,1,.82.455,0.416,0.416,0,1,1,0,.724,0.674,0.674,0,0,1,.341.687,0.682,0.682,0,0,1-.78-0.138,0.593,0.593,0,0,1-.609.575,0.583,0.583,0,0,1-.268-0.707,0.55,0.55,0,0,1-.774-0.047,0.528,0.528,0,0,1,.269-0.588,0.609,0.609,0,0,1-.359-0.632,0.585,0.585,0,0,1,.655.049A0.4,0.4,0,1,1,962.186,128.973Z" transform="translate(0.085)"/><path class="cls-12" d="M1002.356,121.421a0.5,0.5,0,1,1,.82.455,0.416,0.416,0,1,1,0,.724,0.674,0.674,0,0,1,.341.687,0.682,0.682,0,0,1-.78-0.138,0.593,0.593,0,0,1-.609.575,0.583,0.583,0,0,1-.268-0.707,0.55,0.55,0,0,1-.774-0.047,0.528,0.528,0,0,1,.269-0.588,0.609,0.609,0,0,1-.359-0.632,0.585,0.585,0,0,1,.655.049A0.4,0.4,0,1,1,1002.356,121.421Z" transform="translate(0.085)"/><path class="cls-12" d="M1051.242,128.637a0.5,0.5,0,1,1,.82.455,0.416,0.416,0,1,1,0,.724,0.674,0.674,0,0,1,.341.687,0.682,0.682,0,0,1-.78-0.138,0.593,0.593,0,0,1-.609.575,0.583,0.583,0,0,1-.268-0.707,0.55,0.55,0,0,1-.774-0.047,0.528,0.528,0,0,1,.269-0.588,0.609,0.609,0,0,1-.359-0.632,0.585,0.585,0,0,1,.655.049A0.4,0.4,0,1,1,1051.242,128.637Z" transform="translate(0.085)"/><path class="cls-12" d="M1074.779,126.826a0.5,0.5,0,1,1,.82.455,0.416,0.416,0,1,1,0,.724,0.674,0.674,0,0,1,.341.687,0.682,0.682,0,0,1-.78-0.138,0.593,0.593,0,0,1-.609.575,0.583,0.583,0,0,1-.268-0.707,0.55,0.55,0,0,1-.774-0.047,0.528,0.528,0,0,1,.269-0.588,0.609,0.609,0,0,1-.359-0.632,0.585,0.585,0,0,1,.655.049A0.4,0.4,0,1,1,1074.779,126.826Z" transform="translate(0.085)"/><path class="cls-11" d="M619.06,127.279a0.5,0.5,0,1,1,.82.455,0.416,0.416,0,1,1,0,.724,0.674,0.674,0,0,1,.341.687,0.682,0.682,0,0,1-.78-0.138,0.593,0.593,0,0,1-.609.575,0.583,0.583,0,0,1-.268-0.707,0.55,0.55,0,0,1-.774-0.047,0.528,0.528,0,0,1,.269-0.588,0.609,0.609,0,0,1-.359-0.632,0.585,0.585,0,0,1,.655.049A0.4,0.4,0,1,1,619.06,127.279Z" transform="translate(0.085)"/><path class="cls-11" d="M663.031,128.095a0.5,0.5,0,1,1,.82.455,0.416,0.416,0,1,1,0,.724,0.674,0.674,0,0,1,.341.687,0.682,0.682,0,0,1-.78-0.138,0.593,0.593,0,0,1-.609.575,0.583,0.583,0,0,1-.268-0.707,0.55,0.55,0,0,1-.774-0.047,0.528,0.528,0,0,1,.269-0.588,0.609,0.609,0,0,1-.359-0.632,0.585,0.585,0,0,1,.655.049A0.4,0.4,0,1,1,663.031,128.095Z" transform="translate(0.085)"/><path class="cls-11" d="M688.312,133.532a0.5,0.5,0,1,1,.82.455,0.416,0.416,0,1,1,0,.724,0.674,0.674,0,0,1,.341.687,0.682,0.682,0,0,1-.78-0.138,0.593,0.593,0,0,1-.609.575,0.583,0.583,0,0,1-.268-0.707,0.55,0.55,0,0,1-.774-0.047,0.528,0.528,0,0,1,.269-0.588,0.609,0.609,0,0,1-.359-0.632,0.585,0.585,0,0,1,.655.049A0.4,0.4,0,1,1,688.312,133.532Z" transform="translate(0.085)"/><path class="cls-11" d="M719.3,125.142a0.5,0.5,0,1,1,.82.455,0.416,0.416,0,1,1,0,.724,0.674,0.674,0,0,1,.341.687,0.682,0.682,0,0,1-.78-0.138,0.593,0.593,0,0,1-.609.575,0.583,0.583,0,0,1-.268-0.707,0.55,0.55,0,0,1-.774-0.047,0.528,0.528,0,0,1,.269-0.588,0.609,0.609,0,0,1-.359-0.632,0.585,0.585,0,0,1,.655.049A0.4,0.4,0,1,1,719.3,125.142Z" transform="translate(0.085)"/><path class="cls-11" d="M782.277,129.208a0.5,0.5,0,1,1,.82.455,0.416,0.416,0,1,1,0,.724,0.674,0.674,0,0,1,.341.687,0.682,0.682,0,0,1-.78-0.138,0.593,0.593,0,0,1-.609.575,0.583,0.583,0,0,1-.268-0.707,0.55,0.55,0,0,1-.774-0.047,0.528,0.528,0,0,1,.269-0.588,0.609,0.609,0,0,1-.359-0.632,0.585,0.585,0,0,1,.655.049A0.4,0.4,0,1,1,782.277,129.208Z" transform="translate(0.085)"/><path class="cls-11" d="M876.5,125.922a0.5,0.5,0,1,1,.82.455,0.416,0.416,0,1,1,0,.724,0.674,0.674,0,0,1,.341.687,0.682,0.682,0,0,1-.78-0.138,0.593,0.593,0,0,1-.609.575,0.583,0.583,0,0,1-.268-0.707,0.55,0.55,0,0,1-.774-0.047,0.528,0.528,0,0,1,.269-0.588,0.609,0.609,0,0,1-.359-0.632,0.585,0.585,0,0,1,.655.049A0.4,0.4,0,1,1,876.5,125.922Z" transform="translate(0.085)"/><path class="cls-11" d="M924.816,134.4a0.5,0.5,0,1,1,.82.455,0.416,0.416,0,1,1,0,.724,0.674,0.674,0,0,1,.341.687,0.682,0.682,0,0,1-.78-0.138,0.593,0.593,0,0,1-.609.575A0.583,0.583,0,0,1,924.32,136a0.55,0.55,0,0,1-.774-0.047,0.528,0.528,0,0,1,.269-0.588,0.609,0.609,0,0,1-.359-0.632,0.585,0.585,0,0,1,.655.049A0.4,0.4,0,1,1,924.816,134.4Z" transform="translate(0.085)"/><path class="cls-11" d="M955.331,131.689a0.5,0.5,0,1,1,.82.455,0.416,0.416,0,1,1,0,.724,0.674,0.674,0,0,1,.341.687,0.682,0.682,0,0,1-.78-0.138,0.593,0.593,0,0,1-.609.575,0.583,0.583,0,0,1-.268-0.707,0.55,0.55,0,0,1-.774-0.047,0.528,0.528,0,0,1,.269-0.588,0.609,0.609,0,0,1-.359-0.632,0.585,0.585,0,0,1,.655.049A0.4,0.4,0,1,1,955.331,131.689Z" transform="translate(0.085)"/><path class="cls-11" d="M1047.282,134.268a0.5,0.5,0,1,1,.82.455,0.416,0.416,0,1,1,0,.724,0.674,0.674,0,0,1,.341.687,0.682,0.682,0,0,1-.78-0.138,0.593,0.593,0,0,1-.609.575,0.583,0.583,0,0,1-.268-0.707,0.55,0.55,0,0,1-.774-0.047,0.528,0.528,0,0,1,.269-0.588,0.609,0.609,0,0,1-.359-0.632,0.585,0.585,0,0,1,.655.049A0.4,0.4,0,1,1,1047.282,134.268Z" transform="translate(0.085)"/><path class="cls-10" d="M641.4,123.286a0.5,0.5,0,1,1,.82.455,0.416,0.416,0,1,1,0,.724,0.674,0.674,0,0,1,.341.687,0.682,0.682,0,0,1-.78-0.138,0.593,0.593,0,0,1-.609.575,0.583,0.583,0,0,1-.268-0.707,0.55,0.55,0,0,1-.774-0.047,0.528,0.528,0,0,1,.269-0.588,0.609,0.609,0,0,1-.359-0.632,0.585,0.585,0,0,1,.655.049A0.4,0.4,0,1,1,641.4,123.286Z" transform="translate(0.085)"/><path class="cls-10" d="M657.5,133.073a0.5,0.5,0,1,1,.82.455,0.416,0.416,0,1,1,0,.724,0.674,0.674,0,0,1,.341.687,0.682,0.682,0,0,1-.78-0.138,0.593,0.593,0,0,1-.609.575,0.583,0.583,0,0,1-.268-0.707,0.55,0.55,0,0,1-.774-0.047,0.528,0.528,0,0,1,.269-0.588,0.609,0.609,0,0,1-.359-0.632,0.585,0.585,0,0,1,.655.049A0.4,0.4,0,1,1,657.5,133.073Z" transform="translate(0.085)"/><path class="cls-10" d="M684.484,122.427a0.5,0.5,0,1,1,.82.455,0.416,0.416,0,1,1,0,.724,0.674,0.674,0,0,1,.341.687,0.682,0.682,0,0,1-.78-0.138,0.593,0.593,0,0,1-.609.575,0.583,0.583,0,0,1-.268-0.707,0.55,0.55,0,0,1-.774-0.047,0.528,0.528,0,0,1,.269-0.588,0.609,0.609,0,0,1-.359-0.632,0.585,0.585,0,0,1,.655.049A0.4,0.4,0,1,1,684.484,122.427Z" transform="translate(0.085)"/><path class="cls-10" d="M698.664,125.922a0.5,0.5,0,1,1,.82.455,0.416,0.416,0,1,1,0,.724,0.674,0.674,0,0,1,.341.687,0.682,0.682,0,0,1-.78-0.138,0.593,0.593,0,0,1-.609.575,0.583,0.583,0,0,1-.268-0.707,0.55,0.55,0,0,1-.774-0.047,0.528,0.528,0,0,1,.269-0.588,0.609,0.609,0,0,1-.359-0.632,0.585,0.585,0,0,1,.655.049A0.4,0.4,0,1,1,698.664,125.922Z" transform="translate(0.085)"/><path class="cls-10" d="M734.247,132.525a0.5,0.5,0,1,1,.82.455,0.416,0.416,0,1,1,0,.724,0.674,0.674,0,0,1,.341.687,0.682,0.682,0,0,1-.78-0.138,0.593,0.593,0,0,1-.609.575,0.583,0.583,0,0,1-.268-0.707,0.55,0.55,0,0,1-.774-0.047,0.528,0.528,0,0,1,.269-0.588,0.609,0.609,0,0,1-.359-0.632,0.585,0.585,0,0,1,.655.049A0.4,0.4,0,1,1,734.247,132.525Z" transform="translate(0.085)"/><path class="cls-10" d="M774.263,123.784a0.5,0.5,0,1,1,.82.455,0.416,0.416,0,1,1,0,.724,0.674,0.674,0,0,1,.341.687,0.682,0.682,0,0,1-.78-0.138,0.593,0.593,0,0,1-.609.575,0.583,0.583,0,0,1-.268-0.707,0.55,0.55,0,0,1-.774-0.047,0.528,0.528,0,0,1,.269-0.588,0.609,0.609,0,0,1-.359-0.632,0.585,0.585,0,0,1,.655.049A0.4,0.4,0,1,1,774.263,123.784Z" transform="translate(0.085)"/><path class="cls-10" d="M803.114,130.335a0.5,0.5,0,1,1,.82.455,0.416,0.416,0,1,1,0,.724,0.674,0.674,0,0,1,.341.687,0.682,0.682,0,0,1-.78-0.138,0.593,0.593,0,0,1-.609.575,0.583,0.583,0,0,1-.268-0.707,0.55,0.55,0,0,1-.774-0.047,0.528,0.528,0,0,1,.269-0.588,0.609,0.609,0,0,1-.359-0.632,0.585,0.585,0,0,1,.655.049A0.4,0.4,0,1,1,803.114,130.335Z" transform="translate(0.085)"/><path class="cls-10" d="M846.033,126.5a0.5,0.5,0,1,1,.82.455,0.416,0.416,0,1,1,0,.724,0.674,0.674,0,0,1,.341.687,0.682,0.682,0,0,1-.78-0.138,0.593,0.593,0,0,1-.609.575,0.583,0.583,0,0,1-.268-0.707,0.55,0.55,0,0,1-.774-0.047,0.528,0.528,0,0,1,.269-0.588,0.609,0.609,0,0,1-.359-0.632,0.585,0.585,0,0,1,.655.049A0.4,0.4,0,1,1,846.033,126.5Z" transform="translate(0.085)"/><path class="cls-10" d="M885.33,128.978a0.5,0.5,0,1,1,.82.455,0.416,0.416,0,1,1,0,.724,0.674,0.674,0,0,1,.341.687,0.682,0.682,0,0,1-.78-0.138,0.593,0.593,0,0,1-.609.575,0.583,0.583,0,0,1-.268-0.707,0.55,0.55,0,0,1-.774-0.047,0.528,0.528,0,0,1,.269-0.588,0.609,0.609,0,0,1-.359-0.632,0.585,0.585,0,0,1,.655.049A0.4,0.4,0,1,1,885.33,128.978Z" transform="translate(0.085)"/><path class="cls-10" d="M915.338,125.922a0.5,0.5,0,1,1,.82.455,0.416,0.416,0,1,1,0,.724,0.674,0.674,0,0,1,.341.687,0.682,0.682,0,0,1-.78-0.138,0.593,0.593,0,0,1-.609.575,0.583,0.583,0,0,1-.268-0.707,0.55,0.55,0,0,1-.774-0.047,0.528,0.528,0,0,1,.269-0.588,0.609,0.609,0,0,1-.359-0.632,0.585,0.585,0,0,1,.655.049A0.4,0.4,0,1,1,915.338,125.922Z" transform="translate(0.085)"/><path class="cls-10" d="M945.118,127.279a0.5,0.5,0,1,1,.82.455,0.416,0.416,0,1,1,0,.724,0.674,0.674,0,0,1,.341.687,0.682,0.682,0,0,1-.78-0.138,0.593,0.593,0,0,1-.609.575,0.583,0.583,0,0,1-.268-0.707,0.55,0.55,0,0,1-.774-0.047,0.528,0.528,0,0,1,.269-0.588,0.609,0.609,0,0,1-.359-0.632,0.585,0.585,0,0,1,.655.049A0.4,0.4,0,1,1,945.118,127.279Z" transform="translate(0.085)"/><path class="cls-10" d="M960.775,123.206a0.5,0.5,0,1,1,.82.455,0.416,0.416,0,1,1,0,.724,0.674,0.674,0,0,1,.341.687,0.682,0.682,0,0,1-.78-0.138,0.593,0.593,0,0,1-.609.575,0.583,0.583,0,0,1-.268-0.707,0.55,0.55,0,0,1-.774-0.047,0.528,0.528,0,0,1,.269-0.588,0.609,0.609,0,0,1-.359-0.632,0.585,0.585,0,0,1,.655.049A0.4,0.4,0,1,1,960.775,123.206Z" transform="translate(0.085)"/><path class="cls-10" d="M990.328,129.385a0.5,0.5,0,1,1,.82.455,0.416,0.416,0,1,1,0,.724,0.674,0.674,0,0,1,.341.687,0.682,0.682,0,0,1-.78-0.138,0.593,0.593,0,0,1-.609.575,0.583,0.583,0,0,1-.268-0.707,0.55,0.55,0,0,1-.774-0.047,0.528,0.528,0,0,1,.269-0.588,0.609,0.609,0,0,1-.359-0.632,0.585,0.585,0,0,1,.655.049A0.4,0.4,0,1,1,990.328,129.385Z" transform="translate(0.085)"/><path class="cls-10" d="M1031.175,125.922a0.5,0.5,0,1,1,.82.455,0.416,0.416,0,1,1,0,.724,0.674,0.674,0,0,1,.341.687,0.682,0.682,0,0,1-.78-0.138,0.593,0.593,0,0,1-.609.575,0.583,0.583,0,0,1-.268-0.707,0.55,0.55,0,0,1-.774-0.047,0.528,0.528,0,0,1,.269-0.588,0.609,0.609,0,0,1-.359-0.632,0.585,0.585,0,0,1,.655.049A0.4,0.4,0,1,1,1031.175,125.922Z" transform="translate(0.085)"/><path class="cls-10" d="M1035.883,127.279a0.5,0.5,0,1,1,.82.455,0.416,0.416,0,1,1,0,.724,0.674,0.674,0,0,1,.341.687,0.682,0.682,0,0,1-.78-0.138,0.593,0.593,0,0,1-.609.575,0.583,0.583,0,0,1-.268-0.707,0.55,0.55,0,0,1-.774-0.047,0.528,0.528,0,0,1,.269-0.588,0.609,0.609,0,0,1-.359-0.632,0.585,0.585,0,0,1,.655.049A0.4,0.4,0,1,1,1035.883,127.279Z" transform="translate(0.085)"/><path class="cls-10" d="M1068.772,134.675a0.5,0.5,0,1,1,.82.455,0.416,0.416,0,1,1,0,.724,0.674,0.674,0,0,1,.341.687,0.682,0.682,0,0,1-.78-0.138,0.593,0.593,0,0,1-.609.575,0.583,0.583,0,0,1-.268-0.707,0.55,0.55,0,0,1-.774-0.047,0.528,0.528,0,0,1,.269-0.588,0.609,0.609,0,0,1-.359-0.632,0.585,0.585,0,0,1,.655.049A0.4,0.4,0,1,1,1068.772,134.675Z" transform="translate(0.085)"/><path class="cls-8" d="M182.9,27.849" transform="translate(0.085)"/><rect class="cls-13" x="185.987" y="26.849" width="41.068" height="70.867"/><path class="cls-14" d="M189.111,86.011l30.877-.8-0.072,4.863-30.864.665Z" transform="translate(0.085)"/><path class="cls-14" d="M191.04,33.481l30.882-.6-0.1,4.862-30.867.463Z" transform="translate(0.085)"/><path class="cls-14" d="M189.52,86.368l27.643-52.163,4.2,2.455L193.617,88.737Z" transform="translate(0.085)"/><line class="cls-15" x1="185.363" y1="34.205" x2="185.363" y2="38.212"/><line class="cls-15" x1="185.363" y1="86.734" x2="185.363" y2="90.74"/><rect class="cls-13" x="57.247" y="27.482" width="41.068" height="70.867"/><path class="cls-14" d="M95.022,86.643l-30.877-.8,0.072,4.863L95.08,91.374Z" transform="translate(0.085)"/><path class="cls-14" d="M93.093,34.114l-30.882-.6,0.1,4.862,30.867,0.463Z" transform="translate(0.085)"/><path class="cls-14" d="M94.613,87L66.97,34.838l-4.2,2.455L90.517,89.37Z" transform="translate(0.085)"/><line class="cls-15" x1="98.939" y1="34.838" x2="98.939" y2="38.845"/><line class="cls-15" x1="98.939" y1="87.366" x2="98.939" y2="91.373"/><polygon class="cls-6" points="430.212 95.955 349.022 95.955 349.022 27.721 389.617 27.721 430.212 27.721 430.212 95.955"/><path class="cls-7" d="M389.532,61.838h0Z" transform="translate(0.085)"/><polyline class="cls-7" points="389.617 61.838 349.022 61.838 389.617 61.838 389.617 95.955"/><line class="cls-8" x1="389.617" y1="27.721" x2="389.617" y2="61.838"/><rect class="cls-13" x="433.212" y="26.721" width="41.068" height="70.867"/><path class="cls-14" d="M436.336,85.883l30.877-.8-0.072,4.863-30.864.665Z" transform="translate(0.085)"/><path class="cls-14" d="M438.265,33.353l30.882-.6-0.1,4.862-30.867.463Z" transform="translate(0.085)"/><path class="cls-14" d="M436.745,86.24l27.643-52.163,4.2,2.455L440.841,88.609Z" transform="translate(0.085)"/><line class="cls-15" x1="432.588" y1="34.077" x2="432.588" y2="38.084"/><line class="cls-15" x1="432.588" y1="86.606" x2="432.588" y2="90.612"/><rect class="cls-13" x="304.472" y="27.354" width="41.068" height="70.867"/><path class="cls-14" d="M342.247,86.515l-30.877-.8,0.072,4.863L342.3,91.246Z" transform="translate(0.085)"/><path class="cls-14" d="M340.318,33.986l-30.882-.6,0.1,4.862,30.867,0.463Z" transform="translate(0.085)"/><path class="cls-14" d="M341.838,86.873L314.195,34.71l-4.2,2.455,27.747,52.077Z" transform="translate(0.085)"/><line class="cls-15" x1="346.164" y1="34.71" x2="346.164" y2="38.717"/><line class="cls-15" x1="346.164" y1="87.238" x2="346.164" y2="91.245"/><polygon class="cls-6" points="733.666 96.4 652.476 96.4 652.476 28.166 693.071 28.166 733.666 28.166 733.666 96.4"/><path class="cls-7" d="M692.987,62.283h0Z" transform="translate(0.085)"/><polyline class="cls-7" points="693.071 62.283 652.476 62.283 693.071 62.283 693.071 96.4"/><line class="cls-8" x1="693.071" y1="28.166" x2="693.071" y2="62.283"/><rect class="cls-13" x="736.666" y="27.166" width="41.068" height="70.867"/><path class="cls-14" d="M739.79,86.327l30.877-.8L770.6,90.393l-30.864.665Z" transform="translate(0.085)"/><path class="cls-14" d="M741.719,33.8l30.882-.6-0.1,4.862-30.867.463Z" transform="translate(0.085)"/><path class="cls-14" d="M740.2,86.685l27.643-52.163,4.2,2.455L744.3,89.053Z" transform="translate(0.085)"/><line class="cls-15" x1="736.042" y1="34.522" x2="736.042" y2="38.528"/><line class="cls-15" x1="736.042" y1="87.05" x2="736.042" y2="91.057"/><rect class="cls-13" x="607.926" y="27.798" width="41.068" height="70.867"/><path class="cls-14" d="M645.7,86.96l-30.877-.8,0.072,4.863,30.864,0.665Z" transform="translate(0.085)"/><path class="cls-14" d="M643.772,34.43l-30.882-.6,0.1,4.862,30.867,0.463Z" transform="translate(0.085)"/><path class="cls-14" d="M645.292,87.317L617.649,35.154l-4.2,2.455L641.2,89.686Z" transform="translate(0.085)"/><line class="cls-15" x1="649.618" y1="35.154" x2="649.618" y2="39.161"/><line class="cls-15" x1="649.618" y1="87.683" x2="649.618" y2="91.689"/><polygon class="cls-6" points="979.043 96.716 897.853 96.716 897.853 28.482 938.448 28.482 979.043 28.482 979.043 96.716"/><path class="cls-7" d="M938.364,62.6h0Z" transform="translate(0.085)"/><polyline class="cls-7" points="938.448 62.599 897.853 62.599 938.448 62.599 938.448 96.716"/><line class="cls-8" x1="938.448" y1="28.482" x2="938.448" y2="62.599"/><rect class="cls-13" x="982.043" y="27.482" width="41.068" height="70.867"/><path class="cls-14" d="M985.167,86.643l30.877-.8-0.072,4.863-30.864.665Z" transform="translate(0.085)"/><path class="cls-14" d="M987.1,34.114l30.882-.6-0.1,4.862-30.867.463Z" transform="translate(0.085)"/><path class="cls-14" d="M985.576,87l27.643-52.163,4.2,2.455L989.673,89.37Z" transform="translate(0.085)"/><line class="cls-15" x1="981.42" y1="34.838" x2="981.42" y2="38.845"/><line class="cls-15" x1="981.42" y1="87.366" x2="981.42" y2="91.373"/><rect class="cls-13" x="853.303" y="28.115" width="41.068" height="70.867"/><path class="cls-14" d="M891.078,87.276l-30.877-.8,0.072,4.863,30.864,0.665Z" transform="translate(0.085)"/><path class="cls-14" d="M889.149,34.747l-30.882-.6,0.1,4.862,30.867,0.463Z" transform="translate(0.085)"/><path class="cls-14" d="M890.67,87.634L863.026,35.471l-4.2,2.455L886.573,90Z" transform="translate(0.085)"/><line class="cls-15" x1="894.995" y1="35.471" x2="894.995" y2="39.477"/><line class="cls-15" x1="894.995" y1="87.999" x2="894.995" y2="92.006"/><g id="Arbre-2" data-name="Arbre"><path class="cls-13" d="M442.968,421.735a13.517,13.517,0,0,0,5.176-1.707,12.762,12.762,0,0,0,2.726-2.119,11.322,11.322,0,0,0,2.274,1.344,11.742,11.742,0,0,0,3.5.935l1.009,40.63-14.793-.18Z" transform="translate(0.085)"/><path class="cls-9" d="M450.648,413.993c-4.878,5.483-12.595,6.3-17.334,2.726-3.362-2.534-4.954-7.069-4.336-11.665a11.1,11.1,0,0,1-5.383-1.723c-3.3-2.141-6.05-6.6-4.954-11.414,1.3-5.693,7.024-7.657,7.321-7.753a15.352,15.352,0,0,1-.86-4.092c-0.13-1.884-.454-6.538,2.584-9.476,3.364-3.254,9.793-3.381,12.707-.861,0.84,0.726,1.5,1.767,2.584,1.723,1.439-.058,2.243-1.957,3.016-3.015,3.3-4.521,14.647-5.548,18.952-.215,0.55,0.683,2.4,3.217,1.722,8.184a19.321,19.321,0,0,1,3.446,1.507c1.689,0.945,9.222,5.159,8.831,11.2-0.269,4.154-4.22,8.1-9.691,9.476a12.753,12.753,0,0,1-.157,13.642,12.329,12.329,0,0,1-8.242,4.879A13.319,13.319,0,0,1,450.648,413.993Z" transform="translate(0.085)"/><path class="cls-13" d="M621.614,671.7a13.517,13.517,0,0,0,5.176-1.707,12.762,12.762,0,0,0,2.726-2.119,11.322,11.322,0,0,0,2.274,1.344,11.742,11.742,0,0,0,3.5.935l1.009,40.63-14.793-.18Z" transform="translate(0.085)"/><path class="cls-9" d="M629.294,663.956c-4.878,5.483-12.595,6.3-17.334,2.726-3.362-2.534-4.954-7.069-4.336-11.665a11.1,11.1,0,0,1-5.383-1.723c-3.3-2.141-6.05-6.6-4.954-11.414,1.3-5.693,7.024-7.657,7.321-7.753a15.352,15.352,0,0,1-.86-4.092c-0.13-1.884-.454-6.538,2.584-9.476,3.364-3.254,9.793-3.381,12.707-.861,0.84,0.726,1.5,1.767,2.584,1.723,1.439-.058,2.243-1.957,3.016-3.015,3.3-4.521,14.647-5.548,18.952-.215,0.55,0.683,2.4,3.217,1.722,8.184a19.321,19.321,0,0,1,3.446,1.507c1.689,0.945,9.222,5.159,8.831,11.2-0.269,4.154-4.22,8.1-9.691,9.476a12.753,12.753,0,0,1-.157,13.642,12.329,12.329,0,0,1-8.242,4.879A13.319,13.319,0,0,1,629.294,663.956Z" transform="translate(0.085)"/><path class="cls-13" d="M621.435,546a13.517,13.517,0,0,0,5.176-1.707,12.762,12.762,0,0,0,2.726-2.119,11.322,11.322,0,0,0,2.274,1.344,11.742,11.742,0,0,0,3.5.935l1.009,40.63-14.793-.18Z" transform="translate(0.085)"/><path class="cls-9" d="M629.114,538.253c-4.878,5.483-12.595,6.3-17.334,2.726-3.362-2.534-4.954-7.069-4.336-11.665a11.1,11.1,0,0,1-5.383-1.723c-3.3-2.141-6.05-6.6-4.954-11.414,1.3-5.693,7.024-7.657,7.321-7.753a15.352,15.352,0,0,1-.86-4.092c-0.13-1.884-.454-6.538,2.584-9.476,3.364-3.254,9.793-3.381,12.707-.861,0.84,0.726,1.5,1.767,2.584,1.723,1.439-.058,2.243-1.957,3.016-3.015,3.3-4.521,14.647-5.548,18.952-.215,0.55,0.683,2.4,3.217,1.722,8.184a19.321,19.321,0,0,1,3.446,1.507c1.689,0.945,9.222,5.159,8.831,11.2-0.269,4.154-4.22,8.1-9.691,9.476a12.753,12.753,0,0,1-.157,13.642,12.329,12.329,0,0,1-8.242,4.879A13.319,13.319,0,0,1,629.114,538.253Z" transform="translate(0.085)"/><path class="cls-13" d="M442.968,546a13.517,13.517,0,0,0,5.176-1.707,12.762,12.762,0,0,0,2.726-2.119,11.322,11.322,0,0,0,2.274,1.344,11.742,11.742,0,0,0,3.5.935l1.009,40.63-14.793-.18Z" transform="translate(0.085)"/><path class="cls-9" d="M450.648,538.253c-4.878,5.483-12.595,6.3-17.334,2.726-3.362-2.534-4.954-7.069-4.336-11.665a11.1,11.1,0,0,1-5.383-1.723c-3.3-2.141-6.05-6.6-4.954-11.414,1.3-5.693,7.024-7.657,7.321-7.753a15.352,15.352,0,0,1-.86-4.092c-0.13-1.884-.454-6.538,2.584-9.476,3.364-3.254,9.793-3.381,12.707-.861,0.84,0.726,1.5,1.767,2.584,1.723,1.439-.058,2.243-1.957,3.016-3.015,3.3-4.521,14.647-5.548,18.952-.215,0.55,0.683,2.4,3.217,1.722,8.184a19.321,19.321,0,0,1,3.446,1.507c1.689,0.945,9.222,5.159,8.831,11.2-0.269,4.154-4.22,8.1-9.691,9.476a12.753,12.753,0,0,1-.157,13.642,12.329,12.329,0,0,1-8.242,4.879A13.319,13.319,0,0,1,450.648,538.253Z" transform="translate(0.085)"/><path class="cls-13" d="M442.558,671.7a13.517,13.517,0,0,0,5.176-1.707,12.762,12.762,0,0,0,2.726-2.119,11.322,11.322,0,0,0,2.274,1.344,11.742,11.742,0,0,0,3.5.935l1.009,40.63-14.793-.18Z" transform="translate(0.085)"/><path class="cls-9" d="M450.238,663.956c-4.878,5.483-12.595,6.3-17.334,2.726-3.362-2.534-4.954-7.069-4.336-11.665a11.1,11.1,0,0,1-5.383-1.723c-3.3-2.141-6.05-6.6-4.954-11.414,1.3-5.693,7.024-7.657,7.321-7.753a15.352,15.352,0,0,1-.86-4.092c-0.13-1.884-.454-6.538,2.584-9.476,3.364-3.254,9.793-3.381,12.707-.861,0.84,0.726,1.5,1.767,2.584,1.723,1.439-.058,2.243-1.957,3.016-3.015,3.3-4.521,14.647-5.548,18.952-.215,0.55,0.683,2.4,3.217,1.722,8.184a19.321,19.321,0,0,1,3.446,1.507c1.689,0.945,9.222,5.159,8.831,11.2-0.269,4.154-4.22,8.1-9.691,9.476a12.753,12.753,0,0,1-.157,13.642,12.329,12.329,0,0,1-8.242,4.879A13.319,13.319,0,0,1,450.238,663.956Z" transform="translate(0.085)"/><path class="cls-13" d="M442.086,926.446a13.517,13.517,0,0,0,5.176-1.707,12.762,12.762,0,0,0,2.726-2.119,11.322,11.322,0,0,0,2.274,1.344,11.742,11.742,0,0,0,3.5.935l1.009,40.63-14.793-.18Z" transform="translate(0.085)"/><path class="cls-9" d="M449.766,918.7c-4.878,5.483-12.595,6.3-17.334,2.726-3.362-2.534-4.954-7.069-4.336-11.665a11.1,11.1,0,0,1-5.383-1.723c-3.3-2.141-6.05-6.6-4.954-11.414,1.3-5.693,7.024-7.657,7.321-7.753a15.352,15.352,0,0,1-.86-4.092c-0.13-1.884-.454-6.538,2.584-9.476,3.364-3.254,9.793-3.381,12.707-.861,0.84,0.726,1.5,1.767,2.584,1.723,1.439-.058,2.243-1.957,3.016-3.015,3.3-4.521,14.647-5.548,18.952-.215,0.55,0.683,2.4,3.217,1.722,8.184a19.321,19.321,0,0,1,3.446,1.507c1.689,0.945,9.222,5.159,8.831,11.2-0.269,4.154-4.22,8.1-9.691,9.476a12.753,12.753,0,0,1-.157,13.642,12.329,12.329,0,0,1-8.242,4.879A13.319,13.319,0,0,1,449.766,918.7Z" transform="translate(0.085)"/><path class="cls-13" d="M441.676,798.505a13.517,13.517,0,0,0,5.176-1.707,12.762,12.762,0,0,0,2.726-2.119,11.322,11.322,0,0,0,2.274,1.344,11.742,11.742,0,0,0,3.5.935l1.009,40.63-14.793-.18Z" transform="translate(0.085)"/><path class="cls-9" d="M449.356,790.763c-4.878,5.483-12.595,6.3-17.334,2.726-3.362-2.534-4.954-7.069-4.336-11.665A11.1,11.1,0,0,1,422.3,780.1c-3.3-2.141-6.05-6.6-4.954-11.414,1.3-5.693,7.024-7.657,7.321-7.753a15.352,15.352,0,0,1-.86-4.092c-0.13-1.884-.454-6.538,2.584-9.476,3.364-3.254,9.793-3.381,12.707-.861,0.84,0.726,1.5,1.767,2.584,1.723,1.439-.058,2.243-1.957,3.016-3.015,3.3-4.521,14.647-5.548,18.952-.215,0.55,0.683,2.4,3.217,1.722,8.184a19.321,19.321,0,0,1,3.446,1.507c1.689,0.945,9.222,5.159,8.831,11.2-0.269,4.154-4.22,8.1-9.691,9.476a12.753,12.753,0,0,1-.157,13.642,12.329,12.329,0,0,1-8.242,4.879A13.319,13.319,0,0,1,449.356,790.763Z" transform="translate(0.085)"/><path class="cls-13" d="M621.7,1052.875a13.517,13.517,0,0,0,5.176-1.707,12.762,12.762,0,0,0,2.726-2.119,11.322,11.322,0,0,0,2.274,1.344,11.742,11.742,0,0,0,3.5.935l1.009,40.63-14.793-.18Z" transform="translate(0.085)"/><path class="cls-9" d="M629.383,1045.133c-4.878,5.483-12.595,6.3-17.334,2.726-3.362-2.534-4.954-7.069-4.336-11.665a11.1,11.1,0,0,1-5.383-1.723c-3.3-2.141-6.05-6.6-4.954-11.414,1.3-5.693,7.024-7.657,7.321-7.753a15.352,15.352,0,0,1-.86-4.092c-0.13-1.884-.454-6.538,2.584-9.476,3.364-3.254,9.793-3.381,12.707-.861,0.84,0.726,1.5,1.767,2.584,1.723,1.439-.058,2.243-1.957,3.016-3.015,3.3-4.521,14.647-5.548,18.952-.215,0.55,0.683,2.4,3.217,1.722,8.184a19.321,19.321,0,0,1,3.446,1.507c1.689,0.945,9.222,5.159,8.831,11.2-0.269,4.154-4.22,8.1-9.691,9.476a12.753,12.753,0,0,1-.157,13.642,12.329,12.329,0,0,1-8.242,4.879A13.319,13.319,0,0,1,629.383,1045.133Z" transform="translate(0.085)"/><path class="cls-13" d="M621.435,924.921a13.517,13.517,0,0,0,5.176-1.707,12.762,12.762,0,0,0,2.726-2.119,11.322,11.322,0,0,0,2.274,1.344,11.742,11.742,0,0,0,3.5.935L636.124,964l-14.793-.18Z" transform="translate(0.085)"/><path class="cls-9" d="M629.114,917.179c-4.878,5.483-12.595,6.3-17.334,2.726-3.362-2.534-4.954-7.069-4.336-11.665a11.1,11.1,0,0,1-5.383-1.723c-3.3-2.141-6.05-6.6-4.954-11.414,1.3-5.693,7.024-7.657,7.321-7.753a15.352,15.352,0,0,1-.86-4.092c-0.13-1.884-.454-6.538,2.584-9.476,3.364-3.254,9.793-3.381,12.707-.861,0.84,0.726,1.5,1.767,2.584,1.723,1.439-.058,2.243-1.957,3.016-3.015,3.3-4.521,14.647-5.548,18.952-.215,0.55,0.683,2.4,3.217,1.722,8.184a19.321,19.321,0,0,1,3.446,1.507c1.689,0.945,9.222,5.159,8.831,11.2-0.269,4.154-4.22,8.1-9.691,9.476a12.753,12.753,0,0,1-.157,13.642,12.329,12.329,0,0,1-8.242,4.879A13.319,13.319,0,0,1,629.114,917.179Z" transform="translate(0.085)"/><path class="cls-13" d="M621.435,798.61a13.517,13.517,0,0,0,5.176-1.707,12.762,12.762,0,0,0,2.726-2.119,11.322,11.322,0,0,0,2.274,1.344,11.742,11.742,0,0,0,3.5.935l1.009,40.63-14.793-.18Z" transform="translate(0.085)"/><path class="cls-9" d="M629.114,790.868c-4.878,5.483-12.595,6.3-17.334,2.726-3.362-2.534-4.954-7.069-4.336-11.665a11.1,11.1,0,0,1-5.383-1.723c-3.3-2.141-6.05-6.6-4.954-11.414,1.3-5.693,7.024-7.657,7.321-7.753a15.352,15.352,0,0,1-.86-4.092c-0.13-1.884-.454-6.538,2.584-9.476,3.364-3.254,9.793-3.381,12.707-.861,0.84,0.726,1.5,1.767,2.584,1.723,1.439-.058,2.243-1.957,3.016-3.015,3.3-4.521,14.647-5.548,18.952-.215,0.55,0.683,2.4,3.217,1.722,8.184a19.321,19.321,0,0,1,3.446,1.507c1.689,0.945,9.222,5.159,8.831,11.2-0.269,4.154-4.22,8.1-9.691,9.476a12.753,12.753,0,0,1-.157,13.642,12.329,12.329,0,0,1-8.242,4.879A13.319,13.319,0,0,1,629.114,790.868Z" transform="translate(0.085)"/><path class="cls-13" d="M621.435,1180.02a13.517,13.517,0,0,0,5.176-1.707,12.762,12.762,0,0,0,2.726-2.119,11.322,11.322,0,0,0,2.274,1.344,11.742,11.742,0,0,0,3.5.935l1.009,40.63-14.793-.18Z" transform="translate(0.085)"/><path class="cls-9" d="M629.114,1172.278c-4.878,5.483-12.595,6.3-17.334,2.726-3.362-2.534-4.954-7.069-4.336-11.665a11.1,11.1,0,0,1-5.383-1.723c-3.3-2.141-6.05-6.6-4.954-11.414,1.3-5.693,7.024-7.657,7.321-7.753a15.352,15.352,0,0,1-.86-4.092c-0.13-1.884-.454-6.538,2.584-9.476,3.364-3.254,9.793-3.381,12.707-.861,0.84,0.726,1.5,1.767,2.584,1.723,1.439-.058,2.243-1.957,3.016-3.015,3.3-4.521,14.647-5.548,18.952-.215,0.55,0.683,2.4,3.217,1.722,8.184a19.321,19.321,0,0,1,3.446,1.507c1.689,0.945,9.222,5.159,8.831,11.2-0.269,4.154-4.22,8.1-9.691,9.476a12.753,12.753,0,0,1-.157,13.642,12.329,12.329,0,0,1-8.242,4.879A13.319,13.319,0,0,1,629.114,1172.278Z" transform="translate(0.085)"/><path class="cls-13" d="M623.019,1687.069a13.517,13.517,0,0,0,5.176-1.707,12.762,12.762,0,0,0,2.726-2.119,11.322,11.322,0,0,0,2.274,1.344,11.742,11.742,0,0,0,3.5.935l1.009,40.63-14.793-.18Z" transform="translate(0.085)"/><path class="cls-9" d="M630.7,1679.327c-4.878,5.483-12.595,6.3-17.334,2.726-3.362-2.534-4.954-7.069-4.336-11.665a11.1,11.1,0,0,1-5.383-1.723c-3.3-2.141-6.05-6.6-4.954-11.414,1.3-5.693,7.024-7.657,7.321-7.753a15.352,15.352,0,0,1-.86-4.092c-0.13-1.884-.454-6.538,2.584-9.476,3.364-3.254,9.793-3.381,12.707-.861,0.84,0.726,1.5,1.767,2.584,1.723,1.439-.058,2.243-1.957,3.016-3.015,3.3-4.521,14.647-5.548,18.952-.215,0.55,0.683,2.4,3.217,1.722,8.184a19.321,19.321,0,0,1,3.446,1.507c1.689,0.945,9.222,5.159,8.831,11.2-0.269,4.154-4.22,8.1-9.691,9.476a12.753,12.753,0,0,1-.157,13.642,12.329,12.329,0,0,1-8.242,4.879A13.319,13.319,0,0,1,630.7,1679.327Z" transform="translate(0.085)"/><path class="cls-13" d="M442.32,1560.2a13.517,13.517,0,0,0,5.176-1.707,12.762,12.762,0,0,0,2.726-2.119,11.322,11.322,0,0,0,2.274,1.344,11.742,11.742,0,0,0,3.5.935l1.009,40.63-14.793-.18Z" transform="translate(0.085)"/><path class="cls-9" d="M450,1552.455c-4.878,5.483-12.595,6.3-17.334,2.726-3.362-2.534-4.954-7.069-4.336-11.665a11.1,11.1,0,0,1-5.383-1.723c-3.3-2.141-6.05-6.6-4.954-11.414,1.3-5.693,7.024-7.657,7.321-7.753a15.352,15.352,0,0,1-.86-4.092c-0.13-1.884-.454-6.538,2.584-9.476,3.364-3.254,9.793-3.381,12.707-.861,0.84,0.726,1.5,1.767,2.584,1.723,1.439-.058,2.243-1.957,3.016-3.015,3.3-4.521,14.647-5.548,18.952-.215,0.55,0.683,2.4,3.217,1.722,8.184a19.321,19.321,0,0,1,3.446,1.507c1.689,0.945,9.222,5.159,8.831,11.2-0.269,4.154-4.22,8.1-9.691,9.476a12.753,12.753,0,0,1-.157,13.642,12.329,12.329,0,0,1-8.242,4.879A13.319,13.319,0,0,1,450,1552.455Z" transform="translate(0.085)"/><path class="cls-13" d="M442.32,1687.747a13.517,13.517,0,0,0,5.176-1.707,12.762,12.762,0,0,0,2.726-2.119,11.322,11.322,0,0,0,2.274,1.344,11.742,11.742,0,0,0,3.5.935l1.009,40.63-14.793-.18Z" transform="translate(0.085)"/><path class="cls-9" d="M450,1680c-4.878,5.483-12.595,6.3-17.334,2.726-3.362-2.534-4.954-7.069-4.336-11.665a11.1,11.1,0,0,1-5.383-1.723c-3.3-2.141-6.05-6.6-4.954-11.414,1.3-5.693,7.024-7.657,7.321-7.753a15.352,15.352,0,0,1-.86-4.092c-0.13-1.884-.454-6.538,2.584-9.476,3.364-3.254,9.793-3.381,12.707-.861,0.84,0.726,1.5,1.767,2.584,1.723,1.439-.058,2.243-1.957,3.016-3.015,3.3-4.521,14.647-5.548,18.952-.215,0.55,0.683,2.4,3.217,1.722,8.184a19.321,19.321,0,0,1,3.446,1.507c1.689,0.945,9.222,5.159,8.831,11.2-0.269,4.154-4.22,8.1-9.691,9.476a12.753,12.753,0,0,1-.157,13.642,12.329,12.329,0,0,1-8.242,4.879A13.319,13.319,0,0,1,450,1680Z" transform="translate(0.085)"/><path class="cls-13" d="M442.682,1816.4a13.517,13.517,0,0,0,5.176-1.707,12.762,12.762,0,0,0,2.726-2.119,11.322,11.322,0,0,0,2.274,1.344,11.742,11.742,0,0,0,3.5.935l1.009,40.63-14.793-.18Z" transform="translate(0.085)"/><path class="cls-9" d="M450.362,1808.662c-4.878,5.483-12.595,6.3-17.334,2.726-3.362-2.534-4.954-7.069-4.336-11.665a11.1,11.1,0,0,1-5.383-1.723c-3.3-2.141-6.05-6.6-4.954-11.414,1.3-5.693,7.024-7.657,7.321-7.753a15.352,15.352,0,0,1-.86-4.092c-0.13-1.884-.454-6.538,2.584-9.476,3.364-3.254,9.793-3.381,12.707-.861,0.84,0.726,1.5,1.767,2.584,1.723,1.439-.058,2.243-1.957,3.016-3.015,3.3-4.521,14.647-5.548,18.952-.215,0.55,0.683,2.4,3.217,1.722,8.184a19.321,19.321,0,0,1,3.446,1.507c1.689,0.945,9.222,5.159,8.831,11.2-0.269,4.154-4.22,8.1-9.691,9.476a12.753,12.753,0,0,1-.157,13.642,12.329,12.329,0,0,1-8.242,4.879A13.319,13.319,0,0,1,450.362,1808.662Z" transform="translate(0.085)"/><path class="cls-13" d="M620.672,1942.678a13.517,13.517,0,0,0,5.176-1.707,12.762,12.762,0,0,0,2.726-2.119,11.322,11.322,0,0,0,2.274,1.344,11.742,11.742,0,0,0,3.5.935l1.009,40.63-14.793-.18Z" transform="translate(0.085)"/><path class="cls-9" d="M628.352,1934.935c-4.878,5.483-12.595,6.3-17.334,2.726-3.362-2.534-4.954-7.069-4.336-11.665a11.1,11.1,0,0,1-5.383-1.723c-3.3-2.141-6.05-6.6-4.954-11.414,1.3-5.693,7.024-7.657,7.321-7.753a15.352,15.352,0,0,1-.86-4.092c-0.13-1.884-.454-6.538,2.584-9.476,3.364-3.254,9.793-3.381,12.707-.861,0.84,0.726,1.5,1.767,2.584,1.723,1.439-.058,2.243-1.957,3.016-3.015,3.3-4.521,14.647-5.548,18.952-.215,0.55,0.683,2.4,3.217,1.722,8.184a19.321,19.321,0,0,1,3.446,1.507c1.689,0.945,9.222,5.159,8.831,11.2-0.269,4.154-4.22,8.1-9.691,9.476a12.753,12.753,0,0,1-.157,13.642,12.329,12.329,0,0,1-8.242,4.879A13.319,13.319,0,0,1,628.352,1934.935Z" transform="translate(0.085)"/><path class="cls-13" d="M622.5,2069.549a13.517,13.517,0,0,0,5.176-1.707,12.762,12.762,0,0,0,2.726-2.119,11.322,11.322,0,0,0,2.274,1.344,11.742,11.742,0,0,0,3.5.935l1.009,40.63-14.793-.18Z" transform="translate(0.085)"/><path class="cls-9" d="M630.178,2061.807c-4.878,5.483-12.595,6.3-17.334,2.726-3.362-2.534-4.954-7.069-4.336-11.665a11.1,11.1,0,0,1-5.383-1.723c-3.3-2.141-6.05-6.6-4.954-11.414,1.3-5.693,7.024-7.657,7.321-7.753a15.352,15.352,0,0,1-.86-4.092c-0.13-1.884-.454-6.538,2.584-9.476,3.364-3.254,9.793-3.381,12.707-.861,0.84,0.726,1.5,1.767,2.584,1.723,1.439-.058,2.243-1.957,3.016-3.015,3.3-4.521,14.647-5.548,18.952-.215,0.55,0.683,2.4,3.217,1.722,8.184a19.321,19.321,0,0,1,3.446,1.507c1.689,0.945,9.222,5.159,8.831,11.2-0.269,4.154-4.22,8.1-9.691,9.476a12.753,12.753,0,0,1-.157,13.642,12.329,12.329,0,0,1-8.242,4.879A13.319,13.319,0,0,1,630.178,2061.807Z" transform="translate(0.085)"/><path class="cls-13" d="M442.32,1942.678a13.517,13.517,0,0,0,5.176-1.707,12.762,12.762,0,0,0,2.726-2.119,11.322,11.322,0,0,0,2.274,1.344,11.742,11.742,0,0,0,3.5.935l1.009,40.63-14.793-.18Z" transform="translate(0.085)"/><path class="cls-9" d="M450,1934.935c-4.878,5.483-12.595,6.3-17.334,2.726-3.362-2.534-4.954-7.069-4.336-11.665a11.1,11.1,0,0,1-5.383-1.723c-3.3-2.141-6.05-6.6-4.954-11.414,1.3-5.693,7.024-7.657,7.321-7.753a15.352,15.352,0,0,1-.86-4.092c-0.13-1.884-.454-6.538,2.584-9.476,3.364-3.254,9.793-3.381,12.707-.861,0.84,0.726,1.5,1.767,2.584,1.723,1.439-.058,2.243-1.957,3.016-3.015,3.3-4.521,14.647-5.548,18.952-.215,0.55,0.683,2.4,3.217,1.722,8.184a19.321,19.321,0,0,1,3.446,1.507c1.689,0.945,9.222,5.159,8.831,11.2-0.269,4.154-4.22,8.1-9.691,9.476a12.753,12.753,0,0,1-.157,13.642,12.329,12.329,0,0,1-8.242,4.879A13.319,13.319,0,0,1,450,1934.935Z" transform="translate(0.085)"/><path class="cls-13" d="M442.805,2196.057a13.517,13.517,0,0,0,5.176-1.707,12.762,12.762,0,0,0,2.726-2.119,11.322,11.322,0,0,0,2.274,1.344,11.742,11.742,0,0,0,3.5.935l1.009,40.63-14.793-.18Z" transform="translate(0.085)"/><path class="cls-9" d="M450.485,2188.314c-4.878,5.483-12.595,6.3-17.334,2.726-3.362-2.534-4.954-7.069-4.336-11.665a11.1,11.1,0,0,1-5.383-1.723c-3.3-2.141-6.05-6.6-4.954-11.414,1.3-5.693,7.024-7.657,7.321-7.753a15.352,15.352,0,0,1-.86-4.092c-0.13-1.884-.454-6.538,2.584-9.476,3.364-3.254,9.793-3.381,12.707-.861,0.84,0.726,1.5,1.767,2.584,1.723,1.439-.058,2.243-1.957,3.016-3.015,3.3-4.521,14.647-5.548,18.952-.215,0.55,0.683,2.4,3.217,1.722,8.184a19.321,19.321,0,0,1,3.446,1.507c1.689,0.945,9.222,5.159,8.831,11.2-0.269,4.154-4.22,8.1-9.691,9.476a12.753,12.753,0,0,1-.157,13.642,12.329,12.329,0,0,1-8.242,4.879A13.319,13.319,0,0,1,450.485,2188.314Z" transform="translate(0.085)"/><path class="cls-13" d="M620.672,2196.445a13.517,13.517,0,0,0,5.176-1.707,12.762,12.762,0,0,0,2.726-2.119,11.322,11.322,0,0,0,2.274,1.344,11.742,11.742,0,0,0,3.5.935l1.009,40.63-14.793-.18Z" transform="translate(0.085)"/><path class="cls-9" d="M628.352,2188.7c-4.878,5.483-12.595,6.3-17.334,2.726-3.362-2.534-4.954-7.069-4.336-11.665a11.1,11.1,0,0,1-5.383-1.723c-3.3-2.141-6.05-6.6-4.954-11.414,1.3-5.693,7.024-7.657,7.321-7.753a15.352,15.352,0,0,1-.86-4.092c-0.13-1.884-.454-6.538,2.584-9.476,3.364-3.254,9.793-3.381,12.707-.861,0.84,0.726,1.5,1.767,2.584,1.723,1.439-.058,2.243-1.957,3.016-3.015,3.3-4.521,14.647-5.548,18.952-.215,0.55,0.683,2.4,3.217,1.722,8.184a19.321,19.321,0,0,1,3.446,1.507c1.689,0.945,9.222,5.159,8.831,11.2-0.269,4.154-4.22,8.1-9.691,9.476a12.753,12.753,0,0,1-.157,13.642,12.329,12.329,0,0,1-8.242,4.879A13.319,13.319,0,0,1,628.352,2188.7Z" transform="translate(0.085)"/><path class="cls-13" d="M620.672,2324.106a13.517,13.517,0,0,0,5.176-1.707,12.762,12.762,0,0,0,2.726-2.119,11.322,11.322,0,0,0,2.274,1.344,11.742,11.742,0,0,0,3.5.935l1.009,40.63-14.793-.18Z" transform="translate(0.085)"/><path class="cls-9" d="M628.352,2316.364c-4.878,5.483-12.595,6.3-17.334,2.726-3.362-2.534-4.954-7.069-4.336-11.665a11.1,11.1,0,0,1-5.383-1.723c-3.3-2.141-6.05-6.6-4.954-11.414,1.3-5.693,7.024-7.657,7.321-7.753a15.352,15.352,0,0,1-.86-4.092c-0.13-1.884-.454-6.538,2.584-9.476,3.364-3.254,9.793-3.381,12.707-.861,0.84,0.726,1.5,1.767,2.584,1.723,1.439-.058,2.243-1.957,3.016-3.015,3.3-4.521,14.647-5.548,18.952-.215,0.55,0.683,2.4,3.217,1.722,8.184a19.321,19.321,0,0,1,3.446,1.507c1.689,0.945,9.222,5.159,8.831,11.2-0.269,4.154-4.22,8.1-9.691,9.476a12.753,12.753,0,0,1-.157,13.642,12.329,12.329,0,0,1-8.242,4.879A13.319,13.319,0,0,1,628.352,2316.364Z" transform="translate(0.085)"/><path class="cls-13" d="M444.389,2324.106a13.517,13.517,0,0,0,5.176-1.707,12.762,12.762,0,0,0,2.726-2.119,11.322,11.322,0,0,0,2.274,1.344,11.742,11.742,0,0,0,3.5.935l1.009,40.63-14.793-.18Z" transform="translate(0.085)"/><path class="cls-9" d="M452.069,2316.364c-4.878,5.483-12.595,6.3-17.334,2.726-3.362-2.534-4.954-7.069-4.336-11.665a11.1,11.1,0,0,1-5.383-1.723c-3.3-2.141-6.05-6.6-4.954-11.414,1.3-5.693,7.024-7.657,7.321-7.753a15.352,15.352,0,0,1-.86-4.092c-0.13-1.884-.454-6.538,2.584-9.476,3.364-3.254,9.793-3.381,12.707-.861,0.84,0.726,1.5,1.767,2.584,1.723,1.439-.058,2.243-1.957,3.016-3.015,3.3-4.521,14.647-5.548,18.952-.215,0.55,0.683,2.4,3.217,1.722,8.184a19.321,19.321,0,0,1,3.446,1.507c1.689,0.945,9.222,5.159,8.831,11.2-0.269,4.154-4.22,8.1-9.691,9.476a12.753,12.753,0,0,1-.157,13.642,12.329,12.329,0,0,1-8.242,4.879A13.319,13.319,0,0,1,452.069,2316.364Z" transform="translate(0.085)"/><path class="cls-13" d="M442.805,2070.431a13.517,13.517,0,0,0,5.176-1.707,12.762,12.762,0,0,0,2.726-2.119,11.322,11.322,0,0,0,2.274,1.344,11.742,11.742,0,0,0,3.5.935l1.009,40.63-14.793-.18Z" transform="translate(0.085)"/><path class="cls-9" d="M450.485,2062.689c-4.878,5.483-12.595,6.3-17.334,2.726-3.362-2.534-4.954-7.069-4.336-11.665a11.1,11.1,0,0,1-5.383-1.723c-3.3-2.141-6.05-6.6-4.954-11.414,1.3-5.693,7.024-7.657,7.321-7.753a15.352,15.352,0,0,1-.86-4.092c-0.13-1.884-.454-6.538,2.584-9.476,3.364-3.254,9.793-3.381,12.707-.861,0.84,0.726,1.5,1.767,2.584,1.723,1.439-.058,2.243-1.957,3.016-3.015,3.3-4.521,14.647-5.548,18.952-.215,0.55,0.683,2.4,3.217,1.722,8.184a19.321,19.321,0,0,1,3.446,1.507c1.689,0.945,9.222,5.159,8.831,11.2-0.269,4.154-4.22,8.1-9.691,9.476a12.753,12.753,0,0,1-.157,13.642,12.329,12.329,0,0,1-8.242,4.879A13.319,13.319,0,0,1,450.485,2062.689Z" transform="translate(0.085)"/><path class="cls-13" d="M444.6,2450.212a13.517,13.517,0,0,0,5.176-1.707,12.762,12.762,0,0,0,2.726-2.119,11.322,11.322,0,0,0,2.274,1.344,11.742,11.742,0,0,0,3.5.935l1.009,40.63-14.793-.18Z" transform="translate(0.085)"/><path class="cls-9" d="M452.279,2442.469c-4.878,5.483-12.595,6.3-17.334,2.726-3.362-2.534-4.954-7.069-4.336-11.665a11.1,11.1,0,0,1-5.383-1.723c-3.3-2.141-6.05-6.6-4.954-11.414,1.3-5.693,7.024-7.657,7.321-7.753a15.352,15.352,0,0,1-.86-4.092c-0.13-1.884-.454-6.538,2.584-9.476,3.364-3.254,9.793-3.381,12.707-.861,0.84,0.726,1.5,1.767,2.584,1.723,1.439-.058,2.243-1.957,3.016-3.015,3.3-4.521,14.647-5.548,18.952-.215,0.55,0.683,2.4,3.217,1.722,8.184a19.321,19.321,0,0,1,3.446,1.507c1.689,0.945,9.222,5.159,8.831,11.2-0.269,4.154-4.22,8.1-9.691,9.476a12.753,12.753,0,0,1-.157,13.642,12.329,12.329,0,0,1-8.242,4.879A13.319,13.319,0,0,1,452.279,2442.469Z" transform="translate(0.085)"/><path class="cls-13" d="M621.375,2450.212a13.517,13.517,0,0,0,5.176-1.707,12.762,12.762,0,0,0,2.726-2.119,11.322,11.322,0,0,0,2.274,1.344,11.742,11.742,0,0,0,3.5.935l1.009,40.63-14.793-.18Z" transform="translate(0.085)"/><path class="cls-9" d="M629.054,2442.469c-4.878,5.483-12.595,6.3-17.334,2.726-3.362-2.534-4.954-7.069-4.336-11.665a11.1,11.1,0,0,1-5.383-1.723c-3.3-2.141-6.05-6.6-4.954-11.414,1.3-5.693,7.024-7.657,7.321-7.753a15.352,15.352,0,0,1-.86-4.092c-0.13-1.884-.454-6.538,2.584-9.476,3.364-3.254,9.793-3.381,12.707-.861,0.84,0.726,1.5,1.767,2.584,1.723,1.439-.058,2.243-1.957,3.016-3.015,3.3-4.521,14.647-5.548,18.952-.215,0.55,0.683,2.4,3.217,1.722,8.184a19.321,19.321,0,0,1,3.446,1.507c1.689,0.945,9.222,5.159,8.831,11.2-0.269,4.154-4.22,8.1-9.691,9.476a12.753,12.753,0,0,1-.157,13.642,12.329,12.329,0,0,1-8.242,4.879A13.319,13.319,0,0,1,629.054,2442.469Z" transform="translate(0.085)"/><path class="cls-13" d="M444.389,2577.1a13.517,13.517,0,0,0,5.176-1.707,12.762,12.762,0,0,0,2.726-2.119,11.322,11.322,0,0,0,2.274,1.344,11.742,11.742,0,0,0,3.5.935l1.009,40.63-14.793-.18Z" transform="translate(0.085)"/><path class="cls-9" d="M452.069,2569.353c-4.878,5.483-12.595,6.3-17.334,2.726-3.362-2.534-4.954-7.069-4.336-11.665a11.1,11.1,0,0,1-5.383-1.723c-3.3-2.141-6.05-6.6-4.954-11.414,1.3-5.693,7.024-7.657,7.321-7.753a15.352,15.352,0,0,1-.86-4.092c-0.13-1.884-.454-6.538,2.584-9.476,3.364-3.254,9.793-3.381,12.707-.861,0.84,0.726,1.5,1.767,2.584,1.723,1.439-.058,2.243-1.957,3.016-3.015,3.3-4.521,14.647-5.548,18.952-.215,0.55,0.683,2.4,3.217,1.722,8.184a19.321,19.321,0,0,1,3.446,1.507c1.689,0.945,9.222,5.159,8.831,11.2-0.269,4.154-4.22,8.1-9.691,9.476a12.753,12.753,0,0,1-.157,13.642,12.329,12.329,0,0,1-8.242,4.879A13.319,13.319,0,0,1,452.069,2569.353Z" transform="translate(0.085)"/><path class="cls-13" d="M444.3,2703.979a13.517,13.517,0,0,0,5.176-1.707,12.762,12.762,0,0,0,2.726-2.119,11.322,11.322,0,0,0,2.274,1.344,11.742,11.742,0,0,0,3.5.935l1.009,40.63-14.793-.18Z" transform="translate(0.085)"/><path class="cls-9" d="M451.983,2696.237c-4.878,5.483-12.595,6.3-17.334,2.726-3.362-2.534-4.954-7.069-4.336-11.665a11.1,11.1,0,0,1-5.383-1.723c-3.3-2.141-6.05-6.6-4.954-11.414,1.3-5.693,7.024-7.657,7.321-7.753a15.352,15.352,0,0,1-.86-4.092c-0.13-1.884-.454-6.538,2.584-9.476,3.364-3.254,9.793-3.381,12.707-.861,0.84,0.726,1.5,1.767,2.584,1.723,1.439-.058,2.243-1.957,3.016-3.015,3.3-4.521,14.647-5.548,18.952-.215,0.55,0.683,2.4,3.217,1.722,8.184a19.321,19.321,0,0,1,3.446,1.507c1.689,0.945,9.222,5.159,8.831,11.2-0.269,4.154-4.22,8.1-9.691,9.476a12.753,12.753,0,0,1-.157,13.642,12.329,12.329,0,0,1-8.242,4.879A13.319,13.319,0,0,1,451.983,2696.237Z" transform="translate(0.085)"/><path class="cls-13" d="M620.407,2577.095a13.517,13.517,0,0,0,5.176-1.707,12.762,12.762,0,0,0,2.726-2.119,11.322,11.322,0,0,0,2.274,1.344,11.742,11.742,0,0,0,3.5.935l1.009,40.63L620.3,2616Z" transform="translate(0.085)"/><path class="cls-9" d="M628.087,2569.352c-4.878,5.483-12.595,6.3-17.334,2.726-3.362-2.534-4.954-7.069-4.336-11.665a11.1,11.1,0,0,1-5.383-1.723c-3.3-2.141-6.05-6.6-4.954-11.414,1.3-5.693,7.024-7.657,7.321-7.753a15.352,15.352,0,0,1-.86-4.092c-0.13-1.884-.454-6.538,2.584-9.476,3.364-3.254,9.793-3.381,12.707-.861,0.84,0.726,1.5,1.767,2.584,1.723,1.439-.058,2.243-1.957,3.016-3.015,3.3-4.521,14.647-5.548,18.952-.215,0.55,0.683,2.4,3.217,1.722,8.184a19.321,19.321,0,0,1,3.446,1.507c1.689,0.945,9.222,5.159,8.831,11.2-0.269,4.154-4.22,8.1-9.691,9.476a12.753,12.753,0,0,1-.157,13.642,12.329,12.329,0,0,1-8.242,4.879A13.319,13.319,0,0,1,628.087,2569.352Z" transform="translate(0.085)"/><path class="cls-13" d="M620.407,2703.979a13.517,13.517,0,0,0,5.176-1.707,12.762,12.762,0,0,0,2.726-2.119,11.322,11.322,0,0,0,2.274,1.344,11.742,11.742,0,0,0,3.5.935l1.009,40.63-14.793-.18Z" transform="translate(0.085)"/><path class="cls-9" d="M628.087,2696.237c-4.878,5.483-12.595,6.3-17.334,2.726-3.362-2.534-4.954-7.069-4.336-11.665a11.1,11.1,0,0,1-5.383-1.723c-3.3-2.141-6.05-6.6-4.954-11.414,1.3-5.693,7.024-7.657,7.321-7.753a15.352,15.352,0,0,1-.86-4.092c-0.13-1.884-.454-6.538,2.584-9.476,3.364-3.254,9.793-3.381,12.707-.861,0.84,0.726,1.5,1.767,2.584,1.723,1.439-.058,2.243-1.957,3.016-3.015,3.3-4.521,14.647-5.548,18.952-.215,0.55,0.683,2.4,3.217,1.722,8.184a19.321,19.321,0,0,1,3.446,1.507c1.689,0.945,9.222,5.159,8.831,11.2-0.269,4.154-4.22,8.1-9.691,9.476a12.753,12.753,0,0,1-.157,13.642,12.329,12.329,0,0,1-8.242,4.879A13.319,13.319,0,0,1,628.087,2696.237Z" transform="translate(0.085)"/><path class="cls-13" d="M444.3,2956.558a13.517,13.517,0,0,0,5.176-1.707,12.762,12.762,0,0,0,2.726-2.119,11.322,11.322,0,0,0,2.274,1.344,11.742,11.742,0,0,0,3.5.935l1.009,40.63-14.793-.18Z" transform="translate(0.085)"/><path class="cls-9" d="M451.983,2948.815c-4.878,5.483-12.595,6.3-17.334,2.726-3.362-2.534-4.954-7.069-4.336-11.665a11.1,11.1,0,0,1-5.383-1.723c-3.3-2.141-6.05-6.6-4.954-11.414,1.3-5.693,7.024-7.657,7.321-7.753a15.352,15.352,0,0,1-.86-4.092c-0.13-1.884-.454-6.538,2.584-9.476,3.364-3.254,9.793-3.381,12.707-.861,0.84,0.726,1.5,1.767,2.584,1.723,1.439-.058,2.243-1.957,3.016-3.015,3.3-4.521,14.647-5.548,18.952-.215,0.55,0.683,2.4,3.217,1.722,8.184a19.321,19.321,0,0,1,3.446,1.507c1.689,0.945,9.222,5.159,8.831,11.2-0.269,4.154-4.22,8.1-9.691,9.476a12.753,12.753,0,0,1-.157,13.642,12.329,12.329,0,0,1-8.242,4.879A13.319,13.319,0,0,1,451.983,2948.815Z" transform="translate(0.085)"/><path class="cls-13" d="M443.581,2830.861a13.517,13.517,0,0,0,5.176-1.707,12.762,12.762,0,0,0,2.726-2.119,11.322,11.322,0,0,0,2.274,1.344,11.742,11.742,0,0,0,3.5.935l1.009,40.63-14.793-.18Z" transform="translate(0.085)"/><path class="cls-9" d="M451.261,2823.119c-4.878,5.483-12.595,6.3-17.334,2.726-3.362-2.534-4.954-7.069-4.336-11.665a11.1,11.1,0,0,1-5.383-1.723c-3.3-2.141-6.05-6.6-4.954-11.414,1.3-5.693,7.024-7.657,7.321-7.753a15.352,15.352,0,0,1-.86-4.092c-0.13-1.884-.454-6.538,2.584-9.476,3.364-3.254,9.793-3.381,12.707-.861,0.84,0.726,1.5,1.767,2.584,1.723,1.439-.058,2.243-1.957,3.016-3.015,3.3-4.521,14.647-5.548,18.952-.215,0.55,0.683,2.4,3.217,1.722,8.184a19.321,19.321,0,0,1,3.446,1.507c1.689,0.945,9.222,5.159,8.831,11.2-0.269,4.154-4.22,8.1-9.691,9.476a12.753,12.753,0,0,1-.157,13.642,12.329,12.329,0,0,1-8.242,4.879A13.319,13.319,0,0,1,451.261,2823.119Z" transform="translate(0.085)"/><path class="cls-13" d="M620.407,2956.558a13.517,13.517,0,0,0,5.176-1.707,12.762,12.762,0,0,0,2.726-2.119,11.322,11.322,0,0,0,2.274,1.344,11.742,11.742,0,0,0,3.5.935l1.009,40.63-14.793-.18Z" transform="translate(0.085)"/><path class="cls-9" d="M628.087,2948.815c-4.878,5.483-12.595,6.3-17.334,2.726-3.362-2.534-4.954-7.069-4.336-11.665a11.1,11.1,0,0,1-5.383-1.723c-3.3-2.141-6.05-6.6-4.954-11.414,1.3-5.693,7.024-7.657,7.321-7.753a15.352,15.352,0,0,1-.86-4.092c-0.13-1.884-.454-6.538,2.584-9.476,3.364-3.254,9.793-3.381,12.707-.861,0.84,0.726,1.5,1.767,2.584,1.723,1.439-.058,2.243-1.957,3.016-3.015,3.3-4.521,14.647-5.548,18.952-.215,0.55,0.683,2.4,3.217,1.722,8.184a19.321,19.321,0,0,1,3.446,1.507c1.689,0.945,9.222,5.159,8.831,11.2-0.269,4.154-4.22,8.1-9.691,9.476a12.753,12.753,0,0,1-.157,13.642,12.329,12.329,0,0,1-8.242,4.879A13.319,13.319,0,0,1,628.087,2948.815Z" transform="translate(0.085)"/><path class="cls-13" d="M621.991,3085.793a13.517,13.517,0,0,0,5.176-1.707,12.762,12.762,0,0,0,2.726-2.119,11.322,11.322,0,0,0,2.274,1.344,11.742,11.742,0,0,0,3.5.935l1.009,40.63-14.793-.18Z" transform="translate(0.085)"/><path class="cls-9" d="M629.671,3078.051c-4.878,5.483-12.595,6.3-17.334,2.726-3.362-2.534-4.954-7.069-4.336-11.665a11.1,11.1,0,0,1-5.383-1.723c-3.3-2.141-6.05-6.6-4.954-11.414,1.3-5.693,7.024-7.657,7.321-7.753a15.352,15.352,0,0,1-.86-4.092c-0.13-1.884-.454-6.538,2.584-9.476,3.364-3.254,9.793-3.381,12.707-.861,0.84,0.726,1.5,1.767,2.584,1.723,1.439-.058,2.243-1.957,3.016-3.015,3.3-4.521,14.647-5.548,18.952-.215,0.55,0.683,2.4,3.217,1.722,8.184a19.321,19.321,0,0,1,3.446,1.507c1.689,0.945,9.222,5.159,8.831,11.2-0.269,4.154-4.22,8.1-9.691,9.476a12.753,12.753,0,0,1-.157,13.642,12.329,12.329,0,0,1-8.242,4.879A13.319,13.319,0,0,1,629.671,3078.051Z" transform="translate(0.085)"/><path class="cls-13" d="M620.407,2830.861a13.517,13.517,0,0,0,5.176-1.707,12.762,12.762,0,0,0,2.726-2.119,11.322,11.322,0,0,0,2.274,1.344,11.742,11.742,0,0,0,3.5.935l1.009,40.63-14.793-.18Z" transform="translate(0.085)"/><path class="cls-9" d="M628.087,2823.119c-4.878,5.483-12.595,6.3-17.334,2.726-3.362-2.534-4.954-7.069-4.336-11.665a11.1,11.1,0,0,1-5.383-1.723c-3.3-2.141-6.05-6.6-4.954-11.414,1.3-5.693,7.024-7.657,7.321-7.753a15.352,15.352,0,0,1-.86-4.092c-0.13-1.884-.454-6.538,2.584-9.476,3.364-3.254,9.793-3.381,12.707-.861,0.84,0.726,1.5,1.767,2.584,1.723,1.439-.058,2.243-1.957,3.016-3.015,3.3-4.521,14.647-5.548,18.952-.215,0.55,0.683,2.4,3.217,1.722,8.184a19.321,19.321,0,0,1,3.446,1.507c1.689,0.945,9.222,5.159,8.831,11.2-0.269,4.154-4.22,8.1-9.691,9.476a12.753,12.753,0,0,1-.157,13.642,12.329,12.329,0,0,1-8.242,4.879A13.319,13.319,0,0,1,628.087,2823.119Z" transform="translate(0.085)"/><path class="cls-13" d="M621.435,3212.677a13.517,13.517,0,0,0,5.176-1.707,12.762,12.762,0,0,0,2.726-2.119,11.322,11.322,0,0,0,2.274,1.344,11.742,11.742,0,0,0,3.5.935l1.009,40.63-14.793-.18Z" transform="translate(0.085)"/><path class="cls-9" d="M629.114,3204.934c-4.878,5.483-12.595,6.3-17.334,2.726-3.362-2.534-4.954-7.069-4.336-11.665a11.1,11.1,0,0,1-5.383-1.723c-3.3-2.141-6.05-6.6-4.954-11.414,1.3-5.693,7.024-7.657,7.321-7.753a15.352,15.352,0,0,1-.86-4.092c-0.13-1.884-.454-6.538,2.584-9.476,3.364-3.254,9.793-3.381,12.707-.861,0.84,0.726,1.5,1.767,2.584,1.723,1.439-.058,2.243-1.957,3.016-3.015,3.3-4.521,14.647-5.548,18.952-.215,0.55,0.683,2.4,3.217,1.722,8.184a19.321,19.321,0,0,1,3.446,1.507c1.689,0.945,9.222,5.159,8.831,11.2-0.269,4.154-4.22,8.1-9.691,9.476a12.753,12.753,0,0,1-.157,13.642,12.329,12.329,0,0,1-8.242,4.879A13.319,13.319,0,0,1,629.114,3204.934Z" transform="translate(0.085)"/><path class="cls-13" d="M441.136,3212.677a13.517,13.517,0,0,0,5.176-1.707,12.762,12.762,0,0,0,2.726-2.119,11.322,11.322,0,0,0,2.274,1.344,11.742,11.742,0,0,0,3.5.935l1.009,40.63-14.793-.18Z" transform="translate(0.085)"/><path class="cls-9" d="M448.816,3204.934c-4.878,5.483-12.595,6.3-17.334,2.726-3.362-2.534-4.954-7.069-4.336-11.665a11.1,11.1,0,0,1-5.383-1.723c-3.3-2.141-6.05-6.6-4.954-11.414,1.3-5.693,7.024-7.657,7.321-7.753a15.352,15.352,0,0,1-.86-4.092c-0.13-1.884-.454-6.538,2.584-9.476,3.364-3.254,9.793-3.381,12.707-.861,0.84,0.726,1.5,1.767,2.584,1.723,1.439-.058,2.243-1.957,3.016-3.015,3.3-4.521,14.647-5.548,18.952-.215,0.55,0.683,2.4,3.217,1.722,8.184a19.321,19.321,0,0,1,3.446,1.507c1.689,0.945,9.222,5.159,8.831,11.2-0.269,4.154-4.22,8.1-9.691,9.476a12.753,12.753,0,0,1-.157,13.642,12.329,12.329,0,0,1-8.242,4.879A13.319,13.319,0,0,1,448.816,3204.934Z" transform="translate(0.085)"/><path class="cls-13" d="M441.136,3084.911a13.517,13.517,0,0,0,5.176-1.707,12.762,12.762,0,0,0,2.726-2.119,11.322,11.322,0,0,0,2.274,1.344,11.742,11.742,0,0,0,3.5.935l1.009,40.63-14.793-.18Z" transform="translate(0.085)"/><path class="cls-9" d="M448.816,3077.169c-4.878,5.483-12.595,6.3-17.334,2.726-3.362-2.534-4.954-7.069-4.336-11.665a11.1,11.1,0,0,1-5.383-1.723c-3.3-2.141-6.05-6.6-4.954-11.414,1.3-5.693,7.024-7.657,7.321-7.753a15.352,15.352,0,0,1-.86-4.092c-0.13-1.884-.454-6.538,2.584-9.476,3.364-3.254,9.793-3.381,12.707-.861,0.84,0.726,1.5,1.767,2.584,1.723,1.439-.058,2.243-1.957,3.016-3.015,3.3-4.521,14.647-5.548,18.952-.215,0.55,0.683,2.4,3.217,1.722,8.184a19.321,19.321,0,0,1,3.446,1.507c1.689,0.945,9.222,5.159,8.831,11.2-0.269,4.154-4.22,8.1-9.691,9.476a12.753,12.753,0,0,1-.157,13.642,12.329,12.329,0,0,1-8.242,4.879A13.319,13.319,0,0,1,448.816,3077.169Z" transform="translate(0.085)"/><path class="cls-13" d="M618.779,3339.56a13.517,13.517,0,0,0,5.176-1.707,12.762,12.762,0,0,0,2.726-2.119,11.322,11.322,0,0,0,2.274,1.344,11.742,11.742,0,0,0,3.5.935l1.009,40.63-14.793-.18Z" transform="translate(0.085)"/><path class="cls-9" d="M626.459,3331.818c-4.878,5.483-12.595,6.3-17.334,2.726-3.362-2.534-4.954-7.069-4.336-11.665a11.1,11.1,0,0,1-5.383-1.723c-3.3-2.141-6.05-6.6-4.954-11.414,1.3-5.693,7.024-7.657,7.321-7.753a15.352,15.352,0,0,1-.86-4.092c-0.13-1.884-.454-6.538,2.584-9.476,3.364-3.254,9.793-3.381,12.707-.861,0.84,0.726,1.5,1.767,2.584,1.723,1.439-.058,2.243-1.957,3.016-3.015,3.3-4.521,14.647-5.548,18.952-.215,0.55,0.683,2.4,3.217,1.722,8.184a19.321,19.321,0,0,1,3.446,1.507c1.689,0.945,9.222,5.159,8.831,11.2-0.269,4.154-4.22,8.1-9.691,9.476a12.753,12.753,0,0,1-.157,13.642,12.329,12.329,0,0,1-8.242,4.879A13.319,13.319,0,0,1,626.459,3331.818Z" transform="translate(0.085)"/><path class="cls-13" d="M622.051,3720.389a13.517,13.517,0,0,0,5.176-1.707,12.762,12.762,0,0,0,2.726-2.119,11.322,11.322,0,0,0,2.274,1.344,11.742,11.742,0,0,0,3.5.935l1.009,40.63-14.793-.18Z" transform="translate(0.085)"/><path class="cls-9" d="M629.731,3712.646c-4.878,5.483-12.595,6.3-17.334,2.726-3.362-2.534-4.954-7.069-4.336-11.665a11.1,11.1,0,0,1-5.383-1.723c-3.3-2.141-6.05-6.6-4.954-11.414,1.3-5.693,7.024-7.657,7.321-7.753a15.352,15.352,0,0,1-.86-4.092c-0.13-1.884-.454-6.538,2.584-9.476,3.364-3.254,9.793-3.381,12.707-.861,0.84,0.726,1.5,1.767,2.584,1.723,1.439-.058,2.243-1.957,3.016-3.015,3.3-4.521,14.647-5.548,18.952-.215,0.55,0.683,2.4,3.217,1.722,8.184a19.321,19.321,0,0,1,3.446,1.507c1.689,0.945,9.222,5.159,8.831,11.2-0.269,4.154-4.22,8.1-9.691,9.476a12.753,12.753,0,0,1-.157,13.642,12.329,12.329,0,0,1-8.242,4.879A13.319,13.319,0,0,1,629.731,3712.646Z" transform="translate(0.085)"/><path class="cls-13" d="M441.138,3720.389a13.517,13.517,0,0,0,5.176-1.707,12.762,12.762,0,0,0,2.726-2.119,11.322,11.322,0,0,0,2.274,1.344,11.742,11.742,0,0,0,3.5.935l1.009,40.63-14.793-.18Z" transform="translate(0.085)"/><path class="cls-9" d="M448.818,3712.646c-4.878,5.483-12.595,6.3-17.334,2.726-3.362-2.534-4.954-7.069-4.336-11.665a11.1,11.1,0,0,1-5.383-1.723c-3.3-2.141-6.05-6.6-4.954-11.414,1.3-5.693,7.024-7.657,7.321-7.753a15.352,15.352,0,0,1-.86-4.092c-0.13-1.884-.454-6.538,2.584-9.476,3.364-3.254,9.793-3.381,12.707-.861,0.84,0.726,1.5,1.767,2.584,1.723,1.439-.058,2.243-1.957,3.016-3.015,3.3-4.521,14.647-5.548,18.952-.215,0.55,0.683,2.4,3.217,1.722,8.184a19.321,19.321,0,0,1,3.446,1.507c1.689,0.945,9.222,5.159,8.831,11.2-0.269,4.154-4.22,8.1-9.691,9.476a12.753,12.753,0,0,1-.157,13.642,12.329,12.329,0,0,1-8.242,4.879A13.319,13.319,0,0,1,448.818,3712.646Z" transform="translate(0.085)"/><path class="cls-13" d="M622.93,3846.542a13.517,13.517,0,0,0,5.176-1.707,12.762,12.762,0,0,0,2.726-2.119,11.322,11.322,0,0,0,2.274,1.344,11.742,11.742,0,0,0,3.5.935l1.009,40.63-14.793-.18Z" transform="translate(0.085)"/><path class="cls-9" d="M630.61,3838.8c-4.878,5.483-12.595,6.3-17.334,2.726-3.362-2.534-4.954-7.069-4.336-11.665a11.1,11.1,0,0,1-5.383-1.723c-3.3-2.141-6.05-6.6-4.954-11.414,1.3-5.693,7.024-7.657,7.321-7.753a15.352,15.352,0,0,1-.86-4.092c-0.13-1.884-.454-6.538,2.584-9.476,3.364-3.254,9.793-3.381,12.707-.861,0.84,0.726,1.5,1.767,2.584,1.723,1.439-.058,2.243-1.957,3.016-3.015,3.3-4.521,14.647-5.548,18.952-.215,0.55,0.683,2.4,3.217,1.722,8.184a19.321,19.321,0,0,1,3.446,1.507c1.689,0.945,9.222,5.159,8.831,11.2-0.269,4.154-4.22,8.1-9.691,9.476a12.753,12.753,0,0,1-.157,13.642,12.329,12.329,0,0,1-8.242,4.879A13.319,13.319,0,0,1,630.61,3838.8Z" transform="translate(0.085)"/><path class="cls-13" d="M442.018,3846.542a13.517,13.517,0,0,0,5.176-1.707,12.762,12.762,0,0,0,2.726-2.119,11.322,11.322,0,0,0,2.274,1.344,11.742,11.742,0,0,0,3.5.935l1.009,40.63-14.793-.18Z" transform="translate(0.085)"/><path class="cls-9" d="M449.7,3838.8c-4.878,5.483-12.595,6.3-17.334,2.726-3.362-2.534-4.954-7.069-4.336-11.665a11.1,11.1,0,0,1-5.383-1.723c-3.3-2.141-6.05-6.6-4.954-11.414,1.3-5.693,7.024-7.657,7.321-7.753a15.352,15.352,0,0,1-.86-4.092c-0.13-1.884-.454-6.538,2.584-9.476,3.364-3.254,9.793-3.381,12.707-.861,0.84,0.726,1.5,1.767,2.584,1.723,1.439-.058,2.243-1.957,3.016-3.015,3.3-4.521,14.647-5.548,18.952-.215,0.55,0.683,2.4,3.217,1.722,8.184a19.321,19.321,0,0,1,3.446,1.507c1.689,0.945,9.222,5.159,8.831,11.2-0.269,4.154-4.22,8.1-9.691,9.476a12.753,12.753,0,0,1-.157,13.642,12.329,12.329,0,0,1-8.242,4.879A13.319,13.319,0,0,1,449.7,3838.8Z" transform="translate(0.085)"/><path class="cls-13" d="M621.266,3972.238a13.517,13.517,0,0,0,5.176-1.707,12.762,12.762,0,0,0,2.726-2.119,11.322,11.322,0,0,0,2.274,1.344,11.742,11.742,0,0,0,3.5.935l1.009,40.63-14.793-.18Z" transform="translate(0.085)"/><path class="cls-9" d="M628.946,3964.5c-4.878,5.483-12.595,6.3-17.334,2.726-3.362-2.534-4.954-7.069-4.336-11.665a11.1,11.1,0,0,1-5.383-1.723c-3.3-2.141-6.05-6.6-4.954-11.414,1.3-5.693,7.024-7.657,7.321-7.753a15.352,15.352,0,0,1-.86-4.092c-0.13-1.884-.454-6.538,2.584-9.476,3.364-3.254,9.793-3.381,12.707-.861,0.84,0.726,1.5,1.767,2.584,1.723,1.439-.058,2.243-1.957,3.016-3.015,3.3-4.521,14.647-5.548,18.952-.215,0.55,0.683,2.4,3.217,1.722,8.184a19.321,19.321,0,0,1,3.446,1.507c1.689,0.945,9.222,5.159,8.831,11.2-0.269,4.154-4.22,8.1-9.691,9.476a12.753,12.753,0,0,1-.157,13.642,12.329,12.329,0,0,1-8.242,4.879A13.319,13.319,0,0,1,628.946,3964.5Z" transform="translate(0.085)"/><path class="cls-13" d="M440.354,3972.238a13.517,13.517,0,0,0,5.176-1.707,12.762,12.762,0,0,0,2.726-2.119,11.322,11.322,0,0,0,2.274,1.344,11.742,11.742,0,0,0,3.5.935l1.009,40.63-14.793-.18Z" transform="translate(0.085)"/><path class="cls-9" d="M448.034,3964.5c-4.878,5.483-12.595,6.3-17.334,2.726-3.362-2.534-4.954-7.069-4.336-11.665a11.1,11.1,0,0,1-5.383-1.723c-3.3-2.141-6.05-6.6-4.954-11.414,1.3-5.693,7.024-7.657,7.321-7.753a15.352,15.352,0,0,1-.86-4.092c-0.13-1.884-.454-6.538,2.584-9.476,3.364-3.254,9.793-3.381,12.707-.861,0.84,0.726,1.5,1.767,2.584,1.723,1.439-.058,2.243-1.957,3.016-3.015,3.3-4.521,14.647-5.548,18.952-.215,0.55,0.683,2.4,3.217,1.722,8.184a19.321,19.321,0,0,1,3.446,1.507c1.689,0.945,9.222,5.159,8.831,11.2-0.269,4.154-4.22,8.1-9.691,9.476a12.753,12.753,0,0,1-.157,13.642,12.329,12.329,0,0,1-8.242,4.879A13.319,13.319,0,0,1,448.034,3964.5Z" transform="translate(0.085)"/><path class="cls-13" d="M621.266,4101.369a13.517,13.517,0,0,0,5.176-1.707,12.762,12.762,0,0,0,2.726-2.119,11.322,11.322,0,0,0,2.274,1.344,11.742,11.742,0,0,0,3.5.935l1.009,40.63-14.793-.18Z" transform="translate(0.085)"/><path class="cls-9" d="M628.946,4093.626c-4.878,5.483-12.595,6.3-17.334,2.726-3.362-2.534-4.954-7.069-4.336-11.665a11.1,11.1,0,0,1-5.383-1.723c-3.3-2.141-6.05-6.6-4.954-11.414,1.3-5.693,7.024-7.657,7.321-7.753a15.352,15.352,0,0,1-.86-4.092c-0.13-1.884-.454-6.538,2.584-9.476,3.364-3.254,9.793-3.381,12.707-.861,0.84,0.726,1.5,1.767,2.584,1.723,1.439-.058,2.243-1.957,3.016-3.015,3.3-4.521,14.647-5.548,18.952-.215,0.55,0.683,2.4,3.217,1.722,8.184a19.321,19.321,0,0,1,3.446,1.507c1.689,0.945,9.222,5.159,8.831,11.2-0.269,4.154-4.22,8.1-9.691,9.476a12.753,12.753,0,0,1-.157,13.642,12.329,12.329,0,0,1-8.242,4.879A13.319,13.319,0,0,1,628.946,4093.626Z" transform="translate(0.085)"/><path class="cls-13" d="M440.354,4101.369a13.517,13.517,0,0,0,5.176-1.707,12.762,12.762,0,0,0,2.726-2.119,11.322,11.322,0,0,0,2.274,1.344,11.742,11.742,0,0,0,3.5.935l1.009,40.63-14.793-.18Z" transform="translate(0.085)"/><path class="cls-9" d="M448.034,4093.626c-4.878,5.483-12.595,6.3-17.334,2.726-3.362-2.534-4.954-7.069-4.336-11.665a11.1,11.1,0,0,1-5.383-1.723c-3.3-2.141-6.05-6.6-4.954-11.414,1.3-5.693,7.024-7.657,7.321-7.753a15.352,15.352,0,0,1-.86-4.092c-0.13-1.884-.454-6.538,2.584-9.476,3.364-3.254,9.793-3.381,12.707-.861,0.84,0.726,1.5,1.767,2.584,1.723,1.439-.058,2.243-1.957,3.016-3.015,3.3-4.521,14.647-5.548,18.952-.215,0.55,0.683,2.4,3.217,1.722,8.184a19.321,19.321,0,0,1,3.446,1.507c1.689,0.945,9.222,5.159,8.831,11.2-0.269,4.154-4.22,8.1-9.691,9.476a12.753,12.753,0,0,1-.157,13.642,12.329,12.329,0,0,1-8.242,4.879A13.319,13.319,0,0,1,448.034,4093.626Z" transform="translate(0.085)"/><path class="cls-13" d="M621.266,4227.853a13.517,13.517,0,0,0,5.176-1.707,12.762,12.762,0,0,0,2.726-2.119,11.322,11.322,0,0,0,2.274,1.344,11.742,11.742,0,0,0,3.5.935l1.009,40.63-14.793-.18Z" transform="translate(0.085)"/><path class="cls-9" d="M628.946,4220.11c-4.878,5.483-12.595,6.3-17.334,2.726-3.362-2.534-4.954-7.069-4.336-11.665a11.1,11.1,0,0,1-5.383-1.723c-3.3-2.141-6.05-6.6-4.954-11.414,1.3-5.693,7.024-7.657,7.321-7.753a15.352,15.352,0,0,1-.86-4.092c-0.13-1.884-.454-6.538,2.584-9.476,3.364-3.254,9.793-3.381,12.707-.861,0.84,0.726,1.5,1.767,2.584,1.723,1.439-.058,2.243-1.957,3.016-3.015,3.3-4.521,14.647-5.548,18.952-.215,0.55,0.683,2.4,3.217,1.722,8.184a19.321,19.321,0,0,1,3.446,1.507c1.689,0.945,9.222,5.159,8.831,11.2-0.269,4.154-4.22,8.1-9.691,9.476a12.753,12.753,0,0,1-.157,13.642,12.329,12.329,0,0,1-8.242,4.879A13.319,13.319,0,0,1,628.946,4220.11Z" transform="translate(0.085)"/><path class="cls-13" d="M440.354,4227.853a13.517,13.517,0,0,0,5.176-1.707,12.762,12.762,0,0,0,2.726-2.119,11.322,11.322,0,0,0,2.274,1.344,11.742,11.742,0,0,0,3.5.935l1.009,40.63-14.793-.18Z" transform="translate(0.085)"/><path class="cls-9" d="M448.034,4220.11c-4.878,5.483-12.595,6.3-17.334,2.726-3.362-2.534-4.954-7.069-4.336-11.665a11.1,11.1,0,0,1-5.383-1.723c-3.3-2.141-6.05-6.6-4.954-11.414,1.3-5.693,7.024-7.657,7.321-7.753a15.352,15.352,0,0,1-.86-4.092c-0.13-1.884-.454-6.538,2.584-9.476,3.364-3.254,9.793-3.381,12.707-.861,0.84,0.726,1.5,1.767,2.584,1.723,1.439-.058,2.243-1.957,3.016-3.015,3.3-4.521,14.647-5.548,18.952-.215,0.55,0.683,2.4,3.217,1.722,8.184a19.321,19.321,0,0,1,3.446,1.507c1.689,0.945,9.222,5.159,8.831,11.2-0.269,4.154-4.22,8.1-9.691,9.476a12.753,12.753,0,0,1-.157,13.642,12.329,12.329,0,0,1-8.242,4.879A13.319,13.319,0,0,1,448.034,4220.11Z" transform="translate(0.085)"/><path class="cls-13" d="M441.136,3593.327a13.517,13.517,0,0,0,5.176-1.707,12.762,12.762,0,0,0,2.726-2.119,11.322,11.322,0,0,0,2.274,1.344,11.742,11.742,0,0,0,3.5.935l1.009,40.63-14.793-.18Z" transform="translate(0.085)"/><path class="cls-9" d="M448.816,3585.585c-4.878,5.483-12.595,6.3-17.334,2.726-3.362-2.534-4.954-7.069-4.336-11.665a11.1,11.1,0,0,1-5.383-1.723c-3.3-2.141-6.05-6.6-4.954-11.414,1.3-5.693,7.024-7.657,7.321-7.753a15.352,15.352,0,0,1-.86-4.092c-0.13-1.884-.454-6.538,2.584-9.476,3.364-3.254,9.793-3.381,12.707-.861,0.84,0.726,1.5,1.767,2.584,1.723,1.439-.058,2.243-1.957,3.016-3.015,3.3-4.521,14.647-5.548,18.952-.215,0.55,0.683,2.4,3.217,1.722,8.184a19.321,19.321,0,0,1,3.446,1.507c1.689,0.945,9.222,5.159,8.831,11.2-0.269,4.154-4.22,8.1-9.691,9.476a12.753,12.753,0,0,1-.157,13.642,12.329,12.329,0,0,1-8.242,4.879A13.319,13.319,0,0,1,448.816,3585.585Z" transform="translate(0.085)"/><path class="cls-13" d="M622.068,3594.236a13.517,13.517,0,0,0,5.176-1.707,12.762,12.762,0,0,0,2.726-2.119,11.322,11.322,0,0,0,2.274,1.344,11.742,11.742,0,0,0,3.5.935l1.009,40.63-14.793-.18Z" transform="translate(0.085)"/><path class="cls-9" d="M629.748,3586.493c-4.878,5.483-12.595,6.3-17.334,2.726-3.362-2.534-4.954-7.069-4.336-11.665a11.1,11.1,0,0,1-5.383-1.723c-3.3-2.141-6.05-6.6-4.954-11.414,1.3-5.693,7.024-7.657,7.321-7.753a15.352,15.352,0,0,1-.86-4.092c-0.13-1.884-.454-6.538,2.584-9.476,3.364-3.254,9.793-3.381,12.707-.861,0.84,0.726,1.5,1.767,2.584,1.723,1.439-.058,2.243-1.957,3.016-3.015,3.3-4.521,14.647-5.548,18.952-.215,0.55,0.683,2.4,3.217,1.722,8.184a19.321,19.321,0,0,1,3.446,1.507c1.689,0.945,9.222,5.159,8.831,11.2-0.269,4.154-4.22,8.1-9.691,9.476a12.753,12.753,0,0,1-.157,13.642,12.329,12.329,0,0,1-8.242,4.879A13.319,13.319,0,0,1,629.748,3586.493Z" transform="translate(0.085)"/><path class="cls-13" d="M620.484,3467.352a13.517,13.517,0,0,0,5.176-1.707,12.762,12.762,0,0,0,2.726-2.119,11.322,11.322,0,0,0,2.274,1.344,11.742,11.742,0,0,0,3.5.935l1.009,40.63-14.793-.18Z" transform="translate(0.085)"/><path class="cls-9" d="M628.164,3459.61c-4.878,5.483-12.595,6.3-17.334,2.726-3.362-2.534-4.954-7.069-4.336-11.665a11.1,11.1,0,0,1-5.383-1.723c-3.3-2.141-6.05-6.6-4.954-11.414,1.3-5.693,7.024-7.657,7.321-7.753a15.352,15.352,0,0,1-.86-4.092c-0.13-1.884-.454-6.538,2.584-9.476,3.364-3.254,9.793-3.381,12.707-.861,0.84,0.726,1.5,1.767,2.584,1.723,1.439-.058,2.243-1.957,3.016-3.015,3.3-4.521,14.647-5.548,18.952-.215,0.55,0.683,2.4,3.217,1.722,8.184a19.321,19.321,0,0,1,3.446,1.507c1.689,0.945,9.222,5.159,8.831,11.2-0.269,4.154-4.22,8.1-9.691,9.476a12.753,12.753,0,0,1-.157,13.642,12.329,12.329,0,0,1-8.242,4.879A13.319,13.319,0,0,1,628.164,3459.61Z" transform="translate(0.085)"/><path class="cls-13" d="M444.3,3466.443a13.517,13.517,0,0,0,5.176-1.707,12.762,12.762,0,0,0,2.726-2.119,11.322,11.322,0,0,0,2.274,1.344,11.742,11.742,0,0,0,3.5.935l1.009,40.63-14.793-.18Z" transform="translate(0.085)"/><path class="cls-9" d="M451.985,3458.7c-4.878,5.483-12.595,6.3-17.334,2.726-3.362-2.534-4.954-7.069-4.336-11.665a11.1,11.1,0,0,1-5.383-1.723c-3.3-2.141-6.05-6.6-4.954-11.414,1.3-5.693,7.024-7.657,7.321-7.753a15.352,15.352,0,0,1-.86-4.092c-0.13-1.884-.454-6.538,2.584-9.476,3.364-3.254,9.793-3.381,12.707-.861,0.84,0.726,1.5,1.767,2.584,1.723,1.439-.058,2.243-1.957,3.016-3.015,3.3-4.521,14.647-5.548,18.952-.215,0.55,0.683,2.4,3.217,1.722,8.184a19.321,19.321,0,0,1,3.446,1.507c1.689,0.945,9.222,5.159,8.831,11.2-0.269,4.154-4.22,8.1-9.691,9.476a12.753,12.753,0,0,1-.157,13.642,12.329,12.329,0,0,1-8.242,4.879A13.319,13.319,0,0,1,451.985,3458.7Z" transform="translate(0.085)"/><path class="cls-13" d="M442.721,3339.56a13.517,13.517,0,0,0,5.176-1.707,12.762,12.762,0,0,0,2.726-2.119,11.322,11.322,0,0,0,2.274,1.344,11.742,11.742,0,0,0,3.5.935l1.009,40.63-14.793-.18Z" transform="translate(0.085)"/><path class="cls-9" d="M450.4,3331.818c-4.878,5.483-12.595,6.3-17.334,2.726-3.362-2.534-4.954-7.069-4.336-11.665a11.1,11.1,0,0,1-5.383-1.723c-3.3-2.141-6.05-6.6-4.954-11.414,1.3-5.693,7.024-7.657,7.321-7.753a15.352,15.352,0,0,1-.86-4.092c-0.13-1.884-.454-6.538,2.584-9.476,3.364-3.254,9.793-3.381,12.707-.861,0.84,0.726,1.5,1.767,2.584,1.723,1.439-.058,2.243-1.957,3.016-3.015,3.3-4.521,14.647-5.548,18.952-.215,0.55,0.683,2.4,3.217,1.722,8.184a19.321,19.321,0,0,1,3.446,1.507c1.689,0.945,9.222,5.159,8.831,11.2-0.269,4.154-4.22,8.1-9.691,9.476a12.753,12.753,0,0,1-.157,13.642,12.329,12.329,0,0,1-8.242,4.879A13.319,13.319,0,0,1,450.4,3331.818Z" transform="translate(0.085)"/><path class="cls-13" d="M442.32,1435.573a13.517,13.517,0,0,0,5.176-1.707,12.762,12.762,0,0,0,2.726-2.119,11.322,11.322,0,0,0,2.274,1.344,11.742,11.742,0,0,0,3.5.935l1.009,40.63-14.793-.18Z" transform="translate(0.085)"/><path class="cls-9" d="M450,1427.831c-4.878,5.483-12.595,6.3-17.334,2.726-3.362-2.534-4.954-7.069-4.336-11.665a11.1,11.1,0,0,1-5.383-1.723c-3.3-2.141-6.05-6.6-4.954-11.414,1.3-5.693,7.024-7.657,7.321-7.753a15.352,15.352,0,0,1-.86-4.092c-0.13-1.884-.454-6.538,2.584-9.476,3.364-3.254,9.793-3.381,12.707-.861,0.84,0.726,1.5,1.767,2.584,1.723,1.439-.058,2.243-1.957,3.016-3.015,3.3-4.521,14.647-5.548,18.952-.215,0.55,0.683,2.4,3.217,1.722,8.184a19.321,19.321,0,0,1,3.446,1.507c1.689,0.945,9.222,5.159,8.831,11.2-0.269,4.154-4.22,8.1-9.691,9.476a12.753,12.753,0,0,1-.157,13.642,12.329,12.329,0,0,1-8.242,4.879A13.319,13.319,0,0,1,450,1427.831Z" transform="translate(0.085)"/><path class="cls-13" d="M621.616,1814.64a13.517,13.517,0,0,0,5.176-1.707,12.762,12.762,0,0,0,2.726-2.119,11.322,11.322,0,0,0,2.274,1.344,11.742,11.742,0,0,0,3.5.935l1.009,40.63-14.793-.18Z" transform="translate(0.085)"/><path class="cls-9" d="M629.3,1806.9c-4.878,5.483-12.595,6.3-17.334,2.726-3.362-2.534-4.954-7.069-4.336-11.665a11.1,11.1,0,0,1-5.383-1.723c-3.3-2.141-6.05-6.6-4.954-11.414,1.3-5.693,7.024-7.657,7.321-7.753a15.352,15.352,0,0,1-.86-4.092c-0.13-1.884-.454-6.538,2.584-9.476,3.364-3.254,9.793-3.381,12.707-.861,0.84,0.726,1.5,1.767,2.584,1.723,1.439-.058,2.243-1.957,3.016-3.015,3.3-4.521,14.647-5.548,18.952-.215,0.55,0.683,2.4,3.217,1.722,8.184a19.321,19.321,0,0,1,3.446,1.507c1.689,0.945,9.222,5.159,8.831,11.2-0.269,4.154-4.22,8.1-9.691,9.476a12.753,12.753,0,0,1-.157,13.642,12.329,12.329,0,0,1-8.242,4.879A13.319,13.319,0,0,1,629.3,1806.9Z" transform="translate(0.085)"/><path class="cls-13" d="M620.672,1560.2a13.517,13.517,0,0,0,5.176-1.707,12.762,12.762,0,0,0,2.726-2.119,11.322,11.322,0,0,0,2.274,1.344,11.742,11.742,0,0,0,3.5.935l1.009,40.63-14.793-.18Z" transform="translate(0.085)"/><path class="cls-9" d="M628.352,1552.455c-4.878,5.483-12.595,6.3-17.334,2.726-3.362-2.534-4.954-7.069-4.336-11.665a11.1,11.1,0,0,1-5.383-1.723c-3.3-2.141-6.05-6.6-4.954-11.414,1.3-5.693,7.024-7.657,7.321-7.753a15.352,15.352,0,0,1-.86-4.092c-0.13-1.884-.454-6.538,2.584-9.476,3.364-3.254,9.793-3.381,12.707-.861,0.84,0.726,1.5,1.767,2.584,1.723,1.439-.058,2.243-1.957,3.016-3.015,3.3-4.521,14.647-5.548,18.952-.215,0.55,0.683,2.4,3.217,1.722,8.184a19.321,19.321,0,0,1,3.446,1.507c1.689,0.945,9.222,5.159,8.831,11.2-0.269,4.154-4.22,8.1-9.691,9.476a12.753,12.753,0,0,1-.157,13.642,12.329,12.329,0,0,1-8.242,4.879A13.319,13.319,0,0,1,628.352,1552.455Z" transform="translate(0.085)"/><path class="cls-13" d="M441.95,1052.875a13.517,13.517,0,0,0,5.176-1.707,12.762,12.762,0,0,0,2.726-2.119,11.322,11.322,0,0,0,2.274,1.344,11.742,11.742,0,0,0,3.5.935l1.009,40.63-14.793-.18Z" transform="translate(0.085)"/><path class="cls-9" d="M449.63,1045.133c-4.878,5.483-12.595,6.3-17.334,2.726-3.362-2.534-4.954-7.069-4.336-11.665a11.1,11.1,0,0,1-5.383-1.723c-3.3-2.141-6.05-6.6-4.954-11.414,1.3-5.693,7.024-7.657,7.321-7.753a15.352,15.352,0,0,1-.86-4.092c-0.13-1.884-.454-6.538,2.584-9.476,3.364-3.254,9.793-3.381,12.707-.861,0.84,0.726,1.5,1.767,2.584,1.723,1.439-.058,2.243-1.957,3.016-3.015,3.3-4.521,14.647-5.548,18.952-.215,0.55,0.683,2.4,3.217,1.722,8.184a19.321,19.321,0,0,1,3.446,1.507c1.689,0.945,9.222,5.159,8.831,11.2-0.269,4.154-4.22,8.1-9.691,9.476a12.753,12.753,0,0,1-.157,13.642,12.329,12.329,0,0,1-8.242,4.879A13.319,13.319,0,0,1,449.63,1045.133Z" transform="translate(0.085)"/><path class="cls-13" d="M441.95,1180.9a13.517,13.517,0,0,0,5.176-1.707,12.762,12.762,0,0,0,2.726-2.119,11.322,11.322,0,0,0,2.274,1.344,11.742,11.742,0,0,0,3.5.935l1.009,40.63-14.793-.18Z" transform="translate(0.085)"/><path class="cls-9" d="M449.63,1173.16c-4.878,5.483-12.595,6.3-17.334,2.726-3.362-2.534-4.954-7.069-4.336-11.665a11.1,11.1,0,0,1-5.383-1.723c-3.3-2.141-6.05-6.6-4.954-11.414,1.3-5.693,7.024-7.657,7.321-7.753a15.352,15.352,0,0,1-.86-4.092c-0.13-1.884-.454-6.538,2.584-9.476,3.364-3.254,9.793-3.381,12.707-.861,0.84,0.726,1.5,1.767,2.584,1.723,1.439-.058,2.243-1.957,3.016-3.015,3.3-4.521,14.647-5.548,18.952-.215,0.55,0.683,2.4,3.217,1.722,8.184a19.321,19.321,0,0,1,3.446,1.507c1.689,0.945,9.222,5.159,8.831,11.2-0.269,4.154-4.22,8.1-9.691,9.476a12.753,12.753,0,0,1-.157,13.642,12.329,12.329,0,0,1-8.242,4.879A13.319,13.319,0,0,1,449.63,1173.16Z" transform="translate(0.085)"/><path class="cls-13" d="M442.32,1308.475a13.517,13.517,0,0,0,5.176-1.707,12.762,12.762,0,0,0,2.726-2.119,11.322,11.322,0,0,0,2.274,1.344,11.742,11.742,0,0,0,3.5.935l1.009,40.63-14.793-.18Z" transform="translate(0.085)"/><path class="cls-9" d="M450,1300.732c-4.878,5.483-12.595,6.3-17.334,2.726-3.362-2.534-4.954-7.069-4.336-11.665a11.1,11.1,0,0,1-5.383-1.723c-3.3-2.141-6.05-6.6-4.954-11.414,1.3-5.693,7.024-7.657,7.321-7.753a15.352,15.352,0,0,1-.86-4.092c-0.13-1.884-.454-6.538,2.584-9.476,3.364-3.254,9.793-3.381,12.707-.861,0.84,0.726,1.5,1.767,2.584,1.723,1.439-.058,2.243-1.957,3.016-3.015,3.3-4.521,14.647-5.548,18.952-.215,0.55,0.683,2.4,3.217,1.722,8.184a19.321,19.321,0,0,1,3.446,1.507c1.689,0.945,9.222,5.159,8.831,11.2-0.269,4.154-4.22,8.1-9.691,9.476a12.753,12.753,0,0,1-.157,13.642,12.329,12.329,0,0,1-8.242,4.879A13.319,13.319,0,0,1,450,1300.732Z" transform="translate(0.085)"/><path class="cls-13" d="M621.435,1308.475a13.517,13.517,0,0,0,5.176-1.707,12.762,12.762,0,0,0,2.726-2.119,11.322,11.322,0,0,0,2.274,1.344,11.742,11.742,0,0,0,3.5.935l1.009,40.63-14.793-.18Z" transform="translate(0.085)"/><path class="cls-9" d="M629.114,1300.732c-4.878,5.483-12.595,6.3-17.334,2.726-3.362-2.534-4.954-7.069-4.336-11.665a11.1,11.1,0,0,1-5.383-1.723c-3.3-2.141-6.05-6.6-4.954-11.414,1.3-5.693,7.024-7.657,7.321-7.753a15.352,15.352,0,0,1-.86-4.092c-0.13-1.884-.454-6.538,2.584-9.476,3.364-3.254,9.793-3.381,12.707-.861,0.84,0.726,1.5,1.767,2.584,1.723,1.439-.058,2.243-1.957,3.016-3.015,3.3-4.521,14.647-5.548,18.952-.215,0.55,0.683,2.4,3.217,1.722,8.184a19.321,19.321,0,0,1,3.446,1.507c1.689,0.945,9.222,5.159,8.831,11.2-0.269,4.154-4.22,8.1-9.691,9.476a12.753,12.753,0,0,1-.157,13.642,12.329,12.329,0,0,1-8.242,4.879A13.319,13.319,0,0,1,629.114,1300.732Z" transform="translate(0.085)"/><path class="cls-13" d="M621.435,1435.573a13.517,13.517,0,0,0,5.176-1.707,12.762,12.762,0,0,0,2.726-2.119,11.322,11.322,0,0,0,2.274,1.344,11.742,11.742,0,0,0,3.5.935l1.009,40.63-14.793-.18Z" transform="translate(0.085)"/><path class="cls-9" d="M629.114,1427.831c-4.878,5.483-12.595,6.3-17.334,2.726-3.362-2.534-4.954-7.069-4.336-11.665a11.1,11.1,0,0,1-5.383-1.723c-3.3-2.141-6.05-6.6-4.954-11.414,1.3-5.693,7.024-7.657,7.321-7.753a15.352,15.352,0,0,1-.86-4.092c-0.13-1.884-.454-6.538,2.584-9.476,3.364-3.254,9.793-3.381,12.707-.861,0.84,0.726,1.5,1.767,2.584,1.723,1.439-.058,2.243-1.957,3.016-3.015,3.3-4.521,14.647-5.548,18.952-.215,0.55,0.683,2.4,3.217,1.722,8.184a19.321,19.321,0,0,1,3.446,1.507c1.689,0.945,9.222,5.159,8.831,11.2-0.269,4.154-4.22,8.1-9.691,9.476a12.753,12.753,0,0,1-.157,13.642,12.329,12.329,0,0,1-8.242,4.879A13.319,13.319,0,0,1,629.114,1427.831Z" transform="translate(0.085)"/><path class="cls-13" d="M621.435,421.1a13.517,13.517,0,0,0,5.176-1.707,12.762,12.762,0,0,0,2.726-2.119,11.322,11.322,0,0,0,2.274,1.344,11.742,11.742,0,0,0,3.5.935l1.009,40.63L621.331,460Z" transform="translate(0.085)"/><path class="cls-9" d="M629.114,413.36c-4.878,5.483-12.595,6.3-17.334,2.726-3.362-2.534-4.954-7.069-4.336-11.665a11.1,11.1,0,0,1-5.383-1.723c-3.3-2.141-6.05-6.6-4.954-11.414,1.3-5.693,7.024-7.657,7.321-7.753a15.352,15.352,0,0,1-.86-4.092c-0.13-1.884-.454-6.538,2.584-9.476,3.364-3.254,9.793-3.381,12.707-.861,0.84,0.726,1.5,1.767,2.584,1.723,1.439-.058,2.243-1.957,3.016-3.015,3.3-4.521,14.647-5.548,18.952-.215,0.55,0.683,2.4,3.217,1.722,8.184a19.321,19.321,0,0,1,3.446,1.507c1.689,0.945,9.222,5.159,8.831,11.2-0.269,4.154-4.22,8.1-9.691,9.476a12.753,12.753,0,0,1-.157,13.642,12.329,12.329,0,0,1-8.242,4.879A13.319,13.319,0,0,1,629.114,413.36Z" transform="translate(0.085)"/></g></svg>