<?xml version="1.0" encoding="utf-8"?>
<!-- Generator: Adobe Illustrator 19.2.0, SVG Export Plug-In . SVG Version: 6.00 Build 0)  -->
<svg version="1.1" id="Calque_1" xmlns="http://www.w3.org/2000/svg" xmlns:xlink="http://www.w3.org/1999/xlink" x="0px" y="0px"
	 viewBox="0 0 100 125" style="enable-background:new 0 0 100 125;" xml:space="preserve">
<style type="text/css">
	.st0{fill:#FFFFFF;}
</style>
<g transform="matrix( 1, 0, 0, 1, 0,0) ">
	<g>
		<g id="a">
			<path class="st0" d="M64.6,82.6c0,2.7,1.9,4.9,5.8,6.6c0.7,0,1.2,0.1,1.6,0.2c4.3-0.1,6.7-2.3,7.1-6.6c0-1.7-1.2-3.5-3.6-5.3
				c-1.3-0.6-2.3-0.9-3-0.9c-3,0-4.8,0.6-5.5,1.8C65.4,79.1,64.6,80.5,64.6,82.6 M68.3,80.3h1.3c1.6,0,2.5-0.4,2.5-1.1
				c0-0.4,0.2-0.5,0.5-0.5c1,0.3,2,1,3,2.1l0.7,2.2v0.9c-0.8,2.1-2.2,3.2-4.2,3.2h-0.2c-3.1-1-4.7-2.8-4.7-5.4
				C67.2,80.8,67.6,80.3,68.3,80.3 M83.6,83.7c-0.9,1.8-0.7,3.2,0.4,4.2c1.9,1.8,3.6,2.4,5,1.6c0.4,0,0.7-0.1,0.9-0.4l0.8-0.8
				c1.2-1,1.4-2.4,0.7-4c-0.3-0.4-0.6-0.9-1.1-1.5c-1.1-1-3.1-1-5.9,0.1L83.6,83.7 M89.1,84.4L89.1,84.4c0.9,0.8,0.8,1.8-0.1,2.9
				l-0.3,0.3c-0.7,0.6-1.5,0.5-2.6-0.3c-0.8-1.4-0.9-2.4-0.2-3C87.3,83.7,88.3,83.7,89.1,84.4 M8.8,31.6v1.1l0.2,1
				c0,0.4-1.3,0.8-3.8,1.2c-2.3,1.2-3.4,3.4-3.4,6.5c-0.1,0.3-0.1,0.7-0.1,1.2c0.3,2.3,1.1,4.2,2.6,5.6c0.2,0,0.9,0.5,1.9,1.7
				c2.4,0.9,3.7,1.8,3.7,2.5c0.1,1,0.9,2.3,2.4,4c2.7,1.4,5.1,2.1,7.1,2.1h1.4c0.6,0,1.1,0.6,1.5,1.7c1.9,2.7,4.2,4.7,7.1,6.1
				c2,0.5,4,0.8,5.8,0.8h1.1c0.6,0,1.5,0,2.6-0.1c0.1,0,0.7,0.7,1.5,2c1.8,1.5,3.7,2.4,5.6,2.6c0.4,0.6,0.9,1.5,1.5,2.8
				c1.9,2,4.5,3,7.8,3h1.1c0.5,0,1.9-0.4,4.2-1.2h0.2l1.6,0.3c3.4,0,5.7-1.6,7.1-4.8l0.5-2.4l-0.5-2.6l3.2-1.1c2-1.6,3.1-2.6,3.1-3
				c0.5-1.6,1-2.3,1.3-2.3l2.3,0.7h1.1c2.7,0,4.4-0.6,5-1.8c0.3-0.3,0.8-1.2,1.3-2.8h0.2c1.4,0.4,2.5,0.6,3.3,0.6
				c3.2,0,5.9-1.7,8.2-5c0.7-2.1,1-3.4,1-3.9v-1.6c0-3.1-1.9-5.6-5.7-7.2l-0.8-0.1h-1.1c-0.2,0-0.5-0.9-0.8-2.6
				c-0.4-1.6-2.6-3.5-6.7-5.7c-1.7-0.5-3.3-0.8-4.8-0.8H78l-1.1,0.1c-0.4-2.6-1.2-5-2.5-7.3C71,19.3,68.5,17.2,67,17
				c-2.6-1.5-5.6-2.3-9-2.3h-0.6c-0.4,0-1.3,0.2-2.6,0.7c-1.8-3.5-4.2-5.2-7-5.2h-1.8c-2.5,0-4.5,1.1-6.1,3.4
				c-0.1,0.1-0.2,0.2-0.5,0.3c-1.3-0.7-3.1-1.1-5.4-1.1c-5.7,1.2-8.5,3.6-8.5,7.2v0.3c0,0.9,0.1,1.7,0.3,2.5L25.2,23
				c-0.8-0.3-2.2-0.5-4.1-0.5c-1.9,0-4.7,1.1-8.4,3.1C10.1,28.2,8.8,30.2,8.8,31.6 M14.9,27.4c3-1.6,5.5-2.4,7.3-2.4h1.5
				c1.7,0.2,3.5,1.3,5.6,3.2h0.4c0.4,0,0.7-0.2,1-0.6l-1.8-2.8c-0.7-1.1-1-2.6-1-4.5c0.2-1.2,0.9-2.3,2.1-3.3
				c1.8-1.1,3.3-1.7,4.4-1.7h0.5c2.4,0,4.6,0.9,6.5,2.8h0.5c0.4-0.4,0.5-0.8,0.5-1.1l-0.3-2.1c0-0.8,1.3-1.6,3.9-2.4l1.1-0.2
				c1.7,0,2.9,0.7,3.8,2c1.4,1.2,2.1,2.3,2.1,3.4l0.4,0.3h0.2c1.9-0.7,3-1.1,3.3-1.1h1.6c2.3,0,5.5,1.1,9.4,3.5
				c3.8,3.9,5.7,6.9,5.7,9.1c0.1,0.1,0.1,0.2,0.1,0.4l-0.3,2.8c0.2,0.4,0.4,0.6,0.7,0.7h0.9c0.9-0.6,2.1-0.9,3.5-0.9h1.4
				c2.4,0.4,4.8,1.7,7.3,3.8c0.8,1.1,1.2,2.4,1.3,3.7c0,0.7-0.3,1.5-1,2.4v0.5c0,0.2,0.3,0.4,0.8,0.6h0.1c0.7,0,1.7-0.6,2.8-1.8
				c1.1,0,2.4,0.7,3.8,2.1c1,1.5,1.5,2.7,1.5,3.5c0,1.9-0.8,3.9-2.5,6.1l-2.6,1.3c-3.9-0.4-5.8-0.9-5.8-1.5L85,52.6
				c-1.2,0.2-1.8,0.4-1.8,0.8c0,0.4,0.4,1.2,1.1,2.4v0.4c-0.3,1.7-1.2,2.6-2.8,2.6h-0.8c-0.7,0-2.6-0.7-5.9-2.2h-0.8
				c-0.5,0.3-0.8,0.6-0.8,0.9L74,59v0.6c0,1.2-0.7,2.5-2,3.6l-2.7,1H69l-1-0.1l-0.7,0.1c-2.3-1.4-4-2.2-5.3-2.4
				c-1.3,0.1-2,0.3-2,0.6v0.2c0,0.7,1,1.3,3.1,2.1c2.3,1.6,3.4,3.1,3.4,4.5v1.2c0,1.3-0.8,2.5-2.3,3.7c-0.5,0-0.9,0.1-1.3,0.2
				c-0.9-0.5-2.1-1.3-3.6-2.4l-1.1-0.1h-0.4c-0.2,0-0.5,0.2-0.7,0.6v0.4c0.8,0.7,1.3,1.3,1.3,1.8l-1.8,0.6h-1
				c-3.6,0-5.9-1.6-6.9-4.8c-0.3-0.8-0.4-1.5-0.4-2.2v-1.4c0-0.9,0.1-1.9,0.4-2.8v-0.6L48,62.8h-0.6c-1.2,0.8-1.8,2.8-1.8,6
				l-0.3,0.1h-0.3c-1.4,0-2.6-1.1-3.8-3.2c0-0.2-0.4-0.6-1.3-1.3h-1.1l-3.6,0.5h-0.6c-4,0-7.1-1.7-9.3-5.2c-0.8-0.7-1.4-1.9-1.8-3.6
				c0.1-0.8,0.2-1.5,0.2-2c-0.1-0.4-0.5-0.6-1.1-0.6H22c-0.4,0-0.8,0.8-1.3,2.5l-0.2,0.1H19c-2.1,0-4.2-0.9-6.1-2.6
				c-0.5-0.9-0.8-1.7-0.8-2.6l0.2-1.2c-0.4-0.8-1-1.2-1.9-1.2l-0.8,0.3c-2-0.6-3.5-1.7-4.5-3.5c-0.4-1.1-0.6-1.8-0.6-2.1v-1.4
				c0.5-2.9,1.1-4.3,1.8-4.3c0.1-0.4,1.3-0.8,3.8-1.1l2.4,1.7h0.5c0.1,0,0.4-0.2,0.7-0.5v-1c-1.4-1.3-2.1-2.5-2.1-3.5
				C11.4,31.7,12.6,29.9,14.9,27.4z"/>
		</g>
	</g>
</g>
</svg>
